<svg xmlns="http://www.w3.org/2000/svg" width="839" height="400" viewBox="0 0 839 400"><g transform="translate(-468 -1859.184)"><text transform="translate(468 2152.184)" fill="#ddd" font-size="293" font-family="AvenirNext-Regular, Avenir Next"><tspan x="0" y="0" xml:space="preserve">SH    P</tspan></text><g transform="translate(838.569 1934.271)"><path d="M0-49.965l46.574-27.1v49.674L0-.654Z" transform="translate(241.935 212.276)" fill="#b0f2dc"/><path d="M0-49.965l46.574-27.1v49.674L0-.654Z" transform="translate(67.728 103.718)" fill="#b0f2dc"/><path d="M.1,24.909,42.958,0l.116,53.271L0,78.14Z" transform="translate(263.414 174.42) rotate(120)" fill="#1f624a"/><path d="M.1,24.909,42.958,0l.116,53.271L0,78.14Z" transform="translate(89.208 65.862) rotate(120)" fill="#1f624a"/><path d="M-71.7-19.983l46.732-26.9L21.355-20.23-25.266,6.894Z" transform="translate(267.15 155.442)" fill="#23c983"/><path d="M-71.7-19.983l46.732-26.9L21.355-20.23-25.266,6.894Z" transform="translate(92.943 46.883)" fill="#23c983"/><path d="M0-27.135,85.816-77.06V14.469L0,63.725Z" transform="translate(131.297 166.591)" fill="#b0f2dc"/><path d="M.191,45.9,79.153,0l.214,98.157L0,143.98Z" transform="translate(170.875 161.768) rotate(120)" fill="#1f624a"/><path d="M-71.7,2.682,14.409-46.883,99.762,2.227l-85.9,49.979Z" transform="translate(117.345 87.296)" fill="#23c983"/><path d="M-71.7-19.983l46.732-26.9L21.355-20.23-25.266,6.894Z" transform="translate(99.444 168.721)" fill="#23c983"/><path d="M0-49.965l46.574-27.1v49.674L0-.654Z" transform="translate(74.229 225.555)" fill="#b0f2dc"/><path d="M.1,24.909,42.958,0l.116,53.271L0,78.14Z" transform="translate(95.709 187.7) rotate(120)" fill="#1f624a"/></g></g></svg>