<svg xmlns="http://www.w3.org/2000/svg" xmlns:xlink="http://www.w3.org/1999/xlink" width="89.623" height="90.382" viewBox="0 0 89.623 90.382"><defs><clipPath id="a"><ellipse cx="44.811" cy="45.191" rx="44.811" ry="45.191" transform="translate(1286.688 2369.809)" fill="#161616" stroke="#161616" stroke-width="4"/></clipPath></defs><g transform="translate(-1286.688 -2369.809)" clip-path="url(#a)"><g transform="translate(1282 2371)"><g transform="translate(0 11)" fill="#fff" stroke="#161616" stroke-width="1"><rect width="11" height="11" stroke="none"/><rect x="0.5" y="0.5" width="10" height="10" fill="none"/></g><rect width="11" height="11" transform="translate(33 22)" fill="#fff"/><rect width="11" height="11" transform="translate(11 22)" fill="#fff"/><g transform="translate(11)" fill="#fff" stroke="#161616" stroke-width="1"><rect width="11" height="11" stroke="none"/><rect x="0.5" y="0.5" width="10" height="10" fill="none"/></g><rect width="11" height="11" transform="translate(11 66)" fill="#fff"/><g transform="translate(0 77)" fill="#fff" stroke="#161616" stroke-width="1"><rect width="11" height="11" stroke="none"/><rect x="0.5" y="0.5" width="10" height="10" fill="none"/></g><rect width="11" height="11" transform="translate(22 55)" fill="#fff"/><g transform="translate(0 55)" fill="#fff" stroke="#161616" stroke-width="1"><rect width="11" height="11" stroke="none"/><rect x="0.5" y="0.5" width="10" height="10" fill="none"/></g><rect width="11" height="11" transform="translate(44 33)" fill="#fff"/><rect width="11" height="11" transform="translate(66 33)" fill="#fff"/><rect width="11" height="11" transform="translate(77 22)" fill="#fff"/><g transform="translate(88 33)" fill="#fff" stroke="#161616" stroke-width="1"><rect width="11" height="11" stroke="none"/><rect x="0.5" y="0.5" width="10" height="10" fill="none"/></g><rect width="11" height="11" transform="translate(22 11)" fill="#fff"/><rect width="11" height="11" transform="translate(22 33)" fill="#fff"/><rect width="11" height="11" transform="translate(0 33)" fill="#fff"/><rect width="11" height="11" transform="translate(33 44)" fill="#fff"/><rect width="11" height="11" transform="translate(33)" fill="#fff"/><rect width="11" height="11" transform="translate(33 66)" fill="#fff"/><rect width="11" height="11" transform="translate(22 77)" fill="#fff"/><rect width="11" height="11" transform="translate(44 55)" fill="#fff"/><rect width="11" height="11" transform="translate(44 11)" fill="#fff"/><rect width="11" height="11" transform="translate(66 11)" fill="#fff"/><g transform="translate(77)" fill="#fff" stroke="#161616" stroke-width="1"><rect width="11" height="11" stroke="none"/><rect x="0.5" y="0.5" width="10" height="10" fill="none"/></g><rect width="11" height="11" transform="translate(77 66)" fill="#fff"/><rect width="11" height="11" transform="translate(66 77)" fill="#fff"/><g transform="translate(88 77)" fill="#fff" stroke="#161616" stroke-width="1"><rect width="11" height="11" stroke="none"/><rect x="0.5" y="0.5" width="10" height="10" fill="none"/></g><g transform="translate(88 11)" fill="#fff" stroke="#161616" stroke-width="1"><rect width="11" height="11" stroke="none"/><rect x="0.5" y="0.5" width="10" height="10" fill="none"/></g><rect width="11" height="11" transform="translate(55)" fill="#fff"/><rect width="11" height="11" transform="translate(55 66)" fill="#fff"/><rect width="11" height="11" transform="translate(44 77)" fill="#fff"/><rect width="11" height="11" transform="translate(66 55)" fill="#fff"/><rect width="11" height="11" transform="translate(77 44)" fill="#fff"/><g transform="translate(88 55)" fill="#fff" stroke="#161616" stroke-width="1"><rect width="11" height="11" stroke="none"/><rect x="0.5" y="0.5" width="10" height="10" fill="none"/></g><rect width="11" height="11" transform="translate(55 22)" fill="#fff"/><rect width="11" height="11" transform="translate(55 44)" fill="#fff"/><rect width="11" height="11" transform="translate(11 44)" fill="#fff"/></g></g><g fill="none" stroke="#272727" stroke-width="4"><ellipse cx="44.811" cy="45.191" rx="44.811" ry="45.191" stroke="none"/><ellipse cx="44.811" cy="45.191" rx="42.811" ry="43.191" fill="none"/></g></svg>