<svg xmlns="http://www.w3.org/2000/svg" width="89.844" height="90.605" viewBox="0 0 89.844 90.605"><g transform="translate(-452.411 -382.736)"><g transform="translate(452.411 382.736)" fill="#161616" stroke="#ff008c" stroke-width="4"><ellipse cx="44.922" cy="45.303" rx="44.922" ry="45.303" stroke="none"/><ellipse cx="44.922" cy="45.303" rx="42.922" ry="43.303" fill="none"/></g><g transform="translate(473.706 404.557)"><path d="M43.675,3.921a.43.43,0,0,0-.321-.331c-5.3-1.3-17.539,3.321-24.17,9.952A28.666,28.666,0,0,0,15.96,17.35a11.994,11.994,0,0,0-5.833.73c-4.918,2.162-6.349,7.81-6.749,10.235a.872.872,0,0,0,.954,1.013l7.9-.867a17.557,17.557,0,0,0,.107,1.782,1.768,1.768,0,0,0,.516,1.081l3.058,3.058a1.768,1.768,0,0,0,1.081.516,17.524,17.524,0,0,0,1.772.107L17.9,42.894a.872.872,0,0,0,1.013.954c2.425-.39,8.083-1.821,10.235-6.739a12.048,12.048,0,0,0,.74-5.814A28.711,28.711,0,0,0,33.7,28.072C40.364,21.45,44.951,9.482,43.675,3.921ZM29.784,17.281a4.159,4.159,0,1,1,5.882,0A4.155,4.155,0,0,1,29.784,17.281Z" fill="#fff"/><path d="M14.765,28.068h0a3.694,3.694,0,0,1-1.928.779,2.621,2.621,0,0,1-3.019-3.019,3.622,3.622,0,0,1,.769-1.918l.01-.01a.326.326,0,0,0-.273-.555,4.477,4.477,0,0,0-2.62,1.276c-1.753,1.753-1.918,8.258-1.918,8.258s6.515-.166,8.268-1.918a4.447,4.447,0,0,0,1.276-2.62A.333.333,0,0,0,14.765,28.068Z" transform="translate(0.932 7.688)" fill="#fff"/></g></g></svg>