<svg xmlns="http://www.w3.org/2000/svg" width="77.595" height="12.757" viewBox="0 0 77.595 12.757"><path d="M237.243,188.258l6.385-6.379,6.38,6.381-6.38,6.377Zm2.349-1.9a2.59,2.59,0,0,0,0,3.81l1.38,1.381.006-.006a4.179,4.179,0,0,1,2.518-1.3,2.592,2.592,0,0,0,0,3.829l.127.133.127-.133a2.592,2.592,0,0,0,0-3.829,4.186,4.186,0,0,1,2.525,1.31l1.413-1.413,0,0a2.574,2.574,0,0,0,0-3.745l-1.406-1.407-.006.006a4.188,4.188,0,0,1-2.525,1.31,2.592,2.592,0,0,0,0-3.829l-.127-.146-.127.146a2.592,2.592,0,0,0,0,3.829,4.194,4.194,0,0,1-2.531-1.316Zm53.155,3.172-.214-.385c1.77-.214,2.684-1.113,2.684-2.641,0-1.784-1.171-2.655-3.612-2.641l-4.026.029-1.2-.029.157,5.7-.157,3.569.614-.029.614.029-.143-3.926h3.983l.5.8,1.685,3.169,1.413-.043Zm11.335-.857-2.27-4.811-.7.029-.728-.029-2.113,4.511-2.355,4.754h1.37l1.042-2.384h5.753l1.071,2.384h1.171Zm-34.876,4.454-.114-3.569v-.029l1.556-2.227,2.812-3.455H271.7l-1.813,2.741-1.3,1.727-1.3-1.7-1.856-2.77h-1.6l2.7,3.412,1.528,2.27v.029l-.086,3.569.614-.029Zm5.525,0,1.213-.029,3.069.029c3.141,0,5.382-1.385,5.382-4.754,0-3.069-2.141-4.511-5.025-4.511l-3.426.029-1.213-.029.157,5.7Zm-20.686,0-.157-3.569.014-.657h7.523l.014.657-.157,3.569.614-.029.614.029-.157-3.569.157-5.7-.614.029-.614-.029.1,3.8h-7.438l.1-3.8-.614.029-.614-.029.157,5.7-.157,3.569.614-.029Zm25.325-8.052c2.627,0,4.14,1.156,4.14,3.269,0,2.327-1.527,3.555-4.326,3.555H275.9l-.1-2.341.128-4.483Zm30.747,2.848V184.55h-.337v-.337h-.337v-.337h-2.7V188.6h2.7v-.337h.337v-.337Zm1.685-2.36h.337v.337h.337v.674h-.337v.337H311.8v.674h-.337V188.6h.674v-.674h.337v-.674h.337v-.337h.674v.337h.337v.674h.337v.674h.674v-1.011H314.5v-.674h-.337v-.337h-.337V185.9h.337v-.337h.337v-.674h.337v-1.011h-.674v.674h-.337v.674h-.337v.337h-.674v-.337h-.337v-.674h-.337v-.674h-.674v1.011h.337Zm-71.941.782a4.955,4.955,0,0,1,3.067,1.915,4.955,4.955,0,0,1-3.067,1.915,2.594,2.594,0,0,0,0-3.829Zm7.536,0a2.594,2.594,0,0,0,0,3.829,4.954,4.954,0,0,1-3.067-1.915A4.955,4.955,0,0,1,247.4,186.344Zm61.709-1.456h.337v2.7h-.337v.337h-1.685V184.55h1.685Zm-5.567,4.654h-4.682l.314-.714,1.941-3.94,2.17,4.1.257.557Zm-9.179-3.026a1.2,1.2,0,0,1-.657,1.171,5.581,5.581,0,0,1-2.413.357h-3.8l.086-2.984h3.712a6.225,6.225,0,0,1,2.455.314A1.172,1.172,0,0,1,294.36,186.515Z" transform="translate(-237.243 -181.879)" fill="#fff" fill-rule="evenodd"/></svg>