<svg xmlns="http://www.w3.org/2000/svg" width="404" height="562.562" viewBox="0 0 404 562.562"><g transform="translate(-292.895 -2360.094)"><rect width="404" height="562.562" transform="translate(292.895 2360.094)" fill="#ff008c"/><circle cx="101.375" cy="101.375" r="101.375" transform="translate(393.52 2522.336)" fill="#ddd"/><path d="M8.958,34.9l-75.781,75.547L-82.1,94.706,2.985,10.079h-10V-.053L24.346-26.069-1.4-52.086l-68.9-70.963,14.347-13.422L33.841-47.147l-9.077,9.56,5.881,7.136,19.033-15.61L67.23-31.751,87.88-53.044l73.626-73.475,14.953,14.063L85.415-21.688,75.282-31.751l-3.971,3.628L105.27-.053V10.794H92.411v4.54H87.294l78.935,88.675-15.215,15.339-57.591-56.6L110.9,197.914h11.107v7.636H-22.624v-7.636h11.339Z" transform="translate(447.713 2617.674)"/><g transform="translate(477.609 2605.682)"><ellipse cx="3.824" cy="6.215" rx="3.824" ry="6.215" transform="matrix(0.996, 0.087, -0.087, 0.996, 26.952, 12.821)" fill="#fff"/><ellipse cx="3.824" cy="6.215" rx="3.824" ry="6.215" transform="matrix(0.438, 0.899, -0.899, 0.438, 26.162, 23.382)" fill="#fff"/><ellipse cx="3.824" cy="6.215" rx="3.824" ry="6.215" transform="matrix(-0.602, 0.799, -0.799, -0.602, 31.43, 7.602)" fill="#fff"/><ellipse cx="3.824" cy="6.215" rx="3.824" ry="6.215" transform="translate(7.297 12.458) rotate(-117)" fill="#fff"/><ellipse cx="3.824" cy="6.215" rx="3.824" ry="6.215" transform="translate(7.649 23.28) rotate(-180)" fill="#fff"/><ellipse cx="3.824" cy="6.215" rx="3.824" ry="6.215" transform="matrix(-0.629, 0.777, -0.777, -0.629, 16.479, 30.114)" fill="#fff"/></g><path d="M-6.584-1.955A54.609,54.609,0,0,1-.1-6.494c3.539-2.08,3.811-2.174,7.134-3.849s2.862-.446,6.158-2.851,5.425-5.039,7.294-5.727,3.776-.978,6.8.572A20.771,20.771,0,0,1,32.846-13.7s-3.417-.82-7.037,3.746S23.288,1.245,16.506,5.1C13.937,6.554,8.321,8.741,6.467,10.723a4.989,4.989,0,0,0,0,6.881c2.011,2.126,5.946,3.393,6.2,4.437.171.693-2.463.442-4.732.448a11.319,11.319,0,0,0-3.2.7,1.9,1.9,0,0,0,1.023-3.059c-.587-.981-2.391-1.116-3.645-2.529A11.834,11.834,0,0,1,.171,13.59a7.019,7.019,0,0,1-4.476,0s1.414-2.484-5.755-.541-20.707,6.542-20.707,6.542l-.984-.836-4.534,1.377,3.48-2.994-3.48.465s4.464-2.745,9.615-5.295c3.65-1.807,7.922-3.33,9.753-4.6,1.206-.834,1.507-.432,1-.831-.344-.465-3.907-.665-3.907-.665Z" transform="translate(489.207 2499.145)"/></g></svg>