<svg xmlns="http://www.w3.org/2000/svg" width="108.055" height="289.937" viewBox="0 0 108.055 289.937"><g transform="translate(-288.973 -267)"><g transform="translate(288.973 429.781)"><circle cx="7.64" cy="7.64" r="7.64" transform="translate(55.665 111.875)" fill="#ddd"/><circle cx="7.64" cy="7.64" r="7.64" transform="translate(55.665 93.32)" fill="#ddd"/><circle cx="7.64" cy="7.64" r="7.64" transform="translate(55.665 74.765)" fill="#ddd"/><circle cx="7.64" cy="7.64" r="7.64" transform="translate(55.665 56.21)" fill="#ddd"/><circle cx="7.64" cy="7.64" r="7.64" transform="translate(55.665 37.655)" fill="#ddd"/><circle cx="7.64" cy="7.64" r="7.64" transform="translate(55.665 19.101)" fill="#ddd"/><circle cx="7.64" cy="7.64" r="7.64" transform="translate(55.665 0.546)" fill="#ddd"/><circle cx="7.64" cy="7.64" r="7.64" transform="translate(74.22)" fill="#ddd"/><circle cx="7.64" cy="7.64" r="7.64" transform="translate(92.774 0.545)" fill="#ddd"/><circle cx="7.64" cy="7.64" r="7.64" transform="translate(37.11)" fill="#ddd"/><circle cx="7.64" cy="7.64" r="7.64" transform="translate(18.555)" fill="#ddd"/><circle cx="7.64" cy="7.64" r="7.64" fill="#ddd"/></g><text transform="translate(297 408)" fill="#ddd" font-size="150" font-family="Raleway"><tspan x="0" y="0">S</tspan></text></g></svg>