<svg xmlns="http://www.w3.org/2000/svg" width="126.699" height="263.381" viewBox="0 0 126.699 263.381">
  <g id="_5555" data-name="5555" transform="translate(-288.973 -426.1)">
    <g id="b" transform="translate(288.973 429.781)">
      <circle id="c" cx="7.6" cy="7.6" r="7.6" transform="translate(55.7 244.5)" fill="#ddd"/>
      <circle id="d" cx="7.6" cy="7.6" r="7.6" transform="translate(55.7 226)" fill="#ddd"/>
      <circle id="e" cx="7.6" cy="7.6" r="7.6" transform="translate(55.7 207.4)" fill="#ddd"/>
      <circle id="f" cx="7.6" cy="7.6" r="7.6" transform="translate(55.7 188.9)" fill="#ddd"/>
      <circle id="g" cx="7.6" cy="7.6" r="7.6" transform="translate(55.7 170.3)" fill="#ddd"/>
      <circle id="h" cx="7.6" cy="7.6" r="7.6" transform="translate(55.7 151.7)" fill="#ddd"/>
      <circle id="i" cx="7.6" cy="7.6" r="7.6" transform="translate(55.7 133.2)" fill="#ddd"/>
      <circle id="j" cx="7.6" cy="7.6" r="7.6" transform="translate(74.3 132.6)" fill="#ddd"/>
      <circle id="k" cx="7.6" cy="7.6" r="7.6" transform="translate(92.8 133.2)" fill="#ddd"/>
      <circle id="l" cx="7.6" cy="7.6" r="7.6" transform="translate(111.5 133.2)" fill="#ddd"/>
      <circle id="m" cx="7.6" cy="7.6" r="7.6" transform="translate(37.2 132.6)" fill="#ddd"/>
      <circle id="n" cx="7.6" cy="7.6" r="7.6" transform="translate(18.6 132.6)" fill="#ddd"/>
      <circle id="o" cx="7.6" cy="7.6" r="7.6" transform="translate(0 132.6)" fill="#ddd"/>
    </g>
    <g id="p" transform="translate(288.972 426)">
      <g id="Group_57" data-name="Group 57">
        <path id="Path_234" data-name="Path 234" d="M93.8,20.7a30.84,30.84,0,0,0-12.1-8.2,44.017,44.017,0,0,0-17-3.2c-9.5,0-16.4,1.8-20.7,5.3-4.3,3.6-6.5,8.4-6.5,14.5s.6,5.8,1.7,7.9a13.766,13.766,0,0,0,5.4,5.3,38.824,38.824,0,0,0,9.3,3.9c3.8,1.1,8.2,2.2,13.3,3.3a140.137,140.137,0,0,1,15.3,4A42.474,42.474,0,0,1,94,59.1a24.108,24.108,0,0,1,7.4,8.2c1.7,3.2,2.5,7.3,2.5,12.1A27.455,27.455,0,0,1,101,92.2a26.272,26.272,0,0,1-7.9,9,34.754,34.754,0,0,1-12.2,5.3,67,67,0,0,1-15.3,1.7c-16.7,0-31-5.1-42.8-15.5l5.1-8.5A45.737,45.737,0,0,0,43.7,94.6a55.691,55.691,0,0,0,22,4.3c8.1,0,15.2-1.5,20-4.6,4.8-3,7.2-7.7,7.2-13.9s-.7-6.1-2-8.3a18.2,18.2,0,0,0-6.1-5.9,45.721,45.721,0,0,0-10.1-4.3c-4.1-1.2-8.7-2.4-14-3.6-5.6-1.3-10.5-2.6-14.7-4a38.8,38.8,0,0,1-10.6-5.2A19.369,19.369,0,0,1,29,41.5a23.8,23.8,0,0,1-2.2-10.9,30.846,30.846,0,0,1,2.8-13.1,25.893,25.893,0,0,1,7.8-9.6,36.233,36.233,0,0,1,12-5.8A53.19,53.19,0,0,1,64.8.1,58.472,58.472,0,0,1,83.6,3.3a52.9,52.9,0,0,1,15.1,9.1l-5,8.4Z" fill="#ddd"/>
      </g>
    </g>
  </g>
</svg>
