<svg xmlns="http://www.w3.org/2000/svg" width="464" height="546" viewBox="0 0 464 546"><g transform="translate(-1537 -237)"><text transform="translate(1537 637)" fill="#ddd" font-size="400" font-family="AvenirNext-Regular, Avenir Next"><tspan x="0" y="0">S</tspan></text><g transform="translate(1769 350.605)"><circle cx="14" cy="14" r="14" transform="translate(102 273)" fill="#ddd"/><circle cx="14" cy="14" r="14" transform="translate(102 239)" fill="#ddd"/><circle cx="14" cy="14" r="14" transform="translate(102 205)" fill="#ddd"/><circle cx="14" cy="14" r="14" transform="translate(102 171)" fill="#ddd"/><circle cx="14" cy="14" r="14" transform="translate(102 137)" fill="#ddd"/><circle cx="14" cy="14" r="14" transform="translate(102 103)" fill="#ddd"/><circle cx="14" cy="14" r="14" transform="translate(102 69)" fill="#ddd"/><circle cx="14" cy="14" r="14" transform="translate(102 35)" fill="#ddd"/><circle cx="14" cy="14" r="14" transform="translate(102 1)" fill="#ddd"/><circle cx="14" cy="14" r="14" transform="translate(136)" fill="#ddd"/><circle cx="14" cy="14" r="14" transform="translate(68)" fill="#ddd"/><circle cx="14" cy="14" r="14" transform="translate(204)" fill="#ddd"/><circle cx="14" cy="14" r="14" transform="translate(34)" fill="#ddd"/><circle cx="14" cy="14" r="14" transform="translate(170)" fill="#ddd"/><circle cx="14" cy="14" r="14" fill="#ddd"/></g></g></svg>