<svg xmlns="http://www.w3.org/2000/svg" width="298.95" height="82.458" viewBox="0 0 298.95 82.458"><g transform="translate(216.753)"><circle cx="40.935" cy="40.935" r="40.935" transform="translate(0.196 0.261)"/><path d="M368.7,111.471a40.748,40.748,0,0,0,17.171,3.721h0a41.767,41.767,0,0,0,17.171-3.721L385.871,94.3,368.7,111.471Z" transform="translate(-344.74 -32.734)" fill="#ddd"/><path d="M402.919,3.656A40.739,40.739,0,0,0,386.009,0h0A40.739,40.739,0,0,0,369.1,3.656l16.909,16.909L402.919,3.656Z" transform="translate(-344.878)" fill="#ddd"/><path d="M443.24,71.18A40.739,40.739,0,0,0,446.9,54.271h0A41.767,41.767,0,0,0,443.175,37.1L426.2,54.075,443.305,71.18Z" transform="translate(-364.699 -12.878)" fill="#ddd"/><path d="M332,54.271a40.739,40.739,0,0,0,3.656,16.909l17.105-17.105L335.787,37.1a40.748,40.748,0,0,0-3.721,17.171H332Z" transform="translate(-332 -12.878)" fill="#ddd"/></g><g transform="translate(108.377)"><circle cx="40.935" cy="40.935" r="40.935" transform="translate(0.196 0.261)"/><path d="M202.7,111.471a40.748,40.748,0,0,0,17.171,3.721h0a41.767,41.767,0,0,0,17.171-3.721L219.871,94.3,202.7,111.471Z" transform="translate(-178.74 -32.734)" fill="#ddd"/><path d="M236.919,3.656A40.739,40.739,0,0,0,220.009,0h0A40.739,40.739,0,0,0,203.1,3.656l16.909,16.909L236.919,3.656Z" transform="translate(-178.878)" fill="#ddd"/><path d="M277.24,71.18A40.739,40.739,0,0,0,280.9,54.271h0A41.767,41.767,0,0,0,277.175,37.1L260.2,54.075,277.305,71.18Z" transform="translate(-198.699 -12.878)" fill="#ddd"/><path d="M166,54.271a40.739,40.739,0,0,0,3.656,16.909l17.105-17.105L169.787,37.1a40.748,40.748,0,0,0-3.721,17.171H166Z" transform="translate(-166 -12.878)" fill="#ddd"/></g><circle cx="40.935" cy="40.935" r="40.935" transform="translate(0.131 0.261)"/><path d="M36.7,111.471a40.748,40.748,0,0,0,17.171,3.721h0a41.767,41.767,0,0,0,17.171-3.721L53.871,94.3,36.7,111.471Z" transform="translate(-12.74 -32.734)" fill="#d9d9d9"/><path d="M70.919,3.656A40.739,40.739,0,0,0,54.009,0h0A40.739,40.739,0,0,0,37.1,3.656L54.009,20.565Z" transform="translate(-12.878)" fill="#d9d9d9"/><path d="M111.24,71.18A40.739,40.739,0,0,0,114.9,54.271h0A41.767,41.767,0,0,0,111.175,37.1L94.2,54.075,111.305,71.18Z" transform="translate(-32.699 -12.878)" fill="#d9d9d9"/><path d="M0,54.271A40.739,40.739,0,0,0,3.656,71.18L20.761,54.075,3.721,37.1A41.767,41.767,0,0,0,0,54.271Z" transform="translate(0 -12.878)" fill="#d9d9d9"/></svg>