<svg id="t" xmlns="http://www.w3.org/2000/svg" width="176.08" height="176.423" viewBox="0 0 176.08 176.423">
  <g id="Group_213" data-name="Group 213" transform="translate(102.152 148.344) rotate(90)">
    <path id="Path_2251" data-name="Path 2251" d="M.6,0V27.947H14.64A14.019,14.019,0,0,1,.6,14.04a14.04,14.04,0,1,1,28.079,0,13.963,13.963,0,0,1-14.04,14.04h14.04V0Z" transform="translate(-0.6)" fill="#fff"/>
    <path id="Path_2252" data-name="Path 2252" d="M13.666,3A10.066,10.066,0,1,0,23.732,13.066,10.062,10.062,0,0,0,13.666,3Z" transform="translate(0.374 0.974)" fill="#fff"/>
  </g>
  <g id="Group_214" data-name="Group 214" transform="translate(102.08) rotate(90)">
    <path id="Path_2261" data-name="Path 2261" d="M56.6,0V14.04a14.04,14.04,0,1,1,14.04,14.04A14.047,14.047,0,0,1,56.6,14.04v14.04H84.547V0Z" transform="translate(-56.6)" fill="#fff"/>
    <path id="Path_2262" data-name="Path 2262" d="M69.666,23.132A10.066,10.066,0,1,0,59.6,13.066,10.062,10.062,0,0,0,69.666,23.132Z" transform="translate(-55.626 0.974)" fill="#fff"/>
  </g>
  <g id="Group_218" data-name="Group 218" transform="translate(176.08) rotate(90)">
    <path id="Path_2261-2" data-name="Path 2261" d="M56.6,0V14.04a14.04,14.04,0,1,1,14.04,14.04A14.047,14.047,0,0,1,56.6,14.04v14.04H84.547V0Z" transform="translate(-56.6)" fill="#fff"/>
    <path id="Path_2262-2" data-name="Path 2262" d="M69.666,23.132A10.066,10.066,0,1,0,59.6,13.066,10.062,10.062,0,0,0,69.666,23.132Z" transform="translate(-55.626 0.974)" fill="#fff"/>
  </g>
  <g id="Group_216" data-name="Group 216" transform="translate(139.08) rotate(90)">
    <path id="Path_2261-3" data-name="Path 2261" d="M56.6,0V14.04a14.04,14.04,0,1,1,14.04,14.04A14.047,14.047,0,0,1,56.6,14.04v14.04H84.547V0Z" transform="translate(-56.6)" fill="#fff"/>
    <path id="Path_2262-3" data-name="Path 2262" d="M69.666,23.132A10.066,10.066,0,1,0,59.6,13.066,10.062,10.062,0,0,0,69.666,23.132Z" transform="translate(-55.626 0.974)" fill="#fff"/>
  </g>
  <g id="Group_219" data-name="Group 219" transform="translate(65.08) rotate(90)">
    <path id="Path_2261-4" data-name="Path 2261" d="M56.6,0V14.04a14.04,14.04,0,1,1,14.04,14.04A14.047,14.047,0,0,1,56.6,14.04v14.04H84.547V0Z" transform="translate(-56.6)" fill="#fff"/>
    <path id="Path_2262-4" data-name="Path 2262" d="M69.666,23.132A10.066,10.066,0,1,0,59.6,13.066,10.062,10.062,0,0,0,69.666,23.132Z" transform="translate(-55.626 0.974)" fill="#fff"/>
  </g>
  <g id="Group_220" data-name="Group 220" transform="translate(28.08) rotate(90)">
    <path id="Path_2261-5" data-name="Path 2261" d="M56.6,0V14.04a14.04,14.04,0,1,1,14.04,14.04A14.047,14.047,0,0,1,56.6,14.04v14.04H84.547V0Z" transform="translate(-56.6)" fill="#fff"/>
    <path id="Path_2262-5" data-name="Path 2262" d="M69.666,23.132A10.066,10.066,0,1,0,59.6,13.066,10.062,10.062,0,0,0,69.666,23.132Z" transform="translate(-55.626 0.974)" fill="#fff"/>
  </g>
  <g id="Group_215" data-name="Group 215" transform="translate(102.08 37.086) rotate(90)">
    <path id="Path_2275" data-name="Path 2275" d="M112.6,14.04a14.04,14.04,0,1,1,14.04,14.04A14.047,14.047,0,0,1,112.6,14.04v14.04h27.947V0H112.6V14.04Z" transform="translate(-75.514)" fill="#fff"/>
    <path id="Path_2276" data-name="Path 2276" d="M125.666,23.132A10.066,10.066,0,1,0,115.6,13.066a10.062,10.062,0,0,0,10.066,10.066Z" transform="translate(-74.54 0.974)" fill="#fff"/>
    <path id="Path_2277" data-name="Path 2277" d="M84.6,14.04a14.04,14.04,0,1,1,14.04,14.04A14.047,14.047,0,0,1,84.6,14.04v14.04h27.947V0H84.6Z" transform="translate(-84.6)" fill="#fff"/>
    <path id="Path_2278" data-name="Path 2278" d="M97.666,23.132A10.066,10.066,0,1,0,87.6,13.066,10.062,10.062,0,0,0,97.666,23.132Z" transform="translate(-83.626 0.974)" fill="#fff"/>
    <path id="Path_2279" data-name="Path 2279" d="M140.6,0V27.947h14.04A13.974,13.974,0,1,1,154.64,0a14.04,14.04,0,1,1,0,28.079h14.04V0H140.6Z" transform="translate(-66.428)" fill="#fff"/>
    <path id="Path_2280" data-name="Path 2280" d="M153.666,3a10.066,10.066,0,1,0,10.066,10.066A10.062,10.062,0,0,0,153.666,3Z" transform="translate(-65.454 0.974)" fill="#fff"/>
  </g>
</svg>
