<svg xmlns="http://www.w3.org/2000/svg" width="934" height="400" viewBox="0 0 934 400"><g transform="translate(-183 -1576.184)"><text transform="translate(183 1869.184)" fill="#ddd" font-size="293" font-family="AvenirNext-Regular, Avenir Next"><tspan x="0" y="0" xml:space="preserve">W    RK</tspan></text><g transform="translate(444.978 1670.438)"><g transform="translate(60.923)"><path d="M-71.7-.195,12.988-46.447,102.829-.655,15.387,49.951Z" transform="translate(111.335 46.447)" fill="#24cc85"/><path d="M0-26.508,87.351-77.06V15.619L0,65.493Z" transform="translate(126.825 122.857)" fill="#b0f2dc"/><path d="M-.026,46.428,79.928-.044l.444,99.782L.01,146.135Z" transform="translate(166.742 119.121) rotate(120)" fill="#1f624a"/></g><g transform="translate(0 82.229)"><path d="M-71.7-15.384l57-31.063L45.774-15.693-13.082,18.294Z" transform="translate(98.317 46.447)" fill="#24cc85"/><path d="M0-43.109,58.8-77.06v62.243L0,18.679Z" transform="translate(85.305 107.818)" fill="#b0f2dc"/><path d="M.09,31.309,53.787.1l.362,67.125L.178,98.383Z" transform="translate(112.277 79.973) rotate(120)" fill="#1f624a"/></g></g></g></svg>