<svg xmlns="http://www.w3.org/2000/svg" width="252.723" height="69.643" viewBox="0 0 252.723 69.643"><g transform="translate(252.723) rotate(90)"><path d="M0,0V34.759A34.822,34.822,0,1,1,34.821,69.518,34.808,34.808,0,0,1,0,34.759V69.518H69.314V0Z" fill="#ddd"/><path d="M24.966,49.843A24.921,24.921,0,1,0,0,24.921,24.933,24.933,0,0,0,24.966,49.843Z" transform="translate(9.855 9.837)" fill="#ddd"/></g><g transform="translate(161.12) rotate(90)"><path d="M0,0V34.759A34.822,34.822,0,1,1,34.821,69.518,34.808,34.808,0,0,1,0,34.759V69.518H69.314V0Z" fill="#ddd"/><path d="M24.966,49.843A24.921,24.921,0,1,0,0,24.921,24.933,24.933,0,0,0,24.966,49.843Z" transform="translate(9.855 9.837)" fill="#ddd"/></g><g transform="translate(69.518) rotate(90)"><path d="M0,0V34.759A34.822,34.822,0,1,1,34.821,69.518,34.808,34.808,0,0,1,0,34.759V69.518H69.314V0Z" fill="#ddd"/><path d="M24.966,49.843A24.921,24.921,0,1,0,0,24.921,24.933,24.933,0,0,0,24.966,49.843Z" transform="translate(9.855 9.837)" fill="#ddd"/></g></svg>