<?xml version="1.0" encoding="UTF-8"?><svg id="a" xmlns="http://www.w3.org/2000/svg" viewBox="0 0 108.1 256.2"><defs><style>.q{fill:#ddd;}.r{isolation:isolate;}</style></defs><g id="b" transform="translate(-288.973 -267)"><g id="c" transform="translate(288.973 429.781)"><circle id="d" class="q" cx="63.3" cy="248.5" r="7.6"/><circle id="e" class="q" cx="63.3" cy="230" r="7.6"/><circle id="f" class="q" cx="63.3" cy="211.4" r="7.6"/><circle id="g" class="q" cx="63.3" cy="192.9" r="7.6"/><circle id="h" class="q" cx="63.3" cy="174.3" r="7.6"/><circle id="i" class="q" cx="63.3" cy="155.8" r="7.6"/><circle id="j" class="q" cx="63.3" cy="137.2" r="7.6"/><circle id="k" class="q" cx="81.9" cy="136.7" r="7.6"/><circle id="l" class="q" cx="100.4" cy="137.2" r="7.6"/><circle id="m" class="q" cx="44.8" cy="136.7" r="7.6"/><circle id="n" class="q" cx="26.2" cy="136.7" r="7.6"/><circle id="o" class="q" cx="7.6" cy="136.7" r="7.6"/></g><g id="p" class="r" transform="translate(297 408)"><g class="r"><path class="q" d="M84.1,20.7c-3-3.4-7-6.2-12.1-8.2-5.1-2.1-10.7-3.2-17-3.2-9.5,0-16.4,1.8-20.7,5.3-4.3,3.6-6.5,8.4-6.5,14.5s.6,5.8,1.7,7.9c1.1,2.1,2.9,3.8,5.4,5.3,2.4,1.5,5.6,2.8,9.3,3.9,3.8,1.1,8.2,2.2,13.3,3.3,5.7,1.2,10.8,2.5,15.3,4,4.5,1.5,8.3,3.3,11.5,5.6,3.2,2.2,5.6,5,7.4,8.2,1.7,3.2,2.5,7.3,2.5,12.1s-1,9.2-2.9,12.8c-1.9,3.6-4.6,6.6-7.9,9-3.4,2.4-7.5,4.2-12.2,5.3-4.7,1.1-9.8,1.7-15.3,1.7-16.7,0-31-5.1-42.8-15.5l5.1-8.5c3.9,4.1,9.1,7.6,15.8,10.4,6.6,2.8,13.9,4.3,22,4.3s15.2-1.5,20-4.6c4.8-3,7.2-7.7,7.2-13.9s-.7-6.1-2-8.3c-1.3-2.2-3.4-4.2-6.1-5.9-2.7-1.6-6.1-3.1-10.1-4.3-4.1-1.2-8.7-2.4-14-3.6-5.6-1.3-10.5-2.6-14.7-4-4.2-1.4-7.7-3.1-10.6-5.2-2.9-2.1-5-4.6-6.4-7.6-1.5-2.9-2.2-6.6-2.2-10.9s.9-9.3,2.8-13.1c1.8-3.8,4.4-7,7.8-9.6,3.3-2.5,7.4-4.5,12-5.8,4.6-1.4,9.8-2,15.4-2s13.3,1.1,18.8,3.2c5.5,2.2,10.6,5.2,15.1,9.1l-5,8.4Z"/></g></g></g></svg>