<svg xmlns="http://www.w3.org/2000/svg" xmlns:xlink="http://www.w3.org/1999/xlink" width="218.017" height="468.836" viewBox="0 0 218.017 468.836"><defs><linearGradient id="a" x1="0.496" y1="1" x2="0.496" gradientUnits="objectBoundingBox"><stop offset="0"/><stop offset="0.2" stop-color="#ff008c"/></linearGradient></defs><g transform="translate(0 0)"><g transform="translate(63.765 56.46)"><g transform="translate(0 120.412)"><path d="M214.568,441.7a98.126,98.126,0,0,1-10.5-29.036A86.236,86.236,0,0,1,202.4,387.4c.432-4.757,1.3-9.02,2.1-19.337.247-3.336,1.236-6.734.432-11.367-.865-5.066-2.965-8.155-2.533-8.4.556-.309,5.313,5.189,8.834,12.6,3.645,7.66,3.089,12.417,5.5,21,3.892,14.271,6.24,16.371,7.969,23.538,2.039,8.216,2.656,20.449-4.2,37.438" transform="translate(-141 -309.99)" fill="#ff008c"/><path d="M215.3,441.2a101.182,101.182,0,0,1-10.873-31.878c-.865-5.56-2.1-13.1-.927-21.5.309-2.409.865-5.066,1.3-9.885.371-4.448.247-6.116.927-10.255a34.617,34.617,0,0,0,.556-4.016,25.024,25.024,0,0,0-.556-7.413c-.927-3.83-2.595-6.24-2.348-6.363s1.544,1.73,2.162,2.595a59.884,59.884,0,0,1,5.313,8.711,48.981,48.981,0,0,1,4.139,16.557c1.792,4.88,4.324,12.109,7.1,21.128,1.915,6.24,2.9,9.452,3.274,12.047,2.162,14.641-3.583,27.306-3.768,27.306a51.2,51.2,0,0,0,2.78-12.17s1.977-18.966-7.784-41.021a35.5,35.5,0,0,1-2.409-7.413c-.494-2.286-.371-2.842-.741-5.251a44.709,44.709,0,0,0-3.274-10.873c-1.792-4.139-4.2-7.908-4.51-7.784a14.322,14.322,0,0,0,.741,2.409c1.112,3.521.556,5.869,0,11.676s-.185,4.572-.741,10.255c-.556,5.5-.927,6.3-1.236,10.008a81.01,81.01,0,0,0-.124,11.491,105.753,105.753,0,0,0,3.151,20.943,96.389,96.389,0,0,0,7.661,20.572Z" transform="translate(-141.363 -310.605)" fill="#ddd"/><path d="M222.907,445.067c.432.062,2.533-5.745,2.533-13.035,0-4.386,0-11.182-4.2-16.8-2.9-3.892-5.128-3.707-6.3-7.166-1.236-3.521,1.544-5.251,1.236-11.367a56.408,56.408,0,0,0-1.112-6.24c-.68-3.212-2.1-10.317-2.409-10.255-.309,0,1.544,5.992.618,13.962-.556,4.757-1.544,5.807-2.533,10.935a49.679,49.679,0,0,0-.432,14.271c1.359,17.483,11.923,33.175,11.8,33.237s-6.672-12.912-7.969-23.538A18.166,18.166,0,0,1,215.8,419c.68-1.359,1.483-2.965,2.533-2.965,2.286,0,4.016,8.031,4.633,13.035,1.174,9.328-.432,15.939,0,16Z" transform="translate(-144.026 -322.19)" fill="#ddd"/><rect width="7.105" height="191.327" transform="translate(73.877)" fill="url(#a)"/><path d="M103.577,336.062a113.751,113.751,0,0,0,.432,22.3c.618,4.2,2.656,10.132,6.734,21.869,5,14.518,5.375,13.591,6.3,18.1,2.595,12.232-.618,14.889,2.533,23.538.988,2.78,4.324,7.043,10.935,15.568,10.317,13.282,11.553,13.9,17.236,21.87,4.263,6.054,4.016,6.363,9.7,14.271,4.572,6.487,6.24,8.278,9.7,13.468,4.942,7.413,7.475,11.058,8.4,13.9.618,1.792,1.236,4.2,1.668,21.437.247,8.4.124,10.935.432,10.935,1.05.062,4.016-27.738,4.448-32.125,1.05-10.132,1.792-18.533,2.224-24.279,0,0-5.066-9.2-6.734-12.17-4.324-7.908-5.313-10.193-11.8-22.734-10.193-19.769-10.441-19.213-13.9-26.935-3.645-8.155-3.521-9.081-7.6-17.669a170.6,170.6,0,0,0-10.07-19.337c-4.88-7.846-5.436-6.672-15.136-19.769,0,0-2.533-3.46-15.568-22.3Z" transform="translate(-103.216 -305.296)" fill="#ff008c"/><path d="M177.589,503.839c-.618.309-9.823-19.584-24.4-37.87-1.853-2.348-6.672-8.216-13.159-16.8-4.572-6.054-3.768-5.251-7.29-9.823-6.981-9.081-8.093-9.637-9.514-13.159-1.73-4.325-2.1-8.464-2.533-13.468-.432-4.942,0-6.054-.309-9.267-.556-6.734-3.089-10.255-6.178-16.8a119.591,119.591,0,0,1-8.711-30.58c-.865-6.363-1.3-14.024,0-14.271.8-.185,1.792,2.533,5.066,7.846,1.174,1.915,2.718,4.139,5.869,8.711,6.116,8.773,13.715,18.039,14.58,19.09,10.626,12.973,11.861,24.279,28.294,56.9,9.823,19.522,17.113,32.125,16.8,32.248-.247.124-9.452-13.159-18.225-31.692-8.4-17.73-13.1-33.237-23.29-48.5-3.274-4.88-5.622-8.155-5.622-8.155-5.931-8.216-8.711-10.935-14.271-19.089a72.728,72.728,0,0,1-5.622-9.267c-1.853-3.769-2.162-5.375-2.533-5.313-1.112.247-.8,16.742,5.622,32.8.68,1.73,2.162,5.313,3.645,8.711,4.7,10.811,6.24,13.221,6.734,18.225.371,3.768-.371,3.645,0,8.4a53.584,53.584,0,0,0,2.78,12.6c3.027,8.278,7.537,11.861,16.8,23.29,3.645,4.448,6.61,8.587,12.6,16.8,10.008,13.777,13.715,20.016,16.248,24.65,3.583,6.61,6.8,13.529,6.425,13.715Z" transform="translate(-103.773 -307.508)" fill="#ddd"/><path d="M182.835,513.745c-.68.309-5.684-23.476-24.65-45.716-5.56-6.487-11.058-11.429-18.225-22.426-8.278-12.726-9.823-19.893-10.379-22.982-1.668-9.576,1.3-10.935,0-19.645-2.471-16.557-15.321-26.812-14.889-27.182.371-.309,7.043,6.61,13.468,16.557,3.274,5.066,4.942,7.6,5.622,10.07,2.595,9.452-2.471,15.692,1.668,20.449,1.977,2.286,4.016,1.915,5.869,5.066a19.921,19.921,0,0,1,2.224,6.981c.741,4.386-.124,4.324.556,5.869.618,1.359,9.39,6.054,12.417,8.34,6.549,4.819,8.587,14.889,6.919,16.248-.062,0-.247.185-.494.185-1.174,0-1.3-3.768-3.46-8.34a14.715,14.715,0,0,0-2.595-4.2,19.723,19.723,0,0,0-5.313-3.521,1.671,1.671,0,0,0-.494-.185c-1.73-.8-3.521-1.174-3.645-.927-.185.432,4.757,2.348,8.958,6.178,3.336,2.965,3.583,6.24,5.313,11.491,2.409,7.166,4.386,8.525,9.267,17.669,8.093,15.259,12.294,29.777,11.8,30.024Z" transform="translate(-107.599 -320.502)" fill="#ddd"/><path d="M229.878,601.688v-.124c-3.892-21.561-6.425-40.65-7.166-47.816-.988-9.637.124-8.525,7.969-79.076a170.1,170.1,0,0,1,4.2-24.4,173.2,173.2,0,0,1,10.935-30.7c5.066-10.564,6.61-10.811,14.333-26.5,3.521-7.166,3.768-8.4,5.869-10.935,7.29-8.773,15.012-6.054,21.87-14.333,8.155-9.761,9.081-20.572,11.8-20.2,2.471.371,3.336,10.008,3.336,16,.062,11.429-2.595,17.792-4.2,26.07-2.9,14.827,1.792,14.394,0,31.136a116.211,116.211,0,0,1-8.4,31.569c-4.2,10.008-5.313,8.711-10.07,18.9-9.267,19.831-7.969,30.766-16.8,52.141-8.217,19.893-11,20.449-21,45.407-4.88,12.109-12.6,32.8-12.6,32.8Z" transform="translate(-148.773 -309.724)" fill="#ff008c"/><path d="M237.2,487.977a218.767,218.767,0,0,1,4.324-23.538c1.236-5.313,2.471-10.626,4.7-17.545,3.336-10.317,6.734-17.669,13.1-31.2,2.471-5.313,3.768-8.031,5.622-11.429,5.684-10.379,8.525-15.506,13.838-19.46,5.993-4.386,8.34-2.533,13.653-7.66a48.222,48.222,0,0,0,7.475-10.07c3.645-6.116,4.448-9.7,5.436-9.514,1.421.247,1.421,8.155.741,14.209-.556,4.88-1.236,6.61-3.336,16.248-1.483,6.8-2.224,10.193-2.409,12.17-1.112,10.317,1.792,11.553,1.3,21.684-.371,7.166-2.1,12.788-4.324,19.831a109.264,109.264,0,0,1-4.51,11.985,135.253,135.253,0,0,1-8.031,14.95c-8.34,14.765-8.958,29.53-8.772,29.53a76.978,76.978,0,0,1,9.514-29.159,132.388,132.388,0,0,0,8.4-15.136c.494-1.112,2.533-5.56,4.633-11.8,2.842-8.34,4.51-13.406,4.633-20.2,0-1.977-.185-4.633-.556-9.823-.556-7.352-.988-8.649-.865-12.047.124-3.274.618-4.448,2.224-11.491,1.977-8.525,2.965-12.788,3.336-16.68.865-8.031,0-17.051-1.668-17.236-2.409-.309-7.969,17.174-14.024,21.869s-7.846,2.162-14.024,7.29c-4.139,3.4-7.29,8.9-13.468,19.645-2.533,4.386-4.139,7.166-6.178,11.244a203.818,203.818,0,0,0-12.912,31.939c-6.981,22.858-7.908,41.515-7.846,41.515Z" transform="translate(-154.425 -312.403)" fill="#ddd"/><path d="M233.521,607.26c-1.112,0-3.892-23.908-2.78-52.141,0,0,1.915-49.979,19.645-99.834,8.34-23.414,10.193-17.854,15.136-34.225,1.544-5.066,3.4-12.356,9.514-15.692,4.2-2.286,6.734-.741,11.8-3.336,7.6-3.954,9.823-11.676,10.626-11.244.865.432,0,8.464-5.622,13.468-5.066,4.448-9.885,2.842-13.468,7.846-1.606,2.286-3.212,6.3-1.668,8.4,2.409,3.336,9.576-1.668,14.58,1.668,6.24,4.139,3.768,17.792,2.78,22.982-1.174,6.3-3.151,17.051-9.514,18.533-3.83.865-8.216-1.853-10.626-5.066-7.043-9.329.309-25.7,0-25.823-.247-.062-7.784,14.085-10.626,38.117-4.263,35.461,6.981,47.508-3.336,62.273C251,545.914,235.25,547.521,235.868,556.17c.494,6.919,10.811,8.216,11.244,16.248.371,6.549-6.363,8.4-10.626,20.2-3.027,8.34-2.224,14.58-2.78,14.58Z" transform="translate(-151.859 -326.231)" fill="#ddd"/></g><g transform="translate(2.958)"><path d="M108.125,94.231c-.741.988,2.1,3.4,3.892,7.722,2.1,5.128,1.359,9.761,1.112,12.17-1.3,12.232,2.162,39.353,3.892,48.743.988,5.313,5.993,32.5,27.677,49.855,13.9,11.12,32,16.124,33.793,13.282,1.112-1.853-5.066-5.869-11.614-14.394-14.765-19.151-16.742-42.195-17.73-53.685-1.792-21.252,3.089-25.885-2.78-38.735-4.386-9.637-12.788-19.46-20.51-21.066-1.421-.309-4.016-.556-8.278-1.668-5.869-1.544-8.711-3.151-9.39-2.224Z" transform="translate(-108.005 -92.372)" fill="#ff008c"/><path d="M154.96,104.693c-.371-2.039.865-3.645,3.212-6.672,1.05-1.359,3.4-4.448,4.448-3.954.556.247.185,1.236.741,2.965a9.89,9.89,0,0,0,1.977,3.46c2.595,3.4,3.83,3.521,5.684,5.931,1.606,2.1,2.162,4.077,2.965,6.672a29.187,29.187,0,0,1,1.236,7.6c.062,6.672-3.027,8.464-6.178,18.966-1.668,5.56-2.162,9.637-2.471,9.576-.494-.062.432-11.305.494-11.8a49.342,49.342,0,0,0-.185-9.452v-.371c-.185-1.05-.371-2.039-.618-2.965a42.518,42.518,0,0,0-1.915-5.437,46.553,46.553,0,0,0-3.274-5.869c-.865-1.359-2.039-3.089-3.583-5.189a5.739,5.739,0,0,1-2.471-3.46Z" transform="translate(-125.927 -92.393)" fill="#ddd"/><path d="M200.075,225.517a12.925,12.925,0,0,0,6.8-.247c7.846-2.595,10.379-13.344,14.147-29.283.371-1.544,3.768-16.618,3.089-29.839-.124-2.9-.432-5.684-.8-8.278-.494-3.954-1.05-6.61-2.162-11.861a48.83,48.83,0,0,0-1.359-5.375,45.849,45.849,0,0,0-1.977-4.942c-7.475-15.753-12.417-21.808-16.248-33.237-1.174-3.46-3.583-11.305-5.684-11.058-1.174.124-1.174,2.533-2.965,7.166-3.151,8.278-9.02,16.062-10.07,19.954,0,.185-.741,2.718-.741,2.718a52.549,52.549,0,0,1-2.533,7.969c-.618,1.544-1.174,2.656-1.359,3.089a89.42,89.42,0,0,0-4.448,14.518h0s-.124.8-.247,1.483c-.865,5,.371,13.159.371,13.159.741,5.622,1.606,10.317,2.348,13.653,1.606,7.537,2.718,12.726,5.437,18.6.8,1.792,2.533,5.251,4.88,9.267.185.371,1.05,1.792,2.286,3.707,2.842,4.448,4.263,6.672,6.24,8.834,2.471,2.656,3.892,2.533,4.819,4.7a8.337,8.337,0,0,1,.247,5.436Z" transform="translate(-132.924 -91.391)" fill="#ff008c"/><path d="M236.637,141.937a1,1,0,0,1,.124.309s-1.174-3.089-2.842-6.734c-.309-.618-.741-1.544-1.668-3.4-1.236-2.533-1.915-3.83-2.718-5.313s-.8-1.421-1.853-3.212c-.741-1.3-1.236-2.286-2.224-4.139-1.3-2.533-1.112-2.162-2.595-5.066-1.05-2.039-1.359-2.656-1.915-3.83-.371-.8-.68-1.544-1.236-3.089-.741-1.853-1.236-3.4-1.853-5.251-.247-.68-.432-1.3-.556-1.668a19.8,19.8,0,0,1,1.792-3.027c1.174-1.544,2.039-2.656,3.212-2.718.927,0,1.236.8,2.718,1.73,1.3.865,2.286.988,4.2,1.483,3.027.8,5.375,1.421,7.413,2.718,1.544.988,2.595,2.409,4.7,5.189a72.306,72.306,0,0,1,4.263,6.548c-.8,1.3-1.915,3.089-3.027,5.313a32.672,32.672,0,0,0-2.656,6.24c-.309.988-.556,3.089-1.174,7.413a59.178,59.178,0,0,1-1.236,7.475c-.124.432-.865,3.089-.865,3.089Z" transform="translate(-149.779 -92.694)" fill="#ddd"/><path d="M239.274,141.439c.556-1.853.865-3.089.865-3.089a9.543,9.543,0,0,1,.247-.927,3.434,3.434,0,0,0,.185-.927,4.934,4.934,0,0,0,.124-1.174,21.358,21.358,0,0,1,.247-2.224,76.385,76.385,0,0,1,1.3-8.217,25.271,25.271,0,0,1,.8-2.965,37,37,0,0,1,2.162-4.633c.556-1.112.988-1.977,1.668-3.089.556-.988,1.112-1.792,1.483-2.409h0a41.29,41.29,0,0,1,6.8-7.413c10.379-8.711,28.6-10.935,28.6-10.873h0a11.1,11.1,0,0,0-2.039.68c-1.359.618-2.471,1.05-2.965,2.1a3.409,3.409,0,0,0,.371,3.151c.927,1.359,2.286.988,3.707,2.595.988,1.174.68,1.853,1.3,2.224,2.286,1.421,8.9-6.61,10.132-5.745.68.494-.741,2.842-2.039,7.537a50.462,50.462,0,0,0-1.483,8.278,53.6,53.6,0,0,0,0,11.8c1.05,11.058-2.348,28.727-4.819,38.179-2.471,9.514-5.066,19.4-12.356,30.457-3.212,4.819-14.518,22.055-34.163,28.418-5.869,1.915-15.012,3.707-15.2,3.089,0-.185.927-.494,2.1-1.421a18.874,18.874,0,0,0,4.448-5.375,105.831,105.831,0,0,0,10.873-28.418c.185-1.112,2.9-15.321,1.483-29.159a151.491,151.491,0,0,0-2.78-16.062c0-.185-1.112-4.51-1.112-4.51Z" transform="translate(-152.416 -92.196)" fill="#ff008c"/><path d="M109.1,94.954a70.444,70.444,0,0,0,7.228,2.471c5.745,1.792,7.661,1.977,9.885,2.656,7.66,2.409,12.294,8.525,14.7,11.614a36.254,36.254,0,0,1,7.228,16.248c.494,3.212.432,6.672.371,13.653,0,4.757-.247,7.537-.185,7.537a84.843,84.843,0,0,0,.8-13.035,70.089,70.089,0,0,0-.247-8.278c-1.112-7.475-4.7-12.726-7.29-16.495A36.5,36.5,0,0,0,132.946,102a18.868,18.868,0,0,0-5.066-2.78c-2.286-.741-3.336-.494-7.413-1.483-1.236-.309-1.05-.309-3.707-.988-.556-.124-7.537-2.039-7.537-1.853Z" transform="translate(-108.423 -92.724)" fill="#ddd"/><path d="M159.338,98.02a22.26,22.26,0,0,0-2.78,4.077,3.93,3.93,0,0,0-.618,2.286,8.188,8.188,0,0,0,.556,2.162,2.649,2.649,0,0,1-.927-1.606,3.521,3.521,0,0,1,.185-1.853,12.735,12.735,0,0,1,2.162-3.768c1.174-1.668,1.421-1.668,2.78-3.336a6.152,6.152,0,0,1,.988-.988,1.987,1.987,0,0,1,.432-.247c.247-.062.494-.124.494-.062,0,0-.247.124-.556.309a2.739,2.739,0,0,0-.371.309,19.147,19.147,0,0,0-2.409,2.718Z" transform="translate(-126.166 -92.64)" fill="#ff008c"/><path d="M167.083,94.662a9.793,9.793,0,0,0,0,1.359,7.812,7.812,0,0,0,.865,3.212,12.444,12.444,0,0,0,1.236,1.977,23.526,23.526,0,0,0,3.892,3.83,16.024,16.024,0,0,1,4.139,6.24,26.184,26.184,0,0,1,2.1,9.946,37.021,37.021,0,0,1-.185,3.83,25.226,25.226,0,0,0,.185-6.981,30.168,30.168,0,0,0-1.73-6.981,15.826,15.826,0,0,0-1.421-3.212,15.594,15.594,0,0,0-2.78-3.274c-.8-.741-.988-.741-1.915-1.668a16.244,16.244,0,0,1-1.853-2.039,9.954,9.954,0,0,1-1.421-2.162,12.939,12.939,0,0,1-.741-2.471c-.124-.68-.247-1.236-.309-1.668Z" transform="translate(-130.575 -92.617)" fill="#ff008c"/><path d="M174.9,148.637s.309-1.421.988-3.954c1.792-6.919,1.792-6.981,2.224-8.217a40.31,40.31,0,0,1,2.842-6.548,17.823,17.823,0,0,0,1.668-3.583,28.983,28.983,0,0,0,.68-3.954,25.589,25.589,0,0,1,4.324-9.885,72.146,72.146,0,0,0,5.684-10.688c2.224-5.066,3.151-8.834,3.4-8.711a19.68,19.68,0,0,1-.556,3.336,41.17,41.17,0,0,1-1.853,5.931,65.927,65.927,0,0,1-5.684,10.688,27.617,27.617,0,0,0-2.1,3.707,37.087,37.087,0,0,0-1.853,6.178c-.556,2.471-.494,2.533-.865,3.707a18.7,18.7,0,0,1-2.471,4.819c-3.83,5.622-6.24,17.3-6.425,17.236Z" transform="translate(-133.573 -92.042)" fill="#ddd"/><path d="M210.062,93.2a31.34,31.34,0,0,1,2.471,4.139c1.668,3.4,1.977,5.56,3.212,9.2a76.607,76.607,0,0,0,3.027,7.1c2.78,5.993,4.077,7.6,7.908,14.765,4.077,7.6,6.548,13.1,6.734,13.035a33.656,33.656,0,0,0-1.483-3.768c-.68-1.483-1.236-2.656-1.73-3.707-1.792-3.521-3.027-5.807-3.027-5.807-.927-1.73-3.274-6.116-7.846-14.889a53.9,53.9,0,0,1-3.151-6.919c-.432-1.3-.927-2.965-2.039-5.992a1.505,1.505,0,0,0-.247-.618c-.371-.927-.68-1.792-1.05-2.595A9.2,9.2,0,0,0,210.988,94a4.666,4.666,0,0,0-.988-.8Z" transform="translate(-146.989 -92.082)" fill="#ddd"/><path d="M217.885,101.56s.618-.988,1.483-2.348a8.885,8.885,0,0,1,1.544-1.977c.741-.68,1.112-1.05,1.544-1.112,1.174-.185,1.73,1.112,3.768,2.1a13.882,13.882,0,0,0,2.286.68,30.221,30.221,0,0,1,7.29,2.9,16.807,16.807,0,0,1,1.544.988,5.207,5.207,0,0,1,.494.432,14.307,14.307,0,0,1,2.286,2.409c.371.494.618.865.865,1.174,1.421,2.039,2.533,4.016,3.089,4.819.185.309.371.432.618.865a1.152,1.152,0,0,0,.185.247,1.489,1.489,0,0,0-.185-.68,1.305,1.305,0,0,0-.556-.68c-.988-.865-2.224-4.51-5.375-7.846a2.688,2.688,0,0,0-.432-.371,17.168,17.168,0,0,0-6.24-3.336c-3.027-.865-3.645-.988-3.645-.988a6.526,6.526,0,0,1-1.174-.309,5.438,5.438,0,0,1-1.05-.371,9.2,9.2,0,0,1-2.162-1.421c-.556-.432-.8-.68-1.3-.741a2.291,2.291,0,0,0-.865.124,2.82,2.82,0,0,0-.865.618,22.735,22.735,0,0,0-2.78,3.83c-.309.556-.556,1.05-.556,1.05Z" transform="translate(-149.932 -93.152)" fill="#ff008c"/><path d="M264.1,112.357a31.115,31.115,0,0,1,2.162-2.718,43.128,43.128,0,0,1,6.3-5.992c3.027-2.286,5.684-3.336,9.576-4.942a67.158,67.158,0,0,1,7.1-2.471,32.521,32.521,0,0,1,6.487-1.544,3.2,3.2,0,0,0-1.174.618,3.322,3.322,0,0,0-.988,1.544A3.538,3.538,0,0,0,294,99.878c.988,1.359,2.9,1.792,3.892,2.842a1.937,1.937,0,0,1,.494.68c.185.432.124.741.371,1.05a1.333,1.333,0,0,0,.618.494c.988.432,2.348-.371,3.274-.927a14.322,14.322,0,0,0,2.286-1.73,22.409,22.409,0,0,1,2.039-1.73c.185-.124.247-.185.68-.494a4.443,4.443,0,0,1,.927-.618c.371-.185.865-.371.865-.309s-.556.432-1.544,1.236c-.062.062-.185.185-.618.556-1.05.927-1.606,1.421-1.915,1.73a14.855,14.855,0,0,1-2.409,1.853c-.8.432-2.533,1.483-3.707.865a1.848,1.848,0,0,1-.68-.618,2.554,2.554,0,0,1-.494-1.174c-.309-1.483-3.089-1.483-4.386-3.521a3.714,3.714,0,0,1-.432-3.336c.309-.741.865-.988.741-1.174-.185-.432-2.718.494-4.633,1.174-5.931,2.1-4.942,1.544-7.1,2.409a46,46,0,0,0-9.39,4.88A51.3,51.3,0,0,0,264.1,112.357Z" transform="translate(-167.667 -92.644)" fill="#ddd"/><path d="M141.326,158.91c7.66-6.178,4.572-21.128,2.224-32.5,0,0-2.348-11.305-8.834-15.877a3.353,3.353,0,0,0-2.595-.741c-.8.247-1.483.988-2.224,2.965-1.606,4.263-.309,5.992-1.853,9.2-.371.8-1.544,3.274-3.212,3.336-1.977.062-3.521-3.212-3.954-4.2-1.977-4.324-.741-6.919-1.359-10.935-1.112-7.6-7.537-12.356-7.722-12.17-.185.124,4.139,4.324,5.189,11.058a22.041,22.041,0,0,1-.741,9.2c-1.174,5.189-.432,11.8,1.112,25.082,1.236,10.688,2.039,17.607,4.448,26.194,3.4,12.109,7.846,27.986,21.808,40.218,2.409,2.1,11.058,9.7,22.178,12.912,2.286.68,11.861,3.212,11.861,3.212h0s-16.248-6.672-24.032-11.305c-22.178-13.282-33.422-44.48-26.194-52.079,3.46-3.583,8.649.618,14.024-3.707Z" transform="translate(-109.452 -93.914)" fill="#ddd"/><path d="M205.856,228.18c-.432.309-11.182-11.429-19.584-28.789-6.425-13.282-8.217-23.043-8.834-28.047-1.112-8.464-1.853-13.838.371-20.325,2.162-6.363,5.313-7.661,7.413-16.248,1.3-5.5.618-6.981,2.595-11.429,2.1-4.7,4.139-5.622,7.043-11.8,2.039-4.448,2.533-7.1,2.965-7.043.68.124,1.359,6.857-1.483,13.282-1.977,4.51-4.386,6.054-5.189,11.058-.185,1.05-.8,5.189.741,5.931,2.286,1.112,5.807-6.363,11.429-6.3,4.386.062,7.722,4.819,10.317,8.464,1.112,1.544,3.212,4.819,5.56,12.17a88.552,88.552,0,0,1,4.077,28.789c-.124,5.375-.741,10.317-1.112,10.317-.309,0,4.077-16.68-3.336-31.754-3.089-6.24-9.576-15.074-15.506-14.024a7.825,7.825,0,0,0-4.448,2.965c-6.425,8.031,2.162,22.92-2.595,28.418a5.283,5.283,0,0,1-2.965,1.853c-1.792.309-3.46-.741-4.819-1.853-5.622-4.633-8.34-13.406-8.834-13.282-.68.185-.124,16.989,9.2,38.364,7.908,18.1,17.421,28.85,16.989,29.159Z" transform="translate(-134.135 -96.401)" fill="#ddd"/><path d="M240,226.458c-2.533-2.409,10.317-11.8,13.282-32.5,1.483-10.379-1.236-11.614-2.965-42.812-.741-13.1-.556-18.348,1.853-24.711,4.016-10.688,11.305-16.248,15.136-19.213,3.46-2.656,8.711-6.672,12.541-4.819,1.3.618.988,1.73,3.336,4.819,2.1,2.78,3.954,5.189,6.3,5.189,1.915,0,3.46-1.544,5.189-3.336,1.977-2.039,2.78-3.768,2.965-3.707.371.185-3.892,6.425-5.189,14.765-.68,4.386-.371,8.155,0,13.282.556,6.981,1.606,10.07-.371,14.024A11.933,11.933,0,0,1,288,152.263c-5.622,3.768-11.12-.432-16.989,2.965a13.784,13.784,0,0,0-4.819,5.189c-4.88,9.514,8.958,19.769,9.2,32.5.371,19.522-31.63,37.129-35.461,33.607Z" transform="translate(-158.329 -95.421)" fill="#ddd"/><path d="M262.2,134.492c-.618-.247.309-8.34,5.189-15.877,6.24-9.7,17.421-15.877,21.066-13.282,1.3.927.741,2.286,2.965,5.189,2.656,3.46,5.313,3.83,5.189,4.819-.309,2.471-17.174-1.792-26.935,6.672-5.931,5.128-6.8,12.788-7.413,12.541Z" transform="translate(-166.874 -96.493)" fill="#ff008c"/><path d="M168.543,144.77c-.494,0,3.892-16.865-2.409-25.638-2.348-3.336-4.016-7.1-6.487-10.317a7.219,7.219,0,0,1-1.668-3.521c-.432-3.892,3.46-7.846,4.448-7.413.494.247,0,1.421,0,5,0,3.089,0,6.8,1.483,7.413,1.236.432,2.224-1.73,4.819-1.668a5.032,5.032,0,0,1,2.965,1.112c2.039,1.544,2.409,4.016,2.78,6.3.432,2.78.124,5.5-.371,5.56-.556.062-.8-3.027-2.595-3.521a2.112,2.112,0,0,0-1.853.371c-1.792,1.359-.185,5.869.556,9.2,1.977,9.267-1.3,17.174-1.668,17.174Z" transform="translate(-127.093 -93.859)" fill="#ff008c"/><path d="M237.354,139.064c.185,0,.247-2.348.988-6.919a61.242,61.242,0,0,1,1.977-9.329c.927-3.027,1.359-4.572,2.224-5.684.8-1.05,1.73-1.792,1.73-2.965,0-.988-.618-1.544-1.483-2.718-1.73-2.471-1.112-3.212-2.471-5.189a11.032,11.032,0,0,0-5.189-3.954c-2.9-1.112-3.892.062-6.425-1.236-2.162-1.112-2.286-2.409-3.707-2.471a4.622,4.622,0,0,0-4.2,4.7c.124,2.348,2.286,4.324,3.954,4.2,1.483-.124,1.544-1.915,3.46-2.965,3.027-1.668,7.413.247,7.413.988s-4.077-.062-7.413,2.718a6.968,6.968,0,0,0-2.718,4.448c-.247,2.533,2.78,3.274,5.189,6.672,3.274,4.7,2.533,10.132,2.965,10.07.371,0,.556-5.622.494-11.058,0-5-.185-8.093,1.73-9.576a2.317,2.317,0,0,1,1.977-.494c1.915.494,2.78,4.077,2.718,6.919-.124,3.212-1.421,3.521-2.471,8.093a39.82,39.82,0,0,0-.741,6.919C237.107,134.554,237.107,139.064,237.354,139.064Z" transform="translate(-151.114 -94.145)" fill="#ff008c"/></g></g><path d="M32.557,37.932C22.117,43.307,11.738,48.743,1.3,54.118H4.448C2.965,55.23,1.483,56.342,0,57.516a9.578,9.578,0,0,0,3.707.185,10.219,10.219,0,0,0,3.707-1.236v.988c6.734-2.533,12.294-4.51,16.557-5.931.556-.185,5.128-1.73,11-3.336,0,0,2.656-.741,6.363-1.483a60.738,60.738,0,0,1,6.054-.8,12.776,12.776,0,0,1,1.606,0,10.989,10.989,0,0,1,2.224.371,5.685,5.685,0,0,0,.556.185l-4.448,1.3,7.413.371a10.066,10.066,0,0,0,.556,2.348A9.745,9.745,0,0,0,58.566,54.8c.185.124.618.371,1.236.8.556.371.927.68,1.421,1.05a9.358,9.358,0,0,1,2.348,2.656.821.821,0,0,1,.185.432,5,5,0,0,0-.8.371,5.418,5.418,0,0,0-1.112.927.763.763,0,0,0-.247.494v.309a20.3,20.3,0,0,1,5.992-.927,19.657,19.657,0,0,1,5.869.865v-.247a1.047,1.047,0,0,0-.371-.494,5.447,5.447,0,0,0-.8-.618c-.432-.247-.8-.371-.865-.432-.247-.062-.371-.124-.432-.124a12.628,12.628,0,0,1-4.7-2.656,16.073,16.073,0,0,1-2.718-2.718,9.947,9.947,0,0,1-2.162-4.448,13.651,13.651,0,0,1-.124-1.977,5.4,5.4,0,0,1,.8-2.842,6.019,6.019,0,0,1,.988-1.236,6.908,6.908,0,0,1,1.3-1.05,20.651,20.651,0,0,1,2.656-1.544c1.544-.865,2.348-1.236,2.78-1.483,3.768-1.915,3.46-1.73,4.942-2.533a51.226,51.226,0,0,0,4.51-2.718c.494-.371.927-.68,1.236-.927a18.87,18.87,0,0,0,3.521-3.583,14.594,14.594,0,0,0,1.05-1.73c.124-.309.309-.68.618-1.483s.494-1.174.741-1.853c.494-1.174.494-1.112.865-2.1.494-1.3.432-1.174,1.05-2.78.432-1.174.556-1.359.8-2.1.185-.494.247-.741.432-1.236.185-.432.371-.927.68-1.544a8.827,8.827,0,0,1,1.174-1.73,9.016,9.016,0,0,1,1.236-1.359l1.05-1.05c.865-.432,1.73-.865,2.656-1.3,1.606-.741,3.151-1.359,4.572-1.853a9.758,9.758,0,0,1-.988-.865C98.6,6.054,97.61,5.251,96.93,4.7c-1.668-1.359-1.359-1.05-2.409-1.915-.247-.185-.494-.371-.8-.618a13.424,13.424,0,0,0-1.73-1.05A9.781,9.781,0,0,0,88.343,0a8.312,8.312,0,0,0-2.471.309A12.493,12.493,0,0,0,82.35,1.915c-.494.309-.865.556-1.359.927-.865.618-1.915,1.359-3.336,2.533-1.606,1.3-3.707,3.212-4.757,4.139a2.811,2.811,0,0,1-.556.432c-.371.309-.741.556-.988.741-1.174.494-2.286,1.05-3.46,1.544-.556.247-1.3.556-2.224.988-2.348,1.112-4.077,2.1-5.313,2.78-4.016,2.348-6.8,4.139-6.8,4.139-6.054,3.954-12.17,7.722-18.225,11.614-2.162,1.359-5.5,3.521-9.7,6.178H32.5Z" transform="translate(0 0)" fill="#ddd"/></g></svg>