<svg xmlns="http://www.w3.org/2000/svg" width="289.39" height="402.97" viewBox="0 0 289.39 402.97"><g transform="translate(-205.212 -1703.272)"><g transform="translate(205.212 1703.272)"><rect width="289.39" height="402.97" fill="#ff008c"/></g><g transform="translate(248.038 1842.239)"><path d="M72.39,181.1s-4.225,6.274-5.57,10.308c-2.177,6.4-.256,16.2,6.466,21.511,8.451,6.658,22.28,4.546,24.52-.448.832-1.921,0-4.354-.832-6.85-.9-2.625-2.177-4.418-5.57-8.579-4.61-5.7-6.914-8.515-8.579-9.923A35.974,35.974,0,0,0,72.518,181.1Z" transform="translate(-65.965 -126.101)" fill="#fff"/><path d="M75.816,163.376c-1.216-1.024,1.088-6.722,4.738-11.588A38.27,38.27,0,0,1,94.767,140.2c1.408,2.433,2.817,4.866,4.29,7.3,3.265,5.442,6.594,10.564,9.923,15.493,6.338,9.027,12.612,18.054,18.951,27.081a63.591,63.591,0,0,1-10.756,4.289c-4.225,1.281-10.308,2.561-10.308,2.561s-2.945-5.7-4.289-8.195c-1.216-2.113-1.6-2.5-9.475-12.484,0,0-7.747-9.8-12.036-11.588a17.656,17.656,0,0,0-2.561-.832c-1.729-.384-2.241-.128-2.561-.448Z" transform="translate(-69.392 -111.386)" fill="#ff008c"/><path d="M110.2,128.533a23.97,23.97,0,0,1,3.009-3.841s11.332-12.164,31.819-10.756c.32,0,4.61.32,10.243.832h.064s-1.408,8.707-2.177,14.6c-1.857,15.045-1.152,27.85-.448,40.846.256,5.186.64,9.347.832,12.036a9.837,9.837,0,0,1-5.57,0,9.277,9.277,0,0,1-3.841-2.177,312.163,312.163,0,0,1-19.335-26.7c-5.634-8.707-10.5-17.094-14.6-24.969Z" transform="translate(-81.88 -101.896)" fill="#fff"/><path d="M182.492,177.53s-.256-12.548-.448-24.52c-.128-6.722-.256-17.03.448-29.258.32-5.7.768-10.564,3.457-15.493,0,0,.192-.384,4.289-7.3a56.7,56.7,0,0,1,17.862-1.28,58.793,58.793,0,0,1,12.676,2.561,126.646,126.646,0,0,0-10.308,14.213,111.074,111.074,0,0,0-6.018,10.756c-.768,1.536-12.1,25.1-6.85,28.81a3.744,3.744,0,0,0,2.561.448c6.85-.832,11.524-5.25,19.783-12.484a147.375,147.375,0,0,1,13.317-10.756c6.082-4.29,9.155-6.466,13.765-7.747,6.786-1.921,12.548-.832,16.774,0,11.2,2.241,18.63,7.939,22.792,11.2,11.2,8.771,16.646,19.079,17.222,22.792.576,3.841.832,8.643.832,8.643v.768a64.48,64.48,0,0,0-22.792-7.747c-15.621-2.113-27.85,2.241-34.38,4.738-22.344,8.387-40.4,25.8-40.4,25.8l-24.52-14.213Z" transform="translate(-107.692 -96.73)" fill="#ff008c"/><path d="M213.106,149.361c-1.409-.9-1.344-4.161-.192-8.579,1.857-7.234,6.594-17.67,12.292-25.865a64.732,64.732,0,0,1,10.756-12.036c6.594-6.146,9.6-7.042,10.756-7.3,4.353-1.024,7.875.128,12.484,1.729a53.343,53.343,0,0,1,23.24,16.774c.768.9,7.555,9.347,6.018,11.2-1.472,1.729-8.451-4.994-19.335-6.018a34.347,34.347,0,0,0-16.774,3.009c-12.484,5.186-15.237,13.893-33.1,24.969-3.329,2.049-4.994,2.817-6.018,2.177Z" transform="translate(-118.523 -95.194)" fill="#fff"/><path d="M223.764,231.971s20.423-21.255,46.864-27.978c16.582-4.225,32.459-1.921,39.117.832.448.192,10.308,4.289,10.308,4.289s2.241,6.466,3.457,10.308c4.289,14.021,3.137,22.6,1.28,24.52l-2.177,2.177c-9.8-7.747-11.2-8.579-11.2-8.579a45.026,45.026,0,0,0-18.951-6.018,43.48,43.48,0,0,0-18.054,2.177,75.651,75.651,0,0,0-11.4,4.866,72.156,72.156,0,0,0-10.948,7.17c-9.475-4.61-18.95-9.155-28.362-13.765Z" transform="translate(-122.715 -133.501)" fill="#fff"/><path d="M267.4,269.562a58.652,58.652,0,0,1,11.588-8.195,54.233,54.233,0,0,1,17.222-5.57,48.713,48.713,0,0,1,13.381-.96,40.641,40.641,0,0,1,6.85.96,37.781,37.781,0,0,1,12.484,5.57,67.682,67.682,0,0,1,9.027,7.747h0s3.009,10.051-.448,18.054a34.32,34.32,0,0,1-7.3,10.308h0l-10.756-7.747c-10.5-6.274-22.408-5.378-25.353-5.186-5.762.448-14.213,2.177-14.213,2.177a90.028,90.028,0,0,1-6.85-6.85,29.751,29.751,0,0,1-5.57-10.307Z" transform="translate(-138.437 -152.59)" fill="#ff008c"/><path d="M286.9,307.741s18.118-4.994,32.715,1.28c7.555,3.265,15.941,10.308,15.941,10.308a98.587,98.587,0,0,1-6.85,9.475c-4.289,4.738-12.8,9.923-21.96,8.195-8.451-1.665-13.252-8.515-14.213-9.923-5.122-7.747-5.57-19.335-5.57-19.335Z" transform="translate(-145.453 -170.987)" fill="#fff"/><path d="M211.592,173.725c0-.192,4.226-1.152,9.027-3.457,7.042-3.329,8.451-6.338,19.335-15.493,6.594-5.506,9.923-8.323,14.6-10.308a30.7,30.7,0,0,1,15.045-3.009,43.663,43.663,0,0,1,8.579,1.729,60.379,60.379,0,0,1,8.195,3.009c13.124,6.082,20.743,16.966,22.344,19.335a29.161,29.161,0,0,1,3.841,7.747c1.408,4.353,1.6,8.579,1.28,8.579s-1.024-4.482-2.177-8.195c-5.314-16.9-24.008-27.017-26.249-24.969-.9.832.576,3.713-.832,4.738a3.232,3.232,0,0,1-2.561,0c-2.369-.7-2.689-2.433-4.482-2.625-1.216-.128-2.689.384-2.817,1.152-.256,1.28,3.969,1.985,4.674,4.8.576,2.177-1.344,4.482-2.817,6.274-.128.128-.192.256-.32.384-3.329,3.841-5.378,3.969-6.274,5.89-1.088,2.3,1.024,3.649,0,5.57-1.152,2.113-4.482,2.113-7.747,2.561-3.393.512-6.85,2.113-13.765,5.186a94.1,94.1,0,0,0-13.317,7.3c-11.268,7.363-18.31,15.685-18.5,15.493a37.1,37.1,0,0,1,3.841-4.289c5.25-5.186,12.932-11.588,27.529-19.783,8.387-4.738,13.765-7.042,19.527-13.061,1.921-1.985,6.21-6.658,4.866-9.6a4.154,4.154,0,0,0-2.049-1.793c-4.866-2.113-11.076,4.161-14.469,2.625a2.766,2.766,0,0,1-1.344-1.216,3.175,3.175,0,0,1,.256-2.625c1.536-3.393,5.506-5.954,5.378-6.21-.064-.192-4.29,1.28-17.8,9.8-10.244,6.466-12.292,8.451-18.5,10.948-6.338,2.5-12.42,3.649-12.484,3.457Z" transform="translate(-118.29 -111.812)" fill="#fff"/><path d="M215.659,148.328c-.512-.192,1.6-11.844,8.579-24.52,5.378-9.731,13.317-24.136,26.249-25.353,7.555-.7,13.765,3.329,19.783,7.3,10.884,7.17,16.71,16.838,15.941,17.606-.9.832-8.579-10.884-19.335-10.308-5.57.256-8.707,3.585-13.317,1.729-4.1-1.665-3.841-5.186-6.85-6.018-6.722-1.857-16.326,12.676-19.335,17.222-8.195,12.356-11.14,22.536-11.588,22.344Z" transform="translate(-119.796 -96.338)" fill="#ff008c"/><path d="M193.328,104.663c3.2-1.857,7.363-2.049,10.307-2.177,8.067-.32,14.277,2.5,14.213,3.009-.128.7-11.14-2.177-12.932,1.28-.832,1.665,1.088,3.457,0,6.85a6.694,6.694,0,0,1-2.177,3.457c-2.881,2.113-6.594-1.6-9.923-.448-2.945,1.088-3.905,5.442-4.738,10.756a150.528,150.528,0,0,0-1.729,25.8,130.247,130.247,0,0,1-.448-20.615c.7-15.237,1.152-24.264,7.3-27.978Z" transform="translate(-109.053 -97.808)" fill="#fff"/><path d="M267.324,247.519c.256.32,7.043-5.89,17.606-9.923a50.183,50.183,0,0,1,23.624-3.457,49.326,49.326,0,0,1,18.054,5.57,46.266,46.266,0,0,1,11.588,9.027h0l1.28-1.28a8.184,8.184,0,0,0,1.729-6.466c-.9-3.841-5.506-4.161-5.57-6.466-.128-2.241,3.2-2.689,3.841-6.018.128-.768.064-1.216-1.729-6.466-1.216-3.457-1.793-5.186-3.009-8.579,0,0-3.521-1.473-5.634-.384-1.6.832-2.625,3.265-1.921,4.482.64,1.088,1.985.512,3.457,1.665,2.369,1.793,2.369,5.826,1.792,6.082-.576.192-1.344-3.137-4.673-4.8a5.871,5.871,0,0,0-4.353-.576c-2.177.768-1.024,3.841-3.393,6.338-2.113,2.3-5.186,2.3-5.122,2.689.064.448,3.393.64,7.042-.384,4.1-1.088,6.146-2.945,8.067-1.985a2.255,2.255,0,0,1,1.088,1.344c.32,1.665-2.241,3.585-4.417,4.482a9.229,9.229,0,0,1-1.408.448c-7.875,1.537-16.774-.512-16.774-.512-14.149-3.2-28.682,5.442-31.819,7.3-5.762,3.393-9.667,7.491-9.475,7.747Z" transform="translate(-138.362 -137.461)" fill="#ff008c"/><path d="M134.643,149.752c1.473-2.753,4.033-2.689,4.738-5.186.768-2.753-1.6-5.89-3.649-8a30.207,30.207,0,0,0-2.5-2.753,12.457,12.457,0,0,0-5.954-3.329,2.051,2.051,0,0,0-1.537.256c-.384.32-.576.9-.512,2.049.128,2.625,1.216,3.2,1.152,5.25,0,.512-.064,2.049-.96,2.5-1.024.512-2.625-.832-3.073-1.216a6.131,6.131,0,0,1-1.024-1.088c-.7-.96-4.994-6.658-4.738-6.85.256-.256,4.866,5.57,6.466,4.738.64-.32.512-1.537.448-3.009-.32-4.289-1.793-5.634-1.729-7.3.32-5.122,15.237-9.411,16.774-6.85.96,1.665-4.225,4.93-3.009,9.027A4.844,4.844,0,0,0,139,131.441c2.817.448,4.8-3.585,6.466-3.009,1.473.512,1.28,4.289,1.28,6.018-.128,10.884,4.354,20.3,5.186,20.231.7-.064-.64-7.363.448-18.951.192-2.113.384-3.585.832-8.579.448-4.546.832-9.923.832-9.923a42.445,42.445,0,0,0-11.2-1.729,43.321,43.321,0,0,0-16.326,3.009c-9.155,3.585-14.277,9.091-14.213,11.2,0,.32.064.768,2.177,4.289,2.625,4.61,4.738,7.747,4.738,7.747,4.482,6.978,3.649,5.826,6.4,10.116,2.689,4.161,3.457,5.186,8.451,12.548,7.875,11.652,11.4,17.094,16.518,17.8.768.128,2.945.256,3.009,0,0-.32-2.369-.832-4.289-1.729-3.329-1.537-4.994-4.1-7.747-8.195a44.714,44.714,0,0,1-5.186-9.923c-2.049-5.57-3.393-9.347-1.729-12.484Z" transform="translate(-82.635 -102.5)" fill="#ff008c"/><path d="M108.826,196.886c-.128.064-2.561-4.29-2.561-4.29a119.108,119.108,0,0,0-11.588-16.774c-5.826-7.3-8.451-9.155-10.308-10.308a28.394,28.394,0,0,0-5.57-2.561,26.692,26.692,0,0,1,1.28-3.841c4.289-9.859,14.6-14.277,14.6-14.213a9.856,9.856,0,0,0-5.186,4.738c-1.537,3.329.192,5.442-1.729,8.579-1.408,2.3-3.073,2.561-3.009,3.841.064,1.729,3.713,3.713,5.762,2.817,1.537-.7,1.28-2.561,3.265-3.521a4.862,4.862,0,0,1,2.945-.384c2.433.32,5.122,2.177,5.122,3.969,0,2.689-6.082,3.649-5.89,5.762.192,2.177,6.722,2.3,7.555,5.826a4.59,4.59,0,0,1-.256,2.369c-1.6,7.17,5.7,17.99,5.57,18.054Z" transform="translate(-70.583 -113.077)" fill="#fff"/><path d="M89.389,216.515c0,.192-8.963,1.472-15.493-4.29-6.658-5.89-6.082-14.981-6.018-15.493.192-2.561,1.28-4.994,3.457-9.923.9-2.113,1.473-3.009,2.177-3.009,1.344,0,3.009,3.265,3.009,6.466,0,4.418-3.393,5.314-4.29,9.923-1.088,5.57,2.753,10.5,3.009,10.756,4.93,6.018,14.213,5.378,14.213,5.57Z" transform="translate(-66.639 -127.073)" fill="#ff008c"/><path d="M292.264,310.5a45.292,45.292,0,0,1,11.2-1.728,37.968,37.968,0,0,1,15.493,2.177c8.195,3.073,15.045,9.475,15.045,9.475h0s-7.106,11.716-8.195,11.2c-.64-.32,2.5-4.61,1.281-9.027-1.921-6.978-13.765-11.012-16.774-8.195-1.729,1.665.128,4.866-2.177,6.85-2.113,1.793-4.866.192-6.018,1.729-1.793,2.433,3.713,8.451,2.561,9.475-.7.64-3.585-1.152-5.57-3.009a20.678,20.678,0,0,1-5.186-8.579A31.433,31.433,0,0,1,292.2,310.56Z" transform="translate(-147.36 -172.013)" fill="#ff008c"/><path d="M287.564,294.5c0,.128,2.881-.64,6.85-1.28a68.771,68.771,0,0,1,7.747-.832,39.37,39.37,0,0,1,5.762-.128,41.666,41.666,0,0,1,10.564,1.857,37.437,37.437,0,0,1,6.85,2.561,49.971,49.971,0,0,1,6.85,4.289c1.985,1.345,3.585,2.561,4.738,3.457a24.4,24.4,0,0,0,5.57-7.747c3.905-8.387,2.3-16.774,1.921-16.774-.256,0,.512,3.713-1.857,6.722-2.241,2.881-4.93,2.3-6.914,5.442-1.472,2.3-.9,3.906-2.113,4.418-1.6.7-4.994-1.6-5.122-3.905-.064-1.665,1.665-2.241,1.665-4.482a5.324,5.324,0,0,0-.96-2.817c-1.409-1.985-4.226-3.585-5.89-2.753-2.369,1.216-.512,7.106-2.433,7.875-1.985.832-5.058-4.93-8.579-4.1a4.811,4.811,0,0,0-1.985,1.28c-3.457,2.881-6.53,2.369-15.877,4.8a38.887,38.887,0,0,0-6.85,2.177Z" transform="translate(-145.668 -161.647)" fill="#fff"/></g></g></svg>