<svg id="CIRCLE" xmlns="http://www.w3.org/2000/svg" width="172.501" height="172.334" viewBox="0 0 172.501 172.334">
  <text id="A" transform="translate(88.548 25.539) rotate(10.8)" fill="#ddd" font-size="26" font-family="AvenirNext-Regular, Avenir Next"><tspan x="0" y="0">A</tspan></text>
  <text id="M" transform="translate(105.348 28.139) rotate(29.3)" fill="#ddd" font-size="26" font-family="AvenirNext-Regular, Avenir Next"><tspan x="0" y="0">M</tspan></text>
  <text id="S" transform="matrix(0.695, 0.719, -0.719, 0.695, 124.248, 39.139)" fill="#ddd" font-size="26" font-family="AvenirNext-Regular, Avenir Next"><tspan x="0" y="0">S</tspan></text>
  <text id="T" transform="translate(133.548 48.639) rotate(58.6)" fill="#ddd" font-size="26" font-family="AvenirNext-Regular, Avenir Next"><tspan x="0" y="0">T</tspan></text>
  <text id="E" transform="translate(140.948 60.439) rotate(72.1)" fill="#ddd" font-size="26" font-family="AvenirNext-Regular, Avenir Next"><tspan x="0" y="0">E</tspan></text>
  <text id="R" transform="translate(145.448 74.139) rotate(86)" fill="#ddd" font-size="26" font-family="AvenirNext-Regular, Avenir Next"><tspan x="0" y="0">R</tspan></text>
  <text id="D" transform="translate(146.948 88.539) rotate(101.5)" fill="#ddd" font-size="26" font-family="AvenirNext-Regular, Avenir Next"><tspan x="0" y="0">D</tspan></text>
  <text id="O" transform="translate(143.648 106.739) rotate(120.2)" fill="#ddd" font-size="26" font-family="AvenirNext-Regular, Avenir Next"><tspan x="0" y="0">O</tspan></text>
  <text id="T-2" data-name="T" transform="matrix(-0.718, 0.696, -0.696, -0.718, 133.248, 124.039)" fill="#ddd" font-size="26" font-family="AvenirNext-Regular, Avenir Next"><tspan x="0" y="0">T</tspan></text>
  <text id="_2" data-name="2" transform="translate(118.848 137.039) rotate(154.4)" fill="#ddd" font-size="26" font-family="AvenirNext-Regular, Avenir Next"><tspan x="0" y="0">2</tspan></text>
  <text id="_0" data-name="0" transform="translate(106.148 143.239) rotate(167.9)" fill="#ddd" font-size="26" font-family="AvenirNext-Regular, Avenir Next"><tspan x="0" y="0">0</tspan></text>
  <text id="_2-2" data-name="2" transform="translate(92.448 146.339) rotate(-178.8)" fill="#ddd" font-size="26" font-family="AvenirNext-Regular, Avenir Next"><tspan x="0" y="0">2</tspan></text>
  <text id="_2-3" data-name="2" transform="translate(78.248 146.139) rotate(-165.4)" fill="#ddd" font-size="26" font-family="AvenirNext-Regular, Avenir Next"><tspan x="0" y="0">2</tspan></text>
  <text id="A-2" data-name="A" transform="matrix(-0.82, -0.572, 0.572, -0.82, 59.348, 140.639)" fill="#ddd" font-size="26" font-family="AvenirNext-Regular, Avenir Next"><tspan x="0" y="0">A</tspan></text>
  <text id="F" transform="matrix(-0.651, -0.759, 0.759, -0.651, 45.348, 130.739)" fill="#ddd" font-size="26" font-family="AvenirNext-Regular, Avenir Next"><tspan x="0" y="0">F</tspan></text>
  <text id="T-3" data-name="T" transform="translate(36.348 120.439) rotate(-117.5)" fill="#ddd" font-size="26" font-family="AvenirNext-Regular, Avenir Next"><tspan x="0" y="0">T</tspan></text>
  <text id="E-2" data-name="E" transform="translate(29.748 108.139) rotate(-104)" fill="#ddd" font-size="26" font-family="AvenirNext-Regular, Avenir Next"><tspan x="0" y="0">E</tspan></text>
  <text id="R-2" data-name="R" transform="translate(26.248 94.239) rotate(-90.9)" fill="#ddd" font-size="26" font-family="AvenirNext-Regular, Avenir Next"><tspan x="0" y="0">R</tspan></text>
  <text id="M-2" data-name="M" transform="matrix(0.291, -0.957, 0.957, 0.291, 25.348, 79.739)" fill="#ddd" font-size="26" font-family="AvenirNext-Regular, Avenir Next"><tspan x="0" y="0">M</tspan></text>
  <text id="O-2" data-name="O" transform="matrix(0.602, -0.799, 0.799, 0.602, 31.548, 58.939)" fill="#ddd" font-size="26" font-family="AvenirNext-Regular, Avenir Next"><tspan x="0" y="0">O</tspan></text>
  <text id="V" transform="translate(44.148 42.539) rotate(-36.3)" fill="#ddd" font-size="26" font-family="AvenirNext-Regular, Avenir Next"><tspan x="0" y="0">V</tspan></text>
  <text id="I" transform="matrix(0.898, -0.44, 0.44, 0.898, 56.748, 33.739)" fill="#ddd" font-size="26" font-family="AvenirNext-Regular, Avenir Next"><tspan x="0" y="0">I</tspan></text>
  <text id="E-3" data-name="E" transform="translate(62.048 30.639) rotate(-16.2)" fill="#ddd" font-size="26" font-family="AvenirNext-Regular, Avenir Next"><tspan x="0" y="0">E</tspan></text>
</svg>
