<svg xmlns="http://www.w3.org/2000/svg" width="297" height="297" viewBox="0 0 297 297">
  <g id="aštar" transform="translate(-15947 -15309)">
    <g id="Group_131" data-name="Group 131">
      <g id="Group_130" data-name="Group 130" transform="translate(16141 15696.924)">
        <g id="Group_129" data-name="Group 129" transform="translate(0 32)">
          <g id="Group_128" data-name="Group 128" transform="translate(58 8)">
            <path id="Path_2155" data-name="Path 2155" d="M-43.4-321.9a61.234,61.234,0,0,0-41.4-53.8,61.194,61.194,0,0,0-65.6,17.6h0c-.1.1-.1.2-.2.3a61.116,61.116,0,0,0-14.9,44.2c.1,1.6.3,3.1.5,4.7h0v.2c.1,1,.3,2.1.5,3.1h0l.6,2.7h0A61.209,61.209,0,0,0-95-257.2,61.012,61.012,0,0,0-43.4-321.9Zm-13.3.9a48.954,48.954,0,0,1-.7,12.1v-.1h0c-4.4-10.8-13.2-18.7-20.9-23,1.6-18.3-4.7-26-11.7-27.3-.2,0-.4-.1-.6-.1a10.339,10.339,0,0,0-11,8.9,10.3,10.3,0,0,0,8.4,11.4,7.084,7.084,0,0,0,1.4.1c0,.6.1,1.3.1,2a53.055,53.055,0,0,0-18.2-1.4,42.034,42.034,0,0,0-6.2.8c.7-6.2,3-13.2,7.5-18.3a21.014,21.014,0,0,1,17.9-7,20.1,20.1,0,0,1,4.1.9l.2.1h0A47.531,47.531,0,0,1-56.7-321Zm-42.6,9.4h0a43.813,43.813,0,0,1-5.2,6.2,44.318,44.318,0,0,1-7.3-10.4l-.3-.6h0a43.062,43.062,0,0,1-2.7-7.6,44.927,44.927,0,0,1,12.7-1.2h.6a43.23,43.23,0,0,1,8,1.4,45.1,45.1,0,0,1-5.3,11.6A1.333,1.333,0,0,0-99.3-311.6Zm-20.9-51.2h0c-7.2,9.3-9.6,20.8-9.4,29.6-16.7,7.9-20.3,17.2-17.9,23.9.1.2.1.4.2.6a10.222,10.222,0,0,0,13.2,5.2,10.186,10.186,0,0,0,5.6-13.1,8.264,8.264,0,0,0-.7-1.3c.5-.3,1.1-.7,1.7-1a55.562,55.562,0,0,0,7.8,16.5,59.866,59.866,0,0,0,3.8,5c-5.8,2.5-12.9,4-19.6,2.6a20.632,20.632,0,0,1-15-12,18.706,18.706,0,0,1-1.3-4c-.2-1.2-.3-2.3-.4-3.5a48.138,48.138,0,0,1,32-48.5Zm19.1,92.8a47.924,47.924,0,0,1-34.4-11.4c11.6,1.6,22.8-2.1,30.4-6.6,15.1,10.5,25,9,29.6,3.5a2.181,2.181,0,0,0,.4-.5,10.209,10.209,0,0,0-2-14.3,10.209,10.209,0,0,0-14.3,2,8.34,8.34,0,0,0-.8,1.2c-.6-.3-1.1-.6-1.7-.9a52.785,52.785,0,0,0,10.3-15,58.925,58.925,0,0,0,2.4-5.8c5,3.7,9.9,9.2,12,15.7a20.83,20.83,0,0,1-2.9,19,20.644,20.644,0,0,1-2.8,3.1h0a48.579,48.579,0,0,1-26.2,10Z" fill="#fff"/>
            <path id="Path_2156" data-name="Path 2156" d="M-90-359.3c-.2,0-.4-.1-.6-.1a14.053,14.053,0,0,0-2.9,0c5.9,3.1,10.1,12.1,7.9,29.5a50.278,50.278,0,0,1-5,16.4A58.417,58.417,0,0,1-99-300.4a44.522,44.522,0,0,0,5.1,3.3,52.785,52.785,0,0,0,10.3-15,52.818,52.818,0,0,0,5-16.4C-76-349.3-82.6-358-90-359.3Z" fill="#fff" opacity="0.9"/>
            <path id="Path_2157" data-name="Path 2157" d="M-85.6-329.8c2.2-17.5-2-26.4-7.9-29.5l-.7.1c5.7,3.3,9.8,12.2,7.6,29.4a50.278,50.278,0,0,1-5,16.4,54.146,54.146,0,0,1-8.1,12.6c.2.1.4.3.6.4a52.612,52.612,0,0,0,8.4-13A52.187,52.187,0,0,0-85.6-329.8Z" fill="#fff" opacity="0.8"/>
            <path id="Path_2158" data-name="Path 2158" d="M-107.9-290.1c-.5-.4-1-.9-1.6-1.3-8.6,3.6-20.6,5.9-32.4,3.1a41.858,41.858,0,0,0,6.5,6.8c11.6,1.6,22.8-2.1,30.4-6.6C-106-288.7-106.9-289.4-107.9-290.1Z" fill="#fff" opacity="0.5"/>
            <path id="Path_2159" data-name="Path 2159" d="M-109.5-291.4l-.8-.6a54.788,54.788,0,0,1-32.6,2.6l.9,1.2C-130.1-285.5-118.1-287.8-109.5-291.4Z" fill="#fff" opacity="0.6"/>
            <path id="Path_2160" data-name="Path 2160" d="M-147.5-309.4c.1.2.1.4.2.6a12.749,12.749,0,0,0,1.5,2.5c-.2-6.6,5.4-14.8,21.6-21.6a52.87,52.87,0,0,1,16.7-3.9,52.833,52.833,0,0,1,15.4.8,40.879,40.879,0,0,0,.3-6.1,53.055,53.055,0,0,0-18.2-1.4,53.515,53.515,0,0,0-16.7,3.9C-145.9-326.5-150.1-316.5-147.5-309.4Z" fill="#fff" opacity="0.9"/>
            <path id="Path_2161" data-name="Path 2161" d="M-124.1-327.9c-16.3,6.8-21.8,15-21.6,21.6.1.2.3.3.5.5,0-6.6,5.6-14.6,21.7-21.3a52.913,52.913,0,0,1,16.6-3.9,57.152,57.152,0,0,1,14.9.7,1.7,1.7,0,0,1,.1-.7,53.2,53.2,0,0,0-15.4-.8,52.836,52.836,0,0,0-16.8,3.9Z" fill="#fff" opacity="0.8"/>
            <path id="Path_2162" data-name="Path 2162" d="M-78.6-328.5l-.3,2.1c7.4,5.7,15.4,14.9,18.9,26.6a46.673,46.673,0,0,0,2.7-9c-4.5-10.9-13.2-18.7-20.9-23A33.1,33.1,0,0,0-78.6-328.5Z" fill="#fff" opacity="0.4"/>
            <path id="Path_2163" data-name="Path 2163" d="M-79-326.5c-.1.3-.1.7-.2,1,7.3,5.8,15.2,15.2,18.5,26.9.2-.5.4-.9.6-1.4C-63.6-311.5-71.6-320.8-79-326.5Z" fill="#fff" opacity="0.5"/>
            <path id="Path_2164" data-name="Path 2164" d="M-75.5-284.6l.4-.5a8.867,8.867,0,0,0,1.4-2.5c-5.7,3.5-15.5,2.7-29.5-8A53.942,53.942,0,0,1-115-308.1a54.349,54.349,0,0,1-7-13.8,45.324,45.324,0,0,0-5.4,2.7,55.562,55.562,0,0,0,7.8,16.5,51.5,51.5,0,0,0,11.7,12.5C-91.2-277.4-80.4-278.8-75.5-284.6Z" fill="#fff" opacity="0.9"/>
            <path id="Path_2165" data-name="Path 2165" d="M-103.3-295.5c14,10.7,23.8,11.4,29.5,8a1.421,1.421,0,0,0,.2-.6c-5.7,3.3-15.4,2.5-29.3-8.1a51.5,51.5,0,0,1-11.7-12.5,52.257,52.257,0,0,1-6.8-13.3l-.6.3a54.349,54.349,0,0,0,7,13.8,52.947,52.947,0,0,0,11.7,12.4Z" fill="#fff" opacity="0.8"/>
            <path id="Path_2166" data-name="Path 2166" d="M-126.5-334.6a14.584,14.584,0,0,1,1.9-.7c1.2-9.3,5.2-20.8,13.6-29.7a49.266,49.266,0,0,0-9.2,2.2c-7.2,9.3-9.6,20.8-9.4,29.6C-128.7-333.7-127.6-334.1-126.5-334.6Z" fill="#fff" opacity="0.3"/>
            <path id="Path_2167" data-name="Path 2167" d="M-124.6-335.3l1-.4c1.3-9.3,5.5-20.7,14-29.5a5.9,5.9,0,0,0-1.4.2C-119.4-356.1-123.4-344.6-124.6-335.3Z" fill="#fff" opacity="0.4"/>
            <path id="Path_2168" data-name="Path 2168" d="M-108.5-378.7A60.867,60.867,0,0,0-150.3-358l-.2.3h0c2,2,8.5,5.9,11.2,7.5a48.346,48.346,0,0,1,19.2-12.6c.5-.7,1-1.3,1.6-2,6.9-7.8,16.3-11.9,27.3-11.9,1.2,0,3.7.2,3.8.2a60.3,60.3,0,0,0-21.1-2.2Z" fill="#fff" opacity="0.4"/>
            <path id="Path_2169" data-name="Path 2169" d="M-101.1-270a47.924,47.924,0,0,1-34.4-11.4h0c-.8-.1-1.7-.3-2.6-.4-10.2-2.1-18.5-8.2-24-17.7a31.823,31.823,0,0,1-1.6-3.2,60.915,60.915,0,0,0,63.4,46C-100.1-259.8-101-267-101.1-270Z" fill="#fff" opacity="0.4"/>
            <path id="Path_2170" data-name="Path 2170" d="M-43.4-321.9a99.059,99.059,0,0,0-13.3.9,48.954,48.954,0,0,1-.7,12.1l.9,2.4c3.3,9.9,2.1,20.1-3.3,29.6-.6,1-1.2,2-1.9,3h0a61.09,61.09,0,0,0,18.3-48Z" fill="#fff" opacity="0.4"/>
            <path id="Path_2171" data-name="Path 2171" d="M-90.6-363a20.1,20.1,0,0,1,4.1.9l.2.1h0A48.641,48.641,0,0,1-72-353h0a34.373,34.373,0,0,1,5.9-4.8,32.071,32.071,0,0,0-15-7.9c-6.3-1.3-20.6-2.6-29.6,12.8l.1-.1a31.548,31.548,0,0,1,2.2-2.9A20.309,20.309,0,0,1-90.6-363Z" fill="#fff" opacity="0.5"/>
            <path id="Path_2172" data-name="Path 2172" d="M-72-283.2a20.644,20.644,0,0,1-2.8,3.1l-.2.1h0a47.5,47.5,0,0,1-14.9,7.9h0a31.729,31.729,0,0,1,1.2,7.5,32.063,32.063,0,0,0,14.3-9c4.3-4.8,12.6-16.6,3.8-32v.1a23.294,23.294,0,0,1,1.4,3.3A20.8,20.8,0,0,1-72-283.2Z" fill="#fff" opacity="0.5"/>
            <path id="Path_2173" data-name="Path 2173" d="M-150.4-307a18.706,18.706,0,0,1-1.3-4v-.2h0a48.1,48.1,0,0,1,.7-16.9h0a33.863,33.863,0,0,1-7.1-2.8,32.32,32.32,0,0,0,.6,16.9c2,6.1,8.1,19.2,25.9,19.3h-.1c-1.2-.1-2.4-.2-3.6-.4A20.619,20.619,0,0,1-150.4-307Z" fill="#fff" opacity="0.5"/>
            <path id="Path_2174" data-name="Path 2174" d="M-93.2-339.1a7.084,7.084,0,0,0,1.4.1,78.127,78.127,0,0,0-1-9.6c-.8-3.3-1.9-5.4-3.1-6.6-.9-.9-3.8-2-6,4.8A10.082,10.082,0,0,0-93.2-339.1Z" fill="#fff" opacity="0.6"/>
            <path id="Path_2175" data-name="Path 2175" d="M-128.4-316.7a8.264,8.264,0,0,0-.7-1.3,71.608,71.608,0,0,0-7.8,5.8,14.792,14.792,0,0,0-4.2,6.1c-.3,1.2.2,4.2,7.1,2.8a9.9,9.9,0,0,0,5.5-5.5A10.779,10.779,0,0,0-128.4-316.7Z" fill="#fff" opacity="0.5"/>
            <path id="Path_2176" data-name="Path 2176" d="M-91.4-297.4a8.34,8.34,0,0,0-.8,1.2,70.551,70.551,0,0,0,8.9,3.9,13.964,13.964,0,0,0,7.3.6c1.3-.3,3.7-2.3-1.1-7.5a10.373,10.373,0,0,0-7.6-2A9.093,9.093,0,0,0-91.4-297.4Z" fill="#fff" opacity="0.6"/>
            <path id="Path_2177" data-name="Path 2177" d="M-93.6-323.8a45.1,45.1,0,0,1-5.3,11.6,1,1,0,0,1-.4.5h0a43.813,43.813,0,0,1-5.2,6.2,46.806,46.806,0,0,0,4.6,4.3,48.143,48.143,0,0,0,6,4,52.785,52.785,0,0,0,10.3-15,58.925,58.925,0,0,0,2.4-5.8,33.517,33.517,0,0,0-6.3-3.7c-2-.8-4.1-1.5-6.1-2.1Z" fill="#fff" opacity="0.3"/>
            <path id="Path_2178" data-name="Path 2178" d="M-135.5-281.5c11.6,1.6,22.8-2.1,30.4-6.6-.9-.6-1.8-1.3-2.8-2a50.9,50.9,0,0,1-7.9-7.5c-5.8,2.5-12.9,4-19.6,2.6a20.632,20.632,0,0,1-15-12,18.706,18.706,0,0,1-1.3-4,47.862,47.862,0,0,0,16.2,29.5Z" fill="#fff" opacity="0.3"/>
            <path id="Path_2179" data-name="Path 2179" d="M-104.5-305.4a44.318,44.318,0,0,1-7.3-10.4l-.3-.6h0a43.062,43.062,0,0,1-2.7-7.6q-3,.75-6,1.8a55.138,55.138,0,0,0-6.5,3.1,55.562,55.562,0,0,0,7.8,16.5,59.866,59.866,0,0,0,3.8,5,35.465,35.465,0,0,0,6.3-3.6A64.034,64.034,0,0,0-104.5-305.4Z" fill="#fff" opacity="0.3"/>
            <path id="Path_2180" data-name="Path 2180" d="M-120.2-362.8c-7.2,9.3-9.6,20.8-9.4,29.6,1-.5,2.1-.9,3.1-1.4a48.648,48.648,0,0,1,10.5-3.1c.7-6.2,3-13.2,7.5-18.3a20.905,20.905,0,0,1,17.9-7,20.1,20.1,0,0,1,4.1.9l.2.1h0a47.734,47.734,0,0,0-33.9-.8Z" fill="#fff" opacity="0.3"/>
            <path id="Path_2181" data-name="Path 2181" d="M-57.4-308.9c-4.4-10.8-13.2-18.7-20.9-23-.1,1-.2,2.2-.4,3.4a54.5,54.5,0,0,1-2.5,10.6c5,3.7,9.9,9.2,12,15.7a20.83,20.83,0,0,1-2.9,19,20.644,20.644,0,0,1-2.8,3.1h0a47.44,47.44,0,0,0,17.5-28.8Z" fill="#fff" opacity="0.3"/>
            <path id="Path_2182" data-name="Path 2182" d="M-116.1-330.3q.45,3.15,1.2,6.3a44.927,44.927,0,0,1,12.7-1.2h.6a43.23,43.23,0,0,1,8,1.4,41.539,41.539,0,0,0,1.4-6.1,55.187,55.187,0,0,0,.5-7.1,55.691,55.691,0,0,0-18.2-1.5,42.034,42.034,0,0,0-6.2.8,30.532,30.532,0,0,0,0,7.4Z" fill="#fff" opacity="0.3"/>
          </g>
        </g>
      </g>
      <text id="astar" transform="translate(16015 15538)" fill="#fff" font-size="50" font-family="AvenirNext-Bold, Avenir Next" font-weight="700"><tspan x="0" y="0">ASTAR</tspan></text>
    </g>
    <rect id="Rectangle_678" data-name="Rectangle 678" width="297" height="297" transform="translate(15947 15309)" fill="#fff" opacity="0"/>
  </g>
</svg>
