<svg id="pool" xmlns="http://www.w3.org/2000/svg" viewBox="0 0 601 159.9"><defs><style>.cls-1{isolation:isolate;}.cls-2{fill:#ddd;}</style></defs><g id="p_l" data-name="p l" class="cls-1"><g class="cls-1"><path class="cls-2" d="M0,2.1H44A85.4,85.4,0,0,1,65.6,4.6a47.9,47.9,0,0,1,16.6,7.7,34.4,34.4,0,0,1,10.6,13,41.8,41.8,0,0,1,3.8,18.3A40.6,40.6,0,0,1,92.7,62,34.8,34.8,0,0,1,81.9,75a49.6,49.6,0,0,1-16.7,7.8,81,81,0,0,1-21.6,2.6H15.8v72.4H0ZM15.8,72H42.7c12.4,0,21.9-2.4,28.4-7.2s9.6-11.9,9.6-21.2-3.3-16.7-10-21.2-16-6.7-28-6.7H15.8Z"/><path class="cls-2" d="M528.4,143.7H601v14.1H512.6V2.1h15.8Z"/></g></g><g id="Component_5_82" data-name="Component 5 82"><ellipse id="Ellipse_5" data-name="Ellipse 5" class="cls-2" cx="210" cy="17" rx="27.3" ry="17"/><ellipse id="Ellipse_33" data-name="Ellipse 33" class="cls-2" cx="208.4" cy="142.8" rx="27.3" ry="17"/><ellipse id="Ellipse_30" data-name="Ellipse 30" class="cls-2" cx="263.4" cy="47.8" rx="16.9" ry="27.6" transform="translate(11.4 138.1) rotate(-30)"/><ellipse id="Ellipse_32" data-name="Ellipse 32" class="cls-2" cx="153.7" cy="111.9" rx="16.9" ry="27.6" transform="translate(-35.4 91.8) rotate(-30)"/><ellipse id="Ellipse_31" data-name="Ellipse 31" class="cls-2" cx="156.5" cy="48.5" rx="27.6" ry="16.8" transform="translate(36.3 159.8) rotate(-60)"/><ellipse id="Ellipse_34" data-name="Ellipse 34" class="cls-2" cx="263.3" cy="115.1" rx="27.6" ry="16.8" transform="translate(31.9 285.6) rotate(-60)"/></g><g id="Component_5_83" data-name="Component 5 83"><ellipse id="Ellipse_5-2" data-name="Ellipse 5-2" class="cls-2" cx="393" cy="17" rx="27.3" ry="17"/><ellipse id="Ellipse_33-2" data-name="Ellipse 33-2" class="cls-2" cx="391.4" cy="142.8" rx="27.3" ry="17"/><ellipse id="Ellipse_30-2" data-name="Ellipse 30-2" class="cls-2" cx="446.4" cy="47.8" rx="16.9" ry="27.6" transform="translate(35.9 229.6) rotate(-30)"/><ellipse id="Ellipse_32-2" data-name="Ellipse 32-2" class="cls-2" cx="336.7" cy="111.9" rx="16.9" ry="27.6" transform="translate(-10.9 183.3) rotate(-30)"/><ellipse id="Ellipse_31-2" data-name="Ellipse 31-2" class="cls-2" cx="339.5" cy="48.5" rx="27.6" ry="16.8" transform="translate(127.8 318.3) rotate(-60)"/><ellipse id="Ellipse_34-2" data-name="Ellipse 34-2" class="cls-2" cx="446.3" cy="115.1" rx="27.6" ry="16.8" transform="translate(123.4 444) rotate(-60)"/></g></svg>