<svg xmlns="http://www.w3.org/2000/svg" width="214.305" height="214.702" viewBox="0 0 214.305 214.702"><g transform="translate(-5 -4)"><g transform="translate(5 4)"><path d="M25.2,25.3V172.85H172.75V25.3ZM98.975,169.274a70.2,70.2,0,1,1,70.2-70.2A70.15,70.15,0,0,1,98.975,169.274Z" transform="translate(8.177 8.21)" fill="#fff"/><g transform="translate(0.795)"><path d="M.6,0V27.947H14.64A14.019,14.019,0,0,1,.6,14.04a14.04,14.04,0,1,1,28.079,0,13.963,13.963,0,0,1-14.04,14.04h14.04V0Z" transform="translate(-0.6)" fill="#fff"/><path d="M13.666,3A10.066,10.066,0,1,0,23.732,13.066,10.062,10.062,0,0,0,13.666,3Z" transform="translate(0.374 0.974)" fill="#fff"/></g><g transform="translate(0 37.351)"><path d="M0,28.2V56.147H14.04a13.974,13.974,0,1,1,0-27.947,14.04,14.04,0,0,1,0,28.079h14.04V28.2Z" transform="translate(0 -28.2)" fill="#fff"/><path d="M13.066,31.1A10.066,10.066,0,1,0,23.132,41.166,10.062,10.062,0,0,0,13.066,31.1Z" transform="translate(0.974 -27.259)" fill="#fff"/><path d="M0,84.379H14.04a14.04,14.04,0,1,1,0-28.079,14.04,14.04,0,1,1,0,28.079h14.04V56.432H0Z" transform="translate(0 -19.081)" fill="#fff"/><path d="M13.066,59.3A10.066,10.066,0,1,0,23.132,69.366,10.062,10.062,0,0,0,13.066,59.3Z" transform="translate(0.974 -18.108)" fill="#fff"/><path d="M0,112.579H14.04a14.04,14.04,0,1,1,14.04-14.04,14.047,14.047,0,0,1-14.04,14.04h14.04V84.632H0Z" transform="translate(0 -9.93)" fill="#fff"/><path d="M13.066,87.5A10.066,10.066,0,1,0,23.132,97.566,10.062,10.062,0,0,0,13.066,87.5Z" transform="translate(0.974 -8.957)" fill="#fff"/><path d="M0,140.647H14.04a13.974,13.974,0,1,1,0-27.947,14.04,14.04,0,0,1,0,28.079h14.04V112.832H0v27.815Z" transform="translate(0 -0.779)" fill="#fff"/><path d="M13.066,115.7a10.066,10.066,0,1,0,10.066,10.066A10.062,10.062,0,0,0,13.066,115.7Z" transform="translate(0.974 0.194)" fill="#fff"/></g><g transform="translate(74.967)"><path d="M56.6,0V14.04a14.04,14.04,0,1,1,14.04,14.04A14.047,14.047,0,0,1,56.6,14.04v14.04H84.547V0Z" transform="translate(-56.6)" fill="#fff"/><path d="M69.666,23.132A10.066,10.066,0,1,0,59.6,13.066,10.062,10.062,0,0,0,69.666,23.132Z" transform="translate(-55.626 0.974)" fill="#fff"/></g><g transform="translate(37.881)"><path d="M28.6,0V14.04a14.04,14.04,0,1,1,14.04,14.04A14.047,14.047,0,0,1,28.6,14.04v14.04H56.547V0Z" transform="translate(-28.6)" fill="#fff"/><path d="M41.666,23.132A10.066,10.066,0,1,0,31.6,13.066,10.062,10.062,0,0,0,41.666,23.132Z" transform="translate(-27.626 0.974)" fill="#fff"/></g><g transform="translate(0.795 186.49)"><path d="M.6,168.879H14.64a14.04,14.04,0,1,1,14.04-14.04,14.047,14.047,0,0,1-14.04,14.04h14.04V140.932H.6Z" transform="translate(-0.6 -140.8)" fill="#fff"/><path d="M13.666,143.8a10.066,10.066,0,1,0,10.066,10.066A10.062,10.062,0,0,0,13.666,143.8Z" transform="translate(0.374 -139.826)" fill="#fff"/><path d="M112.6,140.9v14.04a14.04,14.04,0,1,1,14.04,14.04,14.047,14.047,0,0,1-14.04-14.04v14.04h27.947V141.032H112.6Z" transform="translate(35.744 -140.768)" fill="#fff"/><path d="M125.666,163.932A10.066,10.066,0,1,0,115.6,153.866a10.062,10.062,0,0,0,10.066,10.066Z" transform="translate(36.718 -139.826)" fill="#fff"/><path d="M84.6,154.84a14.04,14.04,0,1,1,14.04,14.04A14.047,14.047,0,0,1,84.6,154.84v14.04h27.947V140.932H84.6V154.84Z" transform="translate(26.658 -140.8)" fill="#fff"/><path d="M97.666,163.932A10.066,10.066,0,1,0,87.6,153.866,10.062,10.062,0,0,0,97.666,163.932Z" transform="translate(27.632 -139.826)" fill="#fff"/><path d="M56.6,154.84a14.04,14.04,0,1,1,14.04,14.04A14.047,14.047,0,0,1,56.6,154.84v14.04H84.547V140.932H56.6V154.84Z" transform="translate(17.572 -140.8)" fill="#fff"/><path d="M69.666,163.932A10.066,10.066,0,1,0,59.6,153.866,10.062,10.062,0,0,0,69.666,163.932Z" transform="translate(18.546 -139.826)" fill="#fff"/><path d="M28.6,154.84a14.04,14.04,0,1,1,14.04,14.04A14.047,14.047,0,0,1,28.6,154.84v14.04H56.547V140.932H28.6V154.84Z" transform="translate(8.486 -140.8)" fill="#fff"/><path d="M41.666,163.932A10.066,10.066,0,1,0,31.6,153.866,10.062,10.062,0,0,0,41.666,163.932Z" transform="translate(9.46 -139.826)" fill="#fff"/></g><g transform="translate(112.053)"><path d="M112.6,14.04a14.04,14.04,0,1,1,14.04,14.04A14.047,14.047,0,0,1,112.6,14.04v14.04h27.947V0H112.6V14.04Z" transform="translate(-75.514)" fill="#fff"/><path d="M125.666,23.132A10.066,10.066,0,1,0,115.6,13.066a10.062,10.062,0,0,0,10.066,10.066Z" transform="translate(-74.54 0.974)" fill="#fff"/><path d="M84.6,14.04a14.04,14.04,0,1,1,14.04,14.04A14.047,14.047,0,0,1,84.6,14.04v14.04h27.947V0H84.6Z" transform="translate(-84.6)" fill="#fff"/><path d="M97.666,23.132A10.066,10.066,0,1,0,87.6,13.066,10.062,10.062,0,0,0,97.666,23.132Z" transform="translate(-83.626 0.974)" fill="#fff"/><path d="M140.6,0V27.947h14.04A13.974,13.974,0,1,1,154.64,0a14.04,14.04,0,1,1,0,28.079h14.04V0H140.6Z" transform="translate(-66.428)" fill="#fff"/><path d="M153.666,3a10.066,10.066,0,1,0,10.066,10.066A10.062,10.062,0,0,0,153.666,3Z" transform="translate(-65.454 0.974)" fill="#fff"/></g><g transform="translate(185.431 37.351)"><path d="M140,42.24a14.04,14.04,0,1,1,14.04,14.04h14.04V28.2H140.132V56.147h14.04a14.047,14.047,0,0,1-14.04-14.04Z" transform="translate(-140 -28.2)" fill="#fff"/><path d="M153.066,31.1a10.066,10.066,0,1,0,10.066,10.066A10.062,10.062,0,0,0,153.066,31.1Z" transform="translate(-139.026 -27.259)" fill="#fff"/><path d="M140,70.34a14.04,14.04,0,1,1,14.04,14.04h14.04V56.432H140.132V84.379h14.04a14.047,14.047,0,0,1-14.04-14.04Z" transform="translate(-140 -19.081)" fill="#fff"/><path d="M153.066,59.3a10.066,10.066,0,1,0,10.066,10.066A10.062,10.062,0,0,0,153.066,59.3Z" transform="translate(-139.026 -18.108)" fill="#fff"/><path d="M140,98.54a14.04,14.04,0,1,1,14.04,14.04h14.04V84.632H140.132v27.947h14.04a14.047,14.047,0,0,1-14.04-14.04Z" transform="translate(-140 -9.93)" fill="#fff"/><path d="M153.066,87.5a10.066,10.066,0,1,0,10.066,10.066A10.062,10.062,0,0,0,153.066,87.5Z" transform="translate(-139.026 -8.957)" fill="#fff"/><path d="M140,126.74a14.04,14.04,0,1,1,14.04,14.04h14.04V112.832H140.132V140.78h14.04a14.047,14.047,0,0,1-14.04-14.04Z" transform="translate(-140 -0.779)" fill="#fff"/><path d="M153.066,115.7a10.066,10.066,0,1,0,10.066,10.066A10.062,10.062,0,0,0,153.066,115.7Z" transform="translate(-139.026 0.194)" fill="#fff"/><path d="M140.6,140.932v27.947h14.04a14.04,14.04,0,1,1,14.04-14.04,14.047,14.047,0,0,1-14.04,14.04h14.04V140.932H140.6Z" transform="translate(-139.805 8.339)" fill="#fff"/><path d="M153.666,143.8a10.066,10.066,0,1,0,10.066,10.066A10.062,10.062,0,0,0,153.666,143.8Z" transform="translate(-138.832 9.313)" fill="#fff"/></g><g transform="matrix(0.998, -0.07, 0.07, 0.998, 51.27, 57.768)"><ellipse cx="18.278" cy="10.596" rx="18.278" ry="10.596" transform="translate(47.884 88.094) rotate(-25)" fill="#fff"/><ellipse cx="18.278" cy="10.596" rx="18.278" ry="10.596" transform="translate(14.028 15.449) rotate(-25)" fill="#fff"/><ellipse cx="10.596" cy="18.278" rx="10.596" ry="18.278" transform="matrix(0.574, -0.819, 0.819, 0.574, 53.956, 18.884)" fill="#fff"/><ellipse cx="18.278" cy="10.596" rx="18.278" ry="10.596" transform="translate(0 67.447) rotate(-85)" fill="#fff"/><ellipse cx="18.278" cy="10.596" rx="18.278" ry="10.596" transform="translate(79.926 74.456) rotate(-85)" fill="#fff"/><ellipse cx="10.596" cy="18.278" rx="10.596" ry="18.278" transform="matrix(0.574, -0.819, 0.819, 0.574, 8.216, 84.645)" fill="#fff"/></g></g></g></svg>