<svg xmlns="http://www.w3.org/2000/svg" width="325" height="391" viewBox="0 0 325 391"><g transform="translate(0 -193.699)"><g transform="translate(160 277)"><circle cx="13" cy="13" r="13" transform="translate(70 29)" fill="#ddd"/><circle cx="13" cy="13" r="13" transform="translate(70)" fill="#ddd"/><circle cx="13" cy="13" r="13" transform="translate(69 57)" fill="#ddd"/><circle cx="13" cy="13" r="13" transform="translate(83 85)" fill="#ddd"/><circle cx="13" cy="13" r="13" transform="translate(91 113)" fill="#ddd"/><circle cx="13" cy="13" r="13" transform="translate(108 142)" fill="#ddd"/><circle cx="13" cy="13" r="13" transform="translate(55 85)" fill="#ddd"/><circle cx="13" cy="13" r="13" transform="translate(45 113)" fill="#ddd"/><circle cx="13" cy="13" r="13" transform="translate(31 142)" fill="#ddd"/><circle cx="13" cy="13" r="13" transform="translate(18 169)" fill="#ddd"/><circle cx="13" cy="13" r="13" transform="translate(0 194)" fill="#ddd"/><circle cx="13" cy="13" r="13" transform="translate(120 169)" fill="#ddd"/><circle cx="13" cy="13" r="13" transform="translate(139 194)" fill="#ddd"/><circle cx="13" cy="13" r="13" transform="translate(55 160)" fill="#ddd"/><circle cx="13" cy="13" r="13" transform="translate(84 160)" fill="#ddd"/></g><text transform="translate(0 479.699)" fill="#ddd" font-size="286" font-family="AvenirNext-Regular, Avenir Next"><tspan x="0" y="0">P</tspan></text></g></svg>