<svg xmlns="http://www.w3.org/2000/svg" width="406" height="389" viewBox="0 0 406 389"><g transform="translate(-1071.17 -277.541)"><text transform="translate(1071.17 562.541)" fill="#ddd" font-size="285" font-family="AvenirNext-Regular, Avenir Next"><tspan x="0" y="0">RIS</tspan></text><path d="M-8.389-3.02A51.289,51.289,0,0,1-2.3-7.283C1.025-9.237,1.28-9.325,4.4-10.9s2.688-.419,5.783-2.677,5.1-4.732,6.85-5.379a7.075,7.075,0,0,1,6.386.537,19.509,19.509,0,0,1,5.224,4.371s-3.21-.77-6.61,3.518S19.668-.015,13.3,3.6c-2.412,1.37-7.687,3.423-9.429,5.285a4.686,4.686,0,0,0,0,6.462c1.888,2,5.584,3.187,5.825,4.167.161.651-2.313.415-4.444.42a10.631,10.631,0,0,0-3,.661,1.785,1.785,0,0,0,.961-2.873C2.657,16.8.963,16.677-.215,15.35a11.115,11.115,0,0,1-1.829-3.769,6.592,6.592,0,0,1-4.2,0s1.328-2.333-5.4-.508S-31.1,17.217-31.1,17.217l-.924-.785-4.258,1.293,3.269-2.812-3.269.437s4.192-2.578,9.031-4.973c3.428-1.7,7.44-3.128,9.16-4.318,1.132-.783,1.415-.406.937-.781-.323-.436-3.669-.625-3.669-.625Z" transform="translate(1265.083 340.481)" fill="#ddd"/></g></svg>