<svg id="Component_129_1" data-name="Component 129 1" xmlns="http://www.w3.org/2000/svg" viewBox="0 0 325 223.8"><defs><style>.cls-1{isolation:isolate;}.cls-2{fill:#ddd;}</style></defs><g id="S" class="cls-1"><g class="cls-1"><path class="cls-2" d="M116.1,40.2A52,52,0,0,0,98.4,24.7c-7.2-3.9-15.9-5.8-26.1-5.8a55.8,55.8,0,0,0-15.9,2.4,46,46,0,0,0-14.7,7.3A39.3,39.3,0,0,0,31,41.1a37.9,37.9,0,0,0-4,17.7Q27,69,30.9,75.6A36.6,36.6,0,0,0,41.2,86.8a60.2,60.2,0,0,0,14.7,7.7l17.2,6c7.4,2.4,14.8,5,22.3,7.8a81.7,81.7,0,0,1,20.2,10.9,54,54,0,0,1,14.6,17.1c3.8,6.9,5.7,15.7,5.7,26.3s-2,19.7-6.1,27.4a57.8,57.8,0,0,1-15.7,19.1A66.6,66.6,0,0,1,92,220.2a90.7,90.7,0,0,1-25.1,3.6,96.3,96.3,0,0,1-19.2-2A86.7,86.7,0,0,1,29.4,216a74.8,74.8,0,0,1-16.2-9.9A72,72,0,0,1,0,192.3l18.6-13.8a56.1,56.1,0,0,0,19.4,19c8.2,5.1,18,7.7,29.2,7.7a56.7,56.7,0,0,0,16.5-2.6,46.6,46.6,0,0,0,15.2-7.8A44.7,44.7,0,0,0,110,181.9a36.3,36.3,0,0,0,4.3-17.8c0-7.4-1.5-13.6-4.3-18.5a40,40,0,0,0-11.6-12.3,70.6,70.6,0,0,0-16.5-8.2q-9.3-3.3-19.5-6.6T41.7,111a70.2,70.2,0,0,1-18.3-11,49.5,49.5,0,0,1-13-16.6c-3.4-6.6-5-14.7-5-24.3s2-19,6.1-26.4A55.8,55.8,0,0,1,27.6,14.4,67.2,67.2,0,0,1,49.5,3.9,89.1,89.1,0,0,1,73.2.6c14.4,0,26.7,2.5,36.9,7.6S128,19.4,133.2,26.4Z"/></g></g><g id="Component_128_2" data-name="Component 128 2"><ellipse id="Ellipse_8" data-name="Ellipse 8" class="cls-2" cx="239.5" cy="212.6" rx="10.3" ry="10.4"/><ellipse id="Ellipse_9" data-name="Ellipse 9" class="cls-2" cx="239.5" cy="187.4" rx="10.3" ry="10.4"/><ellipse id="Ellipse_10" data-name="Ellipse 10" class="cls-2" cx="239.5" cy="162.2" rx="10.3" ry="10.4"/><ellipse id="Ellipse_11" data-name="Ellipse 11" class="cls-2" cx="239.5" cy="137.1" rx="10.3" ry="10.4"/><ellipse id="Ellipse_12" data-name="Ellipse 12" class="cls-2" cx="239.5" cy="111.9" rx="10.3" ry="10.4"/><ellipse id="Ellipse_13" data-name="Ellipse 13" class="cls-2" cx="239.5" cy="86.7" rx="10.3" ry="10.4"/><ellipse id="Ellipse_14" data-name="Ellipse 14" class="cls-2" cx="239.5" cy="61.5" rx="10.3" ry="10.4"/><ellipse id="Ellipse_15" data-name="Ellipse 15" class="cls-2" cx="239.5" cy="36.3" rx="10.3" ry="10.4"/><ellipse id="Ellipse_16" data-name="Ellipse 16" class="cls-2" cx="239.5" cy="11.1" rx="10.3" ry="10.4"/><ellipse id="Ellipse_17" data-name="Ellipse 17" class="cls-2" cx="264.6" cy="10.4" rx="10.3" ry="10.4"/><ellipse id="Ellipse_20" data-name="Ellipse 20" class="cls-2" cx="214.4" cy="10.4" rx="10.3" ry="10.4"/><ellipse id="Ellipse_3783" data-name="Ellipse 3783" class="cls-2" cx="314.7" cy="10.4" rx="10.3" ry="10.4"/><ellipse id="Ellipse_21" data-name="Ellipse 21" class="cls-2" cx="189.4" cy="10.4" rx="10.3" ry="10.4"/><ellipse id="Ellipse_3784" data-name="Ellipse 3784" class="cls-2" cx="289.6" cy="10.4" rx="10.3" ry="10.4"/><ellipse id="Ellipse_22" data-name="Ellipse 22" class="cls-2" cx="164.3" cy="10.4" rx="10.3" ry="10.4"/></g></svg>