<svg xmlns="http://www.w3.org/2000/svg" width="25.999" height="42" viewBox="0 0 25.999 42"><g transform="translate(0.92)"><path d="M.529,0H10.577l2.11,18.312H-1.167Z" transform="translate(6.78 22.542)" fill="#fff"/><rect width="19.934" height="4.755" rx="2" transform="translate(2.573 37.245)" fill="#fff"/><path d="M-2.924,0h18.7a3.18,3.18,0,0,1,3.189,3.17l-3.189,8.3c0,1.751-4.091,2.8-5.852,2.8H1.951c-1.761,0-5.685-1.045-5.685-2.8l-2.379-8.3A3.18,3.18,0,0,1-2.924,0Z" transform="translate(6.113 13.472)" fill="#fff"/><path d="M-13758.937-23395.17l-4.129-8.131s-3.443-5.887,2.811-5.764,8.54.146,8.54.146" transform="translate(13764.092 23410.598)" fill="none" stroke="#fff" stroke-width="2"/><rect width="7.762" height="3.429" rx="1" transform="translate(8.4)" fill="#fff"/></g></svg>