<svg xmlns="http://www.w3.org/2000/svg" width="34.047" height="32.129" viewBox="0 0 34.047 32.129"><path d="M1.028.008l2.43.019L4.953,23.161A2.946,2.946,0,0,1,4.7,24.828a2.326,2.326,0,0,1-1.337.805L1.7,25.62a2.192,2.192,0,0,1-1.255-.826,3.119,3.119,0,0,1-.229-1.671Z" transform="translate(20.485 10.482) rotate(45)" fill="#fff"/><path d="M1.028-.008l2.43-.019L4.585,23.086A2.981,2.981,0,0,1,4.3,24.757a2.419,2.419,0,0,1-1.35.827L1.291,25.6a2.1,2.1,0,0,1-1.242-.806,3.09,3.09,0,0,1-.2-1.667Z" transform="translate(8.766 13.896) rotate(-45)" fill="#fff"/><path d="M1.08,1.258,2.19,11.15l.339,0L3.3.026,4.573,11.169l.39,0L6.211,1.3s1.427,6.44.761,9.888-1.425,3.92-1.425,3.92L2.3,15.082S.679,14.591.182,11.134,1.08,1.258,1.08,1.258Z" transform="translate(29.011 -0.072) rotate(45)" fill="#fff"/><path d="M1,2.541S2.189-.017,3.472-.028,6.128,2.5,6.128,2.5s1.4,4.112.683,6.916-1.867,3.2-1.867,3.2l-2.858.023S.468,12.264.021,9.47,1,2.541,1,2.541Z" transform="translate(0.066 6.952) rotate(-45)" fill="#fff"/></svg>