<svg xmlns="http://www.w3.org/2000/svg" width="32.467" height="35.552" viewBox="0 0 32.467 35.552"><path d="M23.243,1.928h1.378V17.777c0,1.9-2.16,3.445-4.823,3.445s-4.823-1.543-4.823-3.445,2.16-3.445,4.823-3.445a5.892,5.892,0,0,1,3.445,1.034V5.3L12.218,7.753V20.533c0,1.9-2.16,3.445-4.823,3.445s-4.823-1.543-4.823-3.445,2.16-3.445,4.823-3.445a5.892,5.892,0,0,1,3.445,1.034V4.684l12.4-2.756Z" transform="translate(-2.571 11.574)" fill="#fff"/><path d="M10.522,0h.7V8.067c0,.969-1.1,1.754-2.455,1.754S6.313,9.035,6.313,8.067s1.1-1.754,2.455-1.754a3,3,0,0,1,1.754.527V1.718L4.91,2.965v6.5c0,.969-1.1,1.754-2.455,1.754S0,10.438,0,9.47,1.1,7.716,2.455,7.716a3,3,0,0,1,1.754.527V1.4L10.522,0Z" transform="translate(22.38 0) rotate(26)" fill="#fff"/></svg>