<svg xmlns="http://www.w3.org/2000/svg" width="32.916" height="25.753" viewBox="0 0 32.916 25.753"><path d="M0-74.046,5.324-77.06v5.525L0-68.561Z" transform="translate(27.591 92.1)" fill="#e9e9e9"/><path d="M0-74.046,5.324-77.06v5.525L0-68.561Z" transform="translate(7.677 80.026)" fill="#e9e9e9"/><path d="M.057,2.835,4.824.064l.084,6.049L.117,8.879Z" transform="translate(30.059 19.395) rotate(120)" fill="#434343"/><path d="M.057,2.835,4.824.064l.084,6.049L.117,8.879Z" transform="translate(10.144 7.319) rotate(120)" fill="#434343"/><path d="M-71.7-43.891l5.342-2.992,5.3,2.965-5.33,3.017Z" transform="translate(93.976 58.959)" fill="#818181"/><path d="M-71.7-43.891l5.342-2.992,5.3,2.965-5.33,3.017Z" transform="translate(74.062 46.883)" fill="#818181"/><path d="M0-71.507,9.81-77.06v10.181L0-61.4Z" transform="translate(14.943 87.018)" fill="#e9e9e9"/><path d="M.105,5.224,8.888.119l.155,11.146-8.828,5.1Z" transform="translate(19.491 17.981) rotate(120)" fill="#434343"/><path d="M-71.7-41.37l9.843-5.513,9.757,5.463-9.82,5.559Z" transform="translate(76.851 51.379)" fill="#818181"/><path d="M-71.7-43.891l5.342-2.992,5.3,2.965-5.33,3.017Z" transform="translate(74.061 61.041)" fill="#818181"/><path d="M0-74.046,5.324-77.06v5.525L0-68.561Z" transform="translate(7.676 94.183)" fill="#e9e9e9"/><path d="M.057,2.835,4.824.064l.084,6.049L.117,8.879Z" transform="translate(10.144 21.476) rotate(120)" fill="#434343"/></svg>