<?xml version="1.0" standalone="no"?>
<!DOCTYPE svg PUBLIC "-//W3C//DTD SVG 20010904//EN"
 "http://www.w3.org/TR/2001/REC-SVG-20010904/DTD/svg10.dtd">
<svg version="1.0" xmlns="http://www.w3.org/2000/svg"
 width="412.000000pt" height="412.000000pt" viewBox="0 0 412.000000 412.000000"
 preserveAspectRatio="xMidYMid meet">
<metadata>
Created by potrace 1.14, written by Peter Selinger 2001-2017
</metadata>
<g transform="translate(0.000000,412.000000) scale(0.100000,-0.100000)"
fill="#000000" stroke="none">
<path d="M1909 4116 c-2 -2 -35 -6 -74 -10 -116 -11 -145 -16 -284 -52 -739
-192 -1299 -752 -1486 -1488 -18 -72 -36 -156 -40 -186 -4 -30 -10 -82 -15
-115 -9 -64 -6 -420 3 -445 3 -8 8 -37 11 -65 3 -27 8 -61 11 -75 3 -14 8 -38
11 -55 3 -16 19 -77 35 -135 200 -690 745 -1227 1434 -1415 52 -15 103 -28
113 -29 103 -19 158 -27 217 -35 72 -9 403 -7 465 4 19 3 64 10 100 16 786
131 1434 724 1639 1499 35 131 38 146 56 290 17 133 12 432 -9 556 -128 748
-612 1344 -1309 1610 -110 42 -328 100 -412 110 -33 3 -69 9 -80 11 -23 5
-381 13 -386 9z m376 -129 c11 -3 43 -8 70 -12 28 -3 97 -17 155 -31 507 -118
941 -436 1215 -889 40 -67 78 -143 135 -270 37 -84 104 -328 115 -421 3 -27 8
-60 12 -74 9 -39 11 -348 3 -415 -4 -33 -11 -85 -15 -115 -8 -67 -49 -233 -77
-315 -143 -421 -414 -773 -782 -1012 -141 -92 -413 -215 -526 -238 -8 -2 -55
-13 -105 -25 -49 -11 -99 -23 -110 -25 -80 -19 -383 -25 -537 -12 -101 9 -295
54 -423 99 -411 143 -768 429 -1003 805 -124 198 -238 503 -267 715 -21 153
-27 413 -12 523 3 28 9 70 12 95 7 52 50 227 70 285 45 130 60 169 100 250
253 522 728 906 1280 1036 123 29 124 29 175 36 25 3 63 8 85 12 48 9 402 7
430 -2z"/>
<path d="M1910 3949 c-90 -8 -146 -15 -180 -23 -14 -3 -36 -8 -50 -10 -125
-21 -400 -113 -400 -134 0 -4 176 -183 390 -397 l390 -390 394 394 394 394
-36 18 c-112 54 -374 123 -547 145 -72 8 -268 10 -355 3z"/>
<path d="M1940 2924 c-6 -14 -10 -28 -10 -32 1 -13 -145 -301 -152 -301 -5 -1
-8 12 -8 28 0 16 -5 42 -10 56 -9 23 -13 25 -25 15 -8 -7 -12 -16 -9 -21 3 -5
-9 -9 -25 -9 -26 0 -31 -4 -31 -25 0 -15 6 -25 14 -25 9 0 12 -7 9 -19 -4 -16
-8 -18 -23 -9 -14 9 -16 20 -13 49 5 31 2 38 -14 41 -18 3 -18 4 -1 21 17 16
18 16 18 -3 0 -15 7 -20 25 -20 30 0 35 33 8 49 -17 10 -17 10 0 11 9 0 17 6
18 13 0 6 4 2 9 -10 5 -13 14 -23 19 -23 18 0 -9 47 -34 60 -30 16 -48 4 -42
-26 2 -13 0 -24 -4 -24 -5 0 -9 7 -9 15 0 7 -8 19 -17 24 -17 10 -17 10 0 11
10 0 20 6 23 14 3 9 12 12 22 9 9 -4 2 9 -15 27 -18 18 -36 49 -39 67 -7 36
-15 41 -33 19 -8 -10 -6 -19 10 -40 16 -20 17 -26 6 -26 -9 0 -18 -6 -20 -12
-3 -8 -6 -6 -6 5 -1 9 -6 17 -13 17 -9 0 -9 3 0 12 14 14 16 28 4 28 -13 0
-45 -68 -39 -84 10 -26 -11 -18 -63 23 -35 28 -67 43 -107 51 -32 7 -91 22
-130 34 -76 23 -107 20 -84 -7 8 -10 9 -17 2 -22 -7 -4 -6 -16 4 -36 9 -16 20
-27 25 -24 20 12 25 -30 27 -220 1 -110 4 -222 6 -250 3 -27 8 -81 11 -120 3
-38 8 -81 11 -95 3 -14 8 -47 12 -75 3 -27 10 -55 15 -62 8 -10 15 -55 17
-110 1 -6 8 -19 17 -27 8 -9 11 -16 5 -16 -7 0 -7 -10 0 -30 6 -16 15 -30 21
-30 5 0 7 -4 4 -9 -8 -13 14 -71 27 -71 6 0 8 -3 4 -6 -8 -9 21 -64 34 -64 6
0 8 -4 4 -9 -7 -13 59 -117 80 -124 8 -4 14 -10 13 -14 -3 -8 26 -44 70 -89
51 -53 243 -178 252 -164 3 5 11 5 20 0 8 -6 29 -10 45 -11 17 -1 22 -3 13 -6
-26 -7 -22 -17 12 -30 31 -12 39 -6 19 14 -9 9 -5 11 17 8 16 -2 32 -4 36 -4
3 -1 4 -9 1 -20 -4 -14 2 -19 24 -22 45 -6 72 1 78 22 4 10 11 19 16 19 14 0
11 -28 -3 -33 -7 -3 -3 -6 10 -6 12 -1 32 10 44 25 20 22 24 23 34 9 10 -13
17 -14 49 -3 20 7 37 18 37 23 -1 14 37 27 59 20 24 -8 92 28 113 60 9 14 22
24 29 23 16 -4 77 40 77 55 0 14 35 47 49 47 9 0 41 33 41 44 0 4 -5 4 -12 0
-7 -4 -8 -3 -4 5 4 6 11 9 15 6 13 -7 44 33 38 48 -3 8 4 22 14 31 11 9 18 20
15 24 -3 5 6 21 20 37 13 15 24 33 24 38 0 6 16 45 36 86 19 42 40 87 46 101
5 14 16 38 24 53 8 16 14 39 14 51 0 12 4 26 9 32 8 8 20 66 25 121 2 13 6 26
9 30 4 3 7 26 7 49 0 23 5 55 11 71 6 16 12 118 14 233 4 224 7 264 25 285 14
17 22 95 9 95 -5 0 -29 -16 -55 -35 -25 -19 -49 -35 -53 -35 -5 0 -24 15 -44
34 -35 33 -35 34 -14 44 20 11 20 11 -6 7 -28 -4 -28 -4 -13 21 20 29 19 29
-74 3 -155 -42 -264 -113 -327 -212 -13 -22 -27 -36 -30 -33 -4 3 -12 1 -20
-5 -10 -9 -10 -15 -2 -25 12 -15 3 -38 -12 -28 -5 3 -8 13 -7 22 2 13 -5 17
-27 17 -24 0 -29 -4 -27 -20 2 -11 8 -23 14 -26 5 -3 0 -9 -12 -12 -16 -4 -24
-1 -27 13 -6 24 -36 34 -62 21 -26 -15 -36 21 -10 38 11 6 19 7 19 1 0 -5 9
-14 20 -20 30 -16 60 4 60 40 0 20 -6 31 -20 35 -28 9 -60 -3 -60 -23 0 -14
-2 -14 -9 -3 -17 26 9 50 47 44 37 -6 52 6 52 45 0 14 -8 26 -22 31 -14 5 -17
10 -10 15 7 4 12 11 12 15 0 8 -90 40 -124 45 -8 1 -24 10 -35 20 -18 17 -20
16 -40 -5 -16 -17 -18 -26 -10 -36 14 -16 41 -17 57 -1 9 9 13 7 18 -5 3 -9
10 -14 15 -11 14 9 10 -12 -5 -25 -11 -9 -15 -8 -20 5 -4 12 -15 15 -36 12
-21 -3 -30 0 -30 10 0 7 -5 12 -12 10 -7 -3 -22 17 -35 44 -25 54 -39 60 -53
22z m263 -117 c-7 -4 -13 -15 -13 -22 0 -8 -7 -15 -17 -15 -15 0 -15 2 0 18
11 12 13 22 6 35 -6 9 -14 15 -20 12 -5 -4 -9 -2 -9 4 0 18 23 17 44 -3 16
-16 18 -23 9 -29z m-606 -22 c9 -20 8 -25 -3 -25 -13 0 -19 -13 -14 -35 1 -5
-4 -5 -11 2 -9 9 -9 15 0 27 9 11 8 17 -4 29 -11 12 -12 17 -2 20 20 9 22 8
34 -18z m536 -23 c-16 -17 -16 -17 1 -35 12 -11 11 -15 -5 -25 -16 -10 -19 -9
-19 7 0 10 -6 24 -14 30 -12 10 -11 15 7 34 15 15 26 19 33 12 8 -7 7 -13 -3
-23z m-15 -113 c-7 -4 -16 -3 -20 4 -11 18 2 29 18 16 12 -10 12 -14 2 -20z
m-365 -48 c-5 -18 -6 -18 -22 -3 -23 22 -16 45 9 32 11 -6 16 -17 13 -29z
m408 -45 c5 -6 9 -15 9 -20 0 -6 -9 2 -19 18 -11 17 -17 35 -13 40 4 6 8 2 10
-9 2 -11 8 -24 13 -29z m151 39 c3 -3 -1 -31 -9 -63 -9 -31 -15 -71 -16 -89 0
-23 -3 -28 -12 -20 -19 20 -26 47 -11 47 19 0 29 30 15 46 -9 11 -7 15 5 20
13 5 15 14 11 35 -6 26 3 38 17 24z m-550 -81 c-7 -13 -17 -24 -24 -23 -10 0
-10 2 0 6 14 5 16 39 3 47 -27 17 -54 -25 -32 -49 4 -6 11 -25 14 -42 6 -28 4
-33 -13 -33 -17 0 -18 3 -8 26 11 23 10 29 -8 43 -18 14 -19 20 -9 44 6 15 14
25 17 21 4 -3 14 -1 24 4 28 15 50 -12 36 -44z m491 18 c8 -10 7 -12 -4 -10
-9 2 -14 -6 -14 -24 1 -15 -5 -30 -12 -32 -9 -4 -12 2 -9 19 3 17 -2 29 -17
40 -16 11 -18 15 -5 15 8 0 22 7 29 16 11 13 14 13 17 3 3 -8 9 -20 15 -27z
m3 -139 c-6 -15 -9 -15 -16 -3 -6 9 -5 17 3 22 16 10 21 2 13 -19z m15 -50
c-12 -20 -14 -14 -5 12 4 9 9 14 11 11 3 -2 0 -13 -6 -23z"/>
<path d="M302 2748 c-34 -86 -74 -213 -87 -278 -9 -45 -26 -143 -34 -200 -9
-64 -8 -401 2 -450 3 -14 8 -43 11 -65 21 -142 87 -370 133 -459 l15 -29 394
394 c217 217 393 397 392 401 -3 6 -597 605 -741 746 l-45 44 -40 -104z"/>
<path d="M3387 2457 l-395 -394 398 -398 398 -398 20 46 c60 134 124 378 139
527 19 194 7 441 -32 618 -3 12 -7 32 -10 43 -16 74 -111 349 -120 349 -1 0
-180 -177 -398 -393z"/>
<path d="M2276 2805 c4 -8 11 -15 16 -15 6 0 5 6 -2 15 -7 8 -14 15 -16 15 -2
0 -1 -7 2 -15z"/>
<path d="M2277 2759 c-3 -12 0 -22 9 -26 12 -5 12 -7 -2 -17 -24 -18 -14 -51
16 -51 28 0 41 32 18 46 -11 8 -11 10 1 18 18 12 5 51 -19 51 -9 0 -20 -9 -23
-21z"/>
<path d="M2342 2694 c4 -21 22 -23 26 -1 2 10 -3 17 -13 17 -10 0 -15 -6 -13
-16z"/>
<path d="M1666 747 c-214 -216 -391 -397 -393 -402 -4 -13 149 -74 272 -109
372 -106 801 -90 1165 43 106 39 140 54 140 62 0 7 -787 800 -792 798 -2 0
-178 -177 -392 -392z"/>
</g>
</svg>
