<svg id="logo" xmlns="http://www.w3.org/2000/svg" width="212.368" height="65.161" viewBox="0 0 212.368 65.161">
  <g id="Group_182" data-name="Group 182">
    <path id="Path_2250" data-name="Path 2250" d="M25.2,25.3V70.081H69.981V25.3ZM47.59,69a21.3,21.3,0,1,1,21.3-21.3A21.29,21.29,0,0,1,47.59,69Z" transform="translate(-15.07 -15.13)" fill="#fff"/>
    <g id="Group_175" data-name="Group 175" transform="translate(0.241)">
      <path id="Path_2251" data-name="Path 2251" d="M.6,0V8.482H4.861A4.255,4.255,0,0,1,.6,4.261a4.261,4.261,0,1,1,8.522,0A4.238,4.238,0,0,1,4.861,8.522H9.122V0Z" transform="translate(-0.6)" fill="#fff"/>
      <path id="Path_2252" data-name="Path 2252" d="M6.655,3A3.055,3.055,0,1,0,9.71,6.055,3.054,3.054,0,0,0,6.655,3Z" transform="translate(-2.394 -1.794)" fill="#fff"/>
    </g>
    <g id="Group_176" data-name="Group 176" transform="translate(0 11.336)">
      <path id="Path_2253" data-name="Path 2253" d="M0,28.2v8.482H4.261a4.241,4.241,0,1,1,0-8.482,4.261,4.261,0,0,1,0,8.522H8.522V28.2Z" transform="translate(0 -28.2)" fill="#fff"/>
      <path id="Path_2254" data-name="Path 2254" d="M6.055,31.1A3.055,3.055,0,1,0,9.11,34.155,3.054,3.054,0,0,0,6.055,31.1Z" transform="translate(-1.794 -29.934)" fill="#fff"/>
      <path id="Path_2255" data-name="Path 2255" d="M0,64.822H4.261a4.261,4.261,0,1,1,0-8.522,4.261,4.261,0,1,1,0,8.522H8.522V56.34H0Z" transform="translate(0 -45.004)" fill="#fff"/>
      <path id="Path_2256" data-name="Path 2256" d="M6.055,59.3A3.055,3.055,0,1,0,9.11,62.355,3.054,3.054,0,0,0,6.055,59.3Z" transform="translate(-1.794 -46.798)" fill="#fff"/>
      <path id="Path_2257" data-name="Path 2257" d="M0,93.022H4.261a4.261,4.261,0,1,1,4.261-4.261,4.263,4.263,0,0,1-4.261,4.261H8.522V84.54H0Z" transform="translate(0 -61.869)" fill="#fff"/>
      <path id="Path_2258" data-name="Path 2258" d="M6.055,87.5A3.055,3.055,0,1,0,9.11,90.555,3.054,3.054,0,0,0,6.055,87.5Z" transform="translate(-1.794 -63.663)" fill="#fff"/>
      <path id="Path_2259" data-name="Path 2259" d="M0,121.182H4.261a4.241,4.241,0,1,1,0-8.482,4.261,4.261,0,0,1,0,8.522H8.522V112.74H0v8.442Z" transform="translate(0 -78.733)" fill="#fff"/>
      <path id="Path_2260" data-name="Path 2260" d="M6.055,115.7a3.055,3.055,0,1,0,3.055,3.055A3.054,3.054,0,0,0,6.055,115.7Z" transform="translate(-1.794 -80.527)" fill="#fff"/>
    </g>
    <g id="Group_177" data-name="Group 177" transform="translate(22.752)">
      <path id="Path_2261" data-name="Path 2261" d="M56.6,0V4.261a4.261,4.261,0,1,1,4.261,4.261A4.263,4.263,0,0,1,56.6,4.261V8.522h8.482V0Z" transform="translate(-56.6)" fill="#fff"/>
      <path id="Path_2262" data-name="Path 2262" d="M62.655,9.11A3.055,3.055,0,1,0,59.6,6.055,3.054,3.054,0,0,0,62.655,9.11Z" transform="translate(-58.394 -1.794)" fill="#fff"/>
    </g>
    <g id="Group_178" data-name="Group 178" transform="translate(11.497)">
      <path id="Path_2263" data-name="Path 2263" d="M28.6,0V4.261a4.261,4.261,0,1,1,4.261,4.261A4.263,4.263,0,0,1,28.6,4.261V8.522h8.482V0Z" transform="translate(-28.6)" fill="#fff"/>
      <path id="Path_2264" data-name="Path 2264" d="M34.655,9.11A3.055,3.055,0,1,0,31.6,6.055,3.054,3.054,0,0,0,34.655,9.11Z" transform="translate(-30.394 -1.794)" fill="#fff"/>
    </g>
    <g id="Group_179" data-name="Group 179" transform="translate(0.241 56.599)">
      <path id="Path_2265" data-name="Path 2265" d="M.6,149.322H4.861a4.261,4.261,0,1,1,4.261-4.261,4.263,4.263,0,0,1-4.261,4.261H9.122V140.84H.6Z" transform="translate(-0.6 -140.8)" fill="#fff"/>
      <path id="Path_2266" data-name="Path 2266" d="M6.655,143.8a3.055,3.055,0,1,0,3.055,3.055A3.054,3.054,0,0,0,6.655,143.8Z" transform="translate(-2.394 -142.594)" fill="#fff"/>
      <path id="Path_2267" data-name="Path 2267" d="M112.6,140.9v4.261a4.261,4.261,0,1,1,4.261,4.261,4.263,4.263,0,0,1-4.261-4.261v4.261h8.482V140.94H112.6Z" transform="translate(-67.578 -140.86)" fill="#fff"/>
      <path id="Path_2268" data-name="Path 2268" d="M118.655,149.91a3.055,3.055,0,1,0-3.055-3.055,3.054,3.054,0,0,0,3.055,3.055Z" transform="translate(-69.372 -142.594)" fill="#fff"/>
      <path id="Path_2269" data-name="Path 2269" d="M84.6,145.061a4.261,4.261,0,1,1,4.261,4.261,4.263,4.263,0,0,1-4.261-4.261v4.261h8.482V140.84H84.6v4.221Z" transform="translate(-50.834 -140.8)" fill="#fff"/>
      <path id="Path_2270" data-name="Path 2270" d="M90.655,149.91a3.055,3.055,0,1,0-3.055-3.055A3.054,3.054,0,0,0,90.655,149.91Z" transform="translate(-52.628 -142.594)" fill="#fff"/>
      <path id="Path_2271" data-name="Path 2271" d="M56.6,145.061a4.261,4.261,0,1,1,4.261,4.261,4.263,4.263,0,0,1-4.261-4.261v4.261h8.482V140.84H56.6v4.221Z" transform="translate(-34.089 -140.8)" fill="#fff"/>
      <path id="Path_2272" data-name="Path 2272" d="M62.655,149.91a3.055,3.055,0,1,0-3.055-3.055A3.054,3.054,0,0,0,62.655,149.91Z" transform="translate(-35.883 -142.594)" fill="#fff"/>
      <path id="Path_2273" data-name="Path 2273" d="M28.6,145.061a4.261,4.261,0,1,1,4.261,4.261,4.263,4.263,0,0,1-4.261-4.261v4.261h8.482V140.84H28.6v4.221Z" transform="translate(-17.345 -140.8)" fill="#fff"/>
      <path id="Path_2274" data-name="Path 2274" d="M34.655,149.91a3.055,3.055,0,1,0-3.055-3.055A3.054,3.054,0,0,0,34.655,149.91Z" transform="translate(-19.139 -142.594)" fill="#fff"/>
    </g>
    <g id="Group_180" data-name="Group 180" transform="translate(34.007)">
      <path id="Path_2275" data-name="Path 2275" d="M112.6,4.261a4.261,4.261,0,1,1,4.261,4.261A4.263,4.263,0,0,1,112.6,4.261V8.522h8.482V0H112.6V4.261Z" transform="translate(-101.345)" fill="#fff"/>
      <path id="Path_2276" data-name="Path 2276" d="M118.655,9.11A3.055,3.055,0,1,0,115.6,6.055a3.054,3.054,0,0,0,3.055,3.055Z" transform="translate(-103.139 -1.794)" fill="#fff"/>
      <path id="Path_2277" data-name="Path 2277" d="M84.6,4.261a4.261,4.261,0,1,1,4.261,4.261A4.263,4.263,0,0,1,84.6,4.261V8.522h8.482V0H84.6Z" transform="translate(-84.6)" fill="#fff"/>
      <path id="Path_2278" data-name="Path 2278" d="M90.655,9.11A3.055,3.055,0,1,0,87.6,6.055,3.054,3.054,0,0,0,90.655,9.11Z" transform="translate(-86.394 -1.794)" fill="#fff"/>
      <path id="Path_2279" data-name="Path 2279" d="M140.6,0V8.482h4.261a4.241,4.241,0,1,1,0-8.482,4.261,4.261,0,1,1,0,8.522h4.261V0H140.64Z" transform="translate(-118.089)" fill="#fff"/>
      <path id="Path_2280" data-name="Path 2280" d="M146.655,3a3.055,3.055,0,1,0,3.055,3.055A3.054,3.054,0,0,0,146.655,3Z" transform="translate(-119.883 -1.794)" fill="#fff"/>
    </g>
    <g id="Group_181" data-name="Group 181" transform="translate(56.277 11.336)">
      <path id="Path_2281" data-name="Path 2281" d="M140,32.461a4.261,4.261,0,1,1,4.261,4.261h4.261V28.2H140.04v8.482H144.3a4.263,4.263,0,0,1-4.261-4.261Z" transform="translate(-140 -28.2)" fill="#fff"/>
      <path id="Path_2282" data-name="Path 2282" d="M146.055,31.1a3.055,3.055,0,1,0,3.055,3.055A3.054,3.054,0,0,0,146.055,31.1Z" transform="translate(-141.794 -29.934)" fill="#fff"/>
      <path id="Path_2283" data-name="Path 2283" d="M140,60.561a4.261,4.261,0,1,1,4.261,4.261h4.261V56.34H140.04v8.482H144.3a4.263,4.263,0,0,1-4.261-4.261Z" transform="translate(-140 -45.004)" fill="#fff"/>
      <path id="Path_2284" data-name="Path 2284" d="M146.055,59.3a3.055,3.055,0,1,0,3.055,3.055A3.054,3.054,0,0,0,146.055,59.3Z" transform="translate(-141.794 -46.798)" fill="#fff"/>
      <path id="Path_2285" data-name="Path 2285" d="M140,88.761a4.261,4.261,0,1,1,4.261,4.261h4.261V84.54H140.04v8.482H144.3a4.263,4.263,0,0,1-4.261-4.261Z" transform="translate(-140 -61.869)" fill="#fff"/>
      <path id="Path_2286" data-name="Path 2286" d="M146.055,87.5a3.055,3.055,0,1,0,3.055,3.055A3.054,3.054,0,0,0,146.055,87.5Z" transform="translate(-141.794 -63.663)" fill="#fff"/>
      <path id="Path_2287" data-name="Path 2287" d="M140,116.961a4.261,4.261,0,1,1,4.261,4.261h4.261V112.74H140.04v8.482H144.3a4.263,4.263,0,0,1-4.261-4.261Z" transform="translate(-140 -78.733)" fill="#fff"/>
      <path id="Path_2288" data-name="Path 2288" d="M146.055,115.7a3.055,3.055,0,1,0,3.055,3.055A3.054,3.054,0,0,0,146.055,115.7Z" transform="translate(-141.794 -80.527)" fill="#fff"/>
      <path id="Path_2289" data-name="Path 2289" d="M140.6,140.84v8.482h4.261a4.261,4.261,0,1,1,4.261-4.261,4.263,4.263,0,0,1-4.261,4.261h4.261V140.84H140.6Z" transform="translate(-140.359 -95.537)" fill="#fff"/>
      <path id="Path_2290" data-name="Path 2290" d="M146.655,143.8a3.055,3.055,0,1,0,3.055,3.055A3.054,3.054,0,0,0,146.655,143.8Z" transform="translate(-142.153 -97.331)" fill="#fff"/>
    </g>
  </g>
  <g id="Group_183" data-name="Group 183" transform="translate(16.657 16.389)">
    <ellipse id="Ellipse_5238" data-name="Ellipse 5238" cx="5.547" cy="3.216" rx="5.547" ry="3.216" transform="translate(14.532 26.736) rotate(-25)" fill="#fff"/>
    <ellipse id="Ellipse_5239" data-name="Ellipse 5239" cx="5.547" cy="3.216" rx="5.547" ry="3.216" transform="translate(4.257 4.689) rotate(-25)" fill="#fff"/>
    <ellipse id="Ellipse_5240" data-name="Ellipse 5240" cx="3.216" cy="5.547" rx="3.216" ry="5.547" transform="matrix(0.574, -0.819, 0.819, 0.574, 16.375, 5.731)" fill="#fff"/>
    <ellipse id="Ellipse_5241" data-name="Ellipse 5241" cx="5.547" cy="3.216" rx="5.547" ry="3.216" transform="translate(0 20.47) rotate(-85)" fill="#fff"/>
    <ellipse id="Ellipse_5242" data-name="Ellipse 5242" cx="5.547" cy="3.216" rx="5.547" ry="3.216" transform="translate(24.257 22.597) rotate(-85)" fill="#fff"/>
    <ellipse id="Ellipse_5243" data-name="Ellipse 5243" cx="3.216" cy="5.547" rx="3.216" ry="5.547" transform="matrix(0.574, -0.819, 0.819, 0.574, 2.493, 25.689)" fill="#fff"/>
  </g>
  <g id="Group_174" transform="translate(78.768 -13.37)">
    <g id="parisDOT" transform="translate(0 31)">
      <g id="Group_225" data-name="Group 225">
        <path id="Path_2291" data-name="Path 2291" d="M2.9,29.9H0V7.8H2.9v2.3h0A5.535,5.535,0,0,1,5,8.2a6.6,6.6,0,0,1,3.2-.8,6.983,6.983,0,0,1,3,.6,6.342,6.342,0,0,1,2.3,1.6A8.743,8.743,0,0,1,15,12.1a7.579,7.579,0,0,1,.5,3,9.427,9.427,0,0,1-.5,3,6.437,6.437,0,0,1-1.5,2.5,6.576,6.576,0,0,1-2.3,1.7,7.455,7.455,0,0,1-3.1.6,6.04,6.04,0,0,1-3-.7,5.853,5.853,0,0,1-2.2-1.9h0v9.6Zm9.7-14.8a6.929,6.929,0,0,0-.3-2,5.559,5.559,0,0,0-.9-1.7,4.428,4.428,0,0,0-1.5-1.2,4.638,4.638,0,0,0-2.1-.4,4.211,4.211,0,0,0-2,.4,6.1,6.1,0,0,0-1.6,1.2,4.248,4.248,0,0,0-1,1.7,6.465,6.465,0,0,0-.4,2,4.477,4.477,0,0,0,.4,2,5.854,5.854,0,0,0,1,1.7A4.813,4.813,0,0,0,5.8,20a4.477,4.477,0,0,0,2,.4A4.918,4.918,0,0,0,9.9,20a4.428,4.428,0,0,0,1.5-1.2,5.559,5.559,0,0,0,.9-1.7A6.448,6.448,0,0,0,12.6,15.1Z" fill="#fff"/>
        <path id="Path_2292" data-name="Path 2292" d="M28.8,13a2.719,2.719,0,0,0-1-2.4,4.237,4.237,0,0,0-2.6-.8,4.9,4.9,0,0,0-2.3.5,5.675,5.675,0,0,0-1.8,1.2L19.5,9.6A7.179,7.179,0,0,1,22.2,8a9.737,9.737,0,0,1,3.4-.6,6.68,6.68,0,0,1,2.7.4A5.162,5.162,0,0,1,30.2,9a4.185,4.185,0,0,1,1.1,1.8,8.519,8.519,0,0,1,.4,2.3v8a2.549,2.549,0,0,0,.2,1.3H29.3a7.487,7.487,0,0,1-.2-2.1h0a4.939,4.939,0,0,1-2,1.8,6.531,6.531,0,0,1-2.9.7,4.19,4.19,0,0,1-1.8-.2,5.306,5.306,0,0,1-1.7-.8,5.845,5.845,0,0,1-1.3-1.4,4.567,4.567,0,0,1,.4-4.8,5.8,5.8,0,0,1,2.4-1.5,16.021,16.021,0,0,1,3.3-.7c1.2-.1,2.4-.2,3.7-.2v-.4Zm-.7,2.5H25.9a6.537,6.537,0,0,0-2.1.4,5.978,5.978,0,0,0-1.6.8,2.035,2.035,0,0,0-.6,1.5c0,.6,0,.8.3,1.1a2.336,2.336,0,0,0,.7.7,3,3,0,0,0,1,.4c.4,0,.7.1,1.1.1a3.853,3.853,0,0,0,3.1-1.2,4.5,4.5,0,0,0,1.1-3.1v-.8h-.7Z" fill="#fff"/>
        <path id="Path_2293" data-name="Path 2293" d="M36.4,9.5V7.9h2.8v2.5h0A4.626,4.626,0,0,1,41,8.3a5.029,5.029,0,0,1,2.7-.8c1,0,.8,0,1.1.1v2.7a7.719,7.719,0,0,0-1.5-.2,3.425,3.425,0,0,0-1.8.4,6.42,6.42,0,0,0-1.3,1,5.3,5.3,0,0,0-.8,1.5,5.537,5.537,0,0,0-.2,1.8v7.7H36.3V9.5Z" fill="#fff"/>
        <path id="Path_2294" data-name="Path 2294" d="M51.1,2.5a1.612,1.612,0,0,1-.6,1.3,1.741,1.741,0,0,1-1.4.5,2.168,2.168,0,0,1-1.4-.5,1.76,1.76,0,0,1-.6-1.3,1.612,1.612,0,0,1,.6-1.3A1.741,1.741,0,0,1,49.1.7a2.168,2.168,0,0,1,1.4.5,1.76,1.76,0,0,1,.6,1.3Zm-.5,20H47.7V7.8h2.9Z" fill="#fff"/>
        <path id="Path_2295" data-name="Path 2295" d="M63.6,11.5a3.531,3.531,0,0,0-1.4-1.3,4.552,4.552,0,0,0-2-.5,2.245,2.245,0,0,0-1,.1l-.9.3a1.7,1.7,0,0,0-.6.6c-.2.2-.2.5-.2.9a1.6,1.6,0,0,0,.8,1.4,9.172,9.172,0,0,0,2.5.8c.7.2,1.4.4,2,.6a5.071,5.071,0,0,1,1.6.9,2.809,2.809,0,0,1,1,1.2,4.256,4.256,0,0,1,.4,1.7,5.45,5.45,0,0,1-.5,2.2A4.708,4.708,0,0,1,64,21.9a4.065,4.065,0,0,1-1.9.8,9.354,9.354,0,0,1-5.5-.5,6.592,6.592,0,0,1-2.7-2L56,18.4a4.637,4.637,0,0,0,3.9,2.1,2.814,2.814,0,0,0,1.1-.1,1.489,1.489,0,0,0,.9-.4,2.336,2.336,0,0,0,.7-.7,1.645,1.645,0,0,0,.2-1,1.5,1.5,0,0,0-1-1.5,16.97,16.97,0,0,0-2.9-.9c-.5-.1-1-.3-1.5-.4a6.109,6.109,0,0,1-1.4-.7,4,4,0,0,1-1-1.2,3.064,3.064,0,0,1-.4-1.7,4.228,4.228,0,0,1,.5-2,3.483,3.483,0,0,1,1.3-1.4,5.832,5.832,0,0,1,1.8-.8,6.929,6.929,0,0,1,2-.3,8.149,8.149,0,0,1,3.1.6,5.167,5.167,0,0,1,2.3,1.8l-2,1.7Z" fill="#fff"/>
      </g>
      <g id="Group_226" data-name="Group 226">
        <path id="Path_2296" data-name="Path 2296" d="M69.4.6h7.8a15.933,15.933,0,0,1,4.3.6A13.842,13.842,0,0,1,85.4,3a9.319,9.319,0,0,1,2.8,3.4,11.441,11.441,0,0,1,1.1,5.2,10.569,10.569,0,0,1-1.1,5A10.432,10.432,0,0,1,85.4,20a14.4,14.4,0,0,1-3.9,2,15.933,15.933,0,0,1-4.3.6H69.4Zm7.2,18.5a10.323,10.323,0,0,0,3-.4,6.6,6.6,0,0,0,2.7-1.2,6.422,6.422,0,0,0,2-2.3,8.1,8.1,0,0,0,.8-3.7,8.247,8.247,0,0,0-.8-3.8,5.678,5.678,0,0,0-2-2.3,6.437,6.437,0,0,0-2.7-1.1,15.263,15.263,0,0,0-3-.3H73.3V19.2h3.3Z" fill="#fff"/>
        <path id="Path_2297" data-name="Path 2297" d="M92,11.5a12.437,12.437,0,0,1,.9-4.8,11.349,11.349,0,0,1,2.4-3.6A10.068,10.068,0,0,1,99,.8a14.206,14.206,0,0,1,9.4,0,11.388,11.388,0,0,1,3.8,2.3,10.143,10.143,0,0,1,2.5,3.6,12.085,12.085,0,0,1,.9,4.8,11.5,11.5,0,0,1-3.4,8.4,12.3,12.3,0,0,1-3.8,2.4,12.237,12.237,0,0,1-13.1-2.4,9.5,9.5,0,0,1-2.4-3.7,11.933,11.933,0,0,1-.9-4.7Zm4.2,0a10.233,10.233,0,0,0,.5,3.2,11.042,11.042,0,0,0,1.5,2.6,8.068,8.068,0,0,0,2.4,1.7,7.455,7.455,0,0,0,3.1.6,7.79,7.79,0,0,0,3.1-.6,8.068,8.068,0,0,0,2.4-1.7,6.142,6.142,0,0,0,1.5-2.6,8.591,8.591,0,0,0,.5-3.2,11.27,11.27,0,0,0-.5-3.2,8.743,8.743,0,0,0-1.5-2.5,8.068,8.068,0,0,0-2.4-1.7,8.308,8.308,0,0,0-6.2,0,8.068,8.068,0,0,0-2.4,1.7,6.437,6.437,0,0,0-1.5,2.5,8.278,8.278,0,0,0-.5,3.2Z" fill="#fff"/>
        <path id="Path_2298" data-name="Path 2298" d="M122.9,4h-6.7V.6h17.4V4h-6.7V22.5H123V4Z" fill="#fff"/>
      </g>
    </g>
  </g>
</svg>
