<svg xmlns="http://www.w3.org/2000/svg" xmlns:xlink="http://www.w3.org/1999/xlink" width="340.157" height="494.28" viewBox="0 0 340.157 494.28"><defs><clipPath id="a"><circle cx="170.079" cy="170.079" r="170.079" fill="#fff" stroke="#ddd" stroke-miterlimit="10" stroke-width="3"/></clipPath></defs><g transform="translate(-237.029 -2455.824)"><g transform="translate(242.651 2455.824)"><path d="M-19.332-9.477a31.168,31.168,0,0,1,3.7-2.59c2.02-1.187,2.175-1.241,4.072-2.2s1.633-.255,3.515-1.627,3.1-2.876,4.163-3.269A4.3,4.3,0,0,1,0-18.834a11.855,11.855,0,0,1,3.174,2.656s-1.95-.468-4.017,2.138S-2.283-7.65-6.154-5.452c-1.466.832-4.671,2.08-5.73,3.212a2.847,2.847,0,0,0,0,3.927C-10.736,2.9-8.49,3.623-8.344,4.219c.1.4-1.406.252-2.7.255a6.46,6.46,0,0,0-1.825.4,1.085,1.085,0,0,0,.584-1.746c-.335-.56-1.364-.637-2.08-1.443A6.755,6.755,0,0,1-15.477-.6a4.006,4.006,0,0,1-2.555,0s.807-1.418-3.284-.309S-33.134,2.821-33.134,2.821l-.561-.477-2.588.786L-34.3,1.421l-1.986.265S-33.736.12-30.8-1.336c2.083-1.031,4.521-1.9,5.566-2.624.688-.476.86-.247.569-.474-.2-.265-2.23-.38-2.23-.38Z" transform="translate(156.503 155.105)"/><rect width="494.279" height="328.913" transform="translate(328.913) rotate(90)" fill="#ff008c"/></g><g transform="translate(-189.994 112.709)"><g transform="translate(427.023 2399.712)"><g transform="translate(0 0)"><g clip-path="url(#a)"><g transform="translate(93.532 38.791)"><path d="M278.62,198.013a74.818,74.818,0,0,0-8.809-29.438,83.78,83.78,0,0,0-14.23-18.521c-4.367-4.292-12.046-10.842-12.046-10.842a33.282,33.282,0,0,0,12.649-7.68c2.786-2.71,4.141-5.044,8.282-7.68,3.087-1.958,5.571-2.635,5.421-3.313s-3.388-1.129-6.174,0c-1.656.678-2.183,1.506-4.367,2.183a3.744,3.744,0,0,1-3.237,0c-1.129-.678-1.656-2.409-1.129-3.237.828-1.2,3.237.151,4.367-1.129.6-.678.376-1.958,0-4.367-.3-1.882-.452-2.786-1.129-3.237-.3-.226-.828-.527-4.367,0-2.409.376-3.614.527-4.367,1.129-1.43,1.054-.9,2.033-2.183,3.313-2.259,2.259-6.023.828-6.55,2.183-.527,1.28,2.71,3.012,2.183,4.367-.452,1.2-3.162,1.129-5.421,1.129-2.334,0-3.614,0-4.367-1.054a2.71,2.71,0,0,1,0-3.237c1.054-1.28,3.012.151,4.367-1.129,1.43-1.28.226-3.539,2.183-5.5.527-.527.828-.527,1.054-1.129.753-1.43.151-3.764-1.129-4.367-1.2-.527-2.334.678-3.237,0-.828-.6-.3-1.656-1.129-2.183-1.054-.678-2.56.678-3.237,0-.452-.452-.3-1.506,0-2.183.9-1.958,3.162-1.656,4.367-3.313s.376-4.216,0-5.421c-2.033-6.249-8.884-9.336-9.863-9.788-8.809-3.915-17.241-.9-18.521-4.291a3.332,3.332,0,0,1,0-2.183c.678-1.506,2.635-.828,4.367-2.183,1.882-1.43,2.56-4.517,3.237-7.68a3.5,3.5,0,0,1,1.054-2.183,9.8,9.8,0,0,1,2.183-1.129c1.431-.6,3.388-1.732,3.237-2.183-.226-.9-8.658,1.28-9.788-1.054-.527-1.054.678-2.334,0-3.237-.678-.979-2.635-.075-3.237-1.054-.452-.678.376-1.355,0-2.183-.527-1.2-2.936-1.355-4.367-1.054a3.578,3.578,0,0,0-2.183,1.129c-.828.9-.452,1.506-1.054,2.183-1.2,1.28-3.614,0-4.367,1.129-.452.678.376,1.43,0,2.183-.9,1.958-8.282-.075-8.734,1.129-.3.753,2.786,1.656,3.313,4.367.226,1.355-.376,1.807,0,3.237a8.345,8.345,0,0,0,2.183,3.237,19.43,19.43,0,0,0,3.313,3.237c1.129.9,1.807,1.2,2.183,2.183a3.681,3.681,0,0,1,0,2.183c-.828,2.485-6.7,1.957-11.971,3.313-8.282,2.033-15.886,8.734-15.208,13.1.376,2.334,3.012,3.99,2.183,5.421-.527.979-2.033.6-3.237,2.183-.753.979-.3,1.28-1.054,2.183-1.2,1.43-2.56.9-3.237,2.183a2.251,2.251,0,0,0,0,2.183c.828,1.129,3.087.452,3.237,1.054.151.678-2.334,1.882-2.183,2.183.151.226,1.581-.527,2.183,0,.753.678-.6,2.71,0,3.237.678.6,2.56-1.581,4.367-1.129a3.9,3.9,0,0,1,2.183,4.367c-.753,2.936-6.55,4.066-8.733,2.183a2.979,2.979,0,0,1-1.129-2.183c0-1.129,1.054-1.355,1.054-2.183,0-1.506-3.237-1.656-5.5-4.367-1.656-2.033-.753-3.087-2.183-4.367-2.71-2.409-8.809-1.28-9.788,1.129-.3.753.151.9,0,3.237-.151,1.882-.452,2.56,0,3.237.527.753,1.2.527,2.183,1.054,2.334,1.355,1.355,4.442,3.313,5.421,1.43.753,2.484-.828,4.367,0,1.129.527,2.485,1.807,2.183,3.237a3.084,3.084,0,0,1-3.237,2.183c-1.355-.151-1.732-1.43-3.313-3.237a19.762,19.762,0,0,0-5.5-4.367c-3.99-2.108-8.583-1.656-8.733-1.054-.075.376,1.43.527,3.313,2.183,1.581,1.355,1.656,2.334,3.313,4.367a21.949,21.949,0,0,0,3.313,3.237c6.927,6.1,9.788,6.625,9.863,8.658,0,1.958-2.485,2.485-8.282,7.68a75.658,75.658,0,0,0-5.421,5.5,91.645,91.645,0,0,0-9.788,12.046,76.049,76.049,0,0,0-11.9,48.035s1.882,21.533,14.3,38.1a88.74,88.74,0,0,0,10.917,11.971,61.934,61.934,0,0,0,6.55,5.421c4.668,3.087,7.6,3.689,8.357,6.55.376,1.355,0,2.635,1.129,4.367a8.56,8.56,0,0,0,2.183,2.183c3.539,2.485,5.5,1.581,7.68,3.237.979.753.753,1.129,3.313,7.6,2.334,6.023,3.162,7.077,4.367,7.6,1.807.753,3.463-.075,4.367,1.054a3.306,3.306,0,0,1,0,3.237c-.9,2.033-2.936,2.033-7.6,4.367-5.12,2.485-5.421,3.765-5.421,4.367a3.319,3.319,0,0,0,1.129,2.183c2.183,2.183,5.5.527,6.55,2.183.753,1.129.075,3.237-1.054,4.367-1.506,1.43-3.614.753-4.367,2.183a2.471,2.471,0,0,0,0,2.183c.678,1.355,2.259.828,3.313,2.183a3.728,3.728,0,0,1,0,4.367c-.678.753-1.28.452-2.183,1.129-1.958,1.506-.678,4.517-2.183,5.5-1.732,1.129-5.722-1.581-6.55-2.183-1.958-1.355-2.259-2.259-3.313-2.183-1.656.151-1.581,2.484-4.367,4.367-1.807,1.2-2.56.678-4.367,2.183-.828.753-2.183,1.807-2.183,3.313s1.355,2.108,1.129,3.237c-.3,1.28-1.958,1.28-2.183,2.183-.376,1.355,2.936,2.635,6.55,5.421a27.4,27.4,0,0,1,5.5,5.421,31.893,31.893,0,0,1,4.743,11.068h63.845a17.725,17.725,0,0,1,1.43-10.164,20.306,20.306,0,0,1,3.012-4.442c3.463-3.689,8.809-6.174,8.734-7.68-.075-1.2-1.2-1.129-2.183-3.237-1.43-3.087.226-4.442-1.129-6.55-1.43-2.259-3.915-1.581-5.5-4.367-.678-1.2-.452-1.882-1.129-2.183-1.355-.6-2.786,2.183-6.55,3.313-1.129.377-2.936.9-4.367,0-1.28-.828-.828-1.958-2.183-3.237-1.732-1.656-3.463-.753-4.367-2.183-.979-1.431-.376-4.066,1.054-5.421,1.355-1.355,3.012-1.129,3.237-2.183.226-.979-.828-1.958-1.129-2.183-2.108-1.958-5.044-.979-5.5-2.183-.3-.753.753-1.807,1.054-2.183,1.2-1.28,2.183-.828,4.367-2.183,1.732-1.129,2.108-1.958,2.183-2.183a3.567,3.567,0,0,0,0-2.183c-.828-2.485-4.593-2.259-9.863-5.421-1.581-.979-3.463-2.108-3.313-3.237.151-.979,1.581-1.054,3.237-2.183,3.012-2.033,4.141-5.571,4.743-7.68,1.054-3.237.753-4.743,1.506-5.873a2.922,2.922,0,0,1,.6-.678c2.334-2.108,4.743-.678,8.734-2.183a6.565,6.565,0,0,0,3.237-2.183,7.008,7.008,0,0,0,1.054-2.183c.6-1.807.226-2.861,1.054-4.367a8.258,8.258,0,0,1,.9-1.2c1.506-1.581,3.463-2.409,8.884-6.475,1.355-1.054,1.958-1.506,2.936-2.259a74.121,74.121,0,0,0,5.8-5.421,81.706,81.706,0,0,0,18.446-30.567,76.328,76.328,0,0,0,3.162-29.438Zm-88.013,98.4c-3.313,0-5.5-2.936-6.55-4.367-1.2-1.506-3.388-5.12-2.183-6.55.753-.9,2.259-.226,8.734,1.054,6.1,1.28,7.228,1.2,7.6,2.183.979,2.334-3.087,7.68-7.6,7.68Zm28.158-4.442c-1.054,1.43-3.237,4.291-6.55,4.367-4.517.075-8.583-5.27-7.68-7.6.376-.979,1.506-.9,7.6-2.183,6.475-1.355,7.981-2.033,8.734-1.129,1.129,1.43-.979,4.969-2.183,6.55Z" transform="translate(-125.73 -53.023)" fill="#ddd"/><circle cx="71.45" cy="71.45" r="71.45" transform="translate(5.097 79.79)" fill="#ff008c"/><path d="M149.761,275.063c.9-.377-11.293-18.446-4.442-31.622,4.969-9.486,14.907-7.077,18.9-16.187,5.195-11.9-8.583-23.264-2.71-31.847,3.764-5.5,10.917-3.012,18.521-10.992A28.5,28.5,0,0,0,186.5,173.5a35.5,35.5,0,0,0-9.788,1.129,65.191,65.191,0,0,0-13.1,5.5s-5.873,4.818-9.788,8.734a78.136,78.136,0,0,0-8.658,10.917c-11.595,17.919-9.261,37.042-8.583,42.539,2.334,19.65,12.423,32.977,13.176,32.675Z" transform="translate(-128.251 -82.791)" fill="#ddd"/><path d="M213.836,316.875c-25.824,0-40.43,12.573-41.936,13.929a67.794,67.794,0,0,0,83.948-.3c-1.506-1.355-16.187-13.778-42.011-13.7Z" transform="translate(-137.139 -118.204)" fill="#ddd"/><path d="M166.9,170.309a97.007,97.007,0,0,1,90.5-.226c-8.884-18.672-28.008-30.116-48.11-28.911A50.345,50.345,0,0,0,166.9,170.384Z" transform="translate(-135.903 -74.783)" fill="#ddd"/></g></g></g></g></g></g></svg>