<svg xmlns="http://www.w3.org/2000/svg" width="93.828" height="15.426" viewBox="0 0 93.828 15.426"><path d="M237.242,189.593l7.721-7.713,7.715,7.715-7.715,7.711Zm2.841-2.3a3.131,3.131,0,0,0,0,4.607l1.669,1.669.008-.008a5.054,5.054,0,0,1,3.045-1.577,3.134,3.134,0,0,0,0,4.631l.154.161.154-.161a3.134,3.134,0,0,0,0-4.631,5.062,5.062,0,0,1,3.053,1.584l1.708-1.709,0,0a3.113,3.113,0,0,0,0-4.528l-1.7-1.7-.008.008a5.063,5.063,0,0,1-3.053,1.584,3.134,3.134,0,0,0,0-4.631l-.154-.177-.154.177a3.134,3.134,0,0,0,0,4.631,5.072,5.072,0,0,1-3.061-1.592Zm64.275,3.836-.259-.466c2.14-.259,3.245-1.346,3.245-3.194,0-2.158-1.416-3.211-4.367-3.194l-4.868.035-1.45-.035.19,6.888-.19,4.316.742-.035.742.035-.173-4.747h4.816l.6.967,2.037,3.832,1.709-.052Zm13.706-1.036-2.745-5.817-.846.035-.88-.035-2.555,5.455-2.848,5.748h1.657l1.26-2.883h6.957l1.295,2.883h1.416Zm-42.172,5.386-.138-4.316v-.035l1.882-2.693,3.4-4.177h-2.123l-2.192,3.314-1.571,2.089-1.571-2.054-2.244-3.349H269.4l3.263,4.126,1.847,2.745v.035l-.1,4.316.742-.035Zm6.68,0,1.467-.035,3.711.035c3.8,0,6.508-1.674,6.508-5.748,0-3.711-2.589-5.455-6.076-5.455l-4.143.035-1.467-.035.19,6.888Zm-25.013,0-.19-4.316.017-.794h9.1l.017.794-.19,4.316.742-.035.742.035-.19-4.316.19-6.888-.742.035-.742-.035.121,4.592H257.44l.121-4.592-.742.035-.742-.035.19,6.888-.19,4.316.742-.035Zm30.623-9.736c3.176,0,5.006,1.4,5.006,3.953,0,2.814-1.847,4.3-5.23,4.3h-3.97l-.121-2.831.155-5.42Zm37.18,3.444v-4.076h-.408V184.7h-.408v-.408h-3.261V190h3.261v-.408h.408v-.408Zm2.038-2.853h.408v.408h.408v.815h-.408v.408H327.4v.815h-.408V190h.815v-.815h.408v-.815h.408v-.408h.815v.408h.408v.815h.408V190h.815v-1.223h-.408v-.815h-.408v-.408h-.408v-.815h.408v-.408h.408v-.815h.408v-1.223h-.815v.815h-.408v.815h-.408v.408h-.815v-.408h-.408v-.815h-.408v-.815h-.815v1.223h.408Zm-86.992.946c2.061.109,3.708,2.315,3.708,2.315s-1.648,2.206-3.708,2.315a3.137,3.137,0,0,0,0-4.63Zm9.112,0a3.137,3.137,0,0,0,0,4.63c-2.061-.109-3.708-2.315-3.708-2.315S247.462,187.387,249.522,187.278Zm74.619-1.761h.408v3.261h-.408v.408H322.1v-4.076h2.038Zm-6.732,5.627h-5.662l.38-.863,2.348-4.764,2.624,4.954.311.673Zm-11.1-3.66a1.451,1.451,0,0,1-.794,1.415,6.748,6.748,0,0,1-2.917.432h-4.592l.1-3.608H302.6a7.525,7.525,0,0,1,2.969.38A1.418,1.418,0,0,1,306.309,187.485Z" transform="translate(-237.242 -181.879)" fill="#fff" fill-rule="evenodd"/></svg>