<svg xmlns="http://www.w3.org/2000/svg" width="833" height="400" viewBox="0 0 833 400"><g transform="translate(-193 -3289.55)"><text transform="translate(193 3582.55)" fill="#ddd" font-size="293" font-family="AvenirNext-Regular, Avenir Next"><tspan x="0" y="0" xml:space="preserve">P       L</tspan></text><g transform="translate(599.567 3370.734) rotate(90)"><ellipse cx="22.375" cy="35.796" rx="22.375" ry="35.796" transform="translate(44.75 143.163) rotate(-180)" fill="#ddd"/><ellipse cx="22.375" cy="35.796" rx="22.375" ry="35.796" transform="translate(165.106 73.649)" fill="#ddd"/><ellipse cx="22.132" cy="36.258" rx="22.132" ry="36.258" transform="translate(42.455 74.591) rotate(-120)" fill="#ddd"/><ellipse cx="22.139" cy="36.245" rx="22.139" ry="36.245" transform="translate(167.249 143.984) rotate(60)" fill="#ddd"/><ellipse cx="22.102" cy="36.248" rx="22.102" ry="36.248" transform="translate(21.23 178.532) rotate(-60)" fill="#ddd"/><ellipse cx="22.107" cy="36.24" rx="22.107" ry="36.24" transform="translate(193.585 36.44) rotate(120)" fill="#ddd"/></g><g transform="translate(833.575 3370.734) rotate(90)"><ellipse cx="22.375" cy="35.796" rx="22.375" ry="35.796" transform="translate(44.75 143.163) rotate(-180)" fill="#ddd"/><ellipse cx="22.375" cy="35.796" rx="22.375" ry="35.796" transform="translate(165.106 73.649)" fill="#ddd"/><ellipse cx="22.132" cy="36.258" rx="22.132" ry="36.258" transform="translate(42.455 74.591) rotate(-120)" fill="#ddd"/><ellipse cx="22.139" cy="36.245" rx="22.139" ry="36.245" transform="translate(167.249 143.984) rotate(60)" fill="#ddd"/><ellipse cx="22.102" cy="36.248" rx="22.102" ry="36.248" transform="translate(21.23 178.532) rotate(-60)" fill="#ddd"/><ellipse cx="22.107" cy="36.24" rx="22.107" ry="36.24" transform="translate(193.585 36.44) rotate(120)" fill="#ddd"/></g></g></svg>