<svg xmlns="http://www.w3.org/2000/svg" width="24.298" height="23.691" viewBox="0 0 24.298 23.691"><path d="M8.127,19.639c0,.1-.113.176-.255.176-.162.015-.274-.064-.274-.176s.113-.176.255-.176S8.127,19.526,8.127,19.639ZM6.6,19.418c-.034.1.064.211.211.24a.23.23,0,0,0,.3-.1c.029-.1-.064-.211-.211-.255A.251.251,0,0,0,6.6,19.418Zm2.165-.083c-.142.034-.24.127-.225.24s.142.162.289.127.24-.127.225-.225S8.911,19.32,8.769,19.335ZM11.992.563A11.747,11.747,0,0,0,0,12.516,12.282,12.282,0,0,0,8.3,24.234c.627.113.847-.274.847-.593s-.015-1.979-.015-3.008c0,0-3.429.735-4.149-1.46,0,0-.558-1.426-1.362-1.793,0,0-1.122-.769.078-.754A2.586,2.586,0,0,1,5.594,17.89a2.59,2.59,0,0,0,3.571,1.024,2.723,2.723,0,0,1,.784-1.651c-2.738-.3-5.5-.7-5.5-5.413A3.713,3.713,0,0,1,5.6,8.964a4.629,4.629,0,0,1,.127-3.326c1.024-.318,3.38,1.323,3.38,1.323a11.573,11.573,0,0,1,6.153,0s2.356-1.646,3.38-1.323a4.626,4.626,0,0,1,.127,3.326,3.808,3.808,0,0,1,1.264,2.885c0,4.727-2.885,5.1-5.624,5.413a2.9,2.9,0,0,1,.833,2.273c0,1.651-.015,3.694-.015,4.1,0,.318.225.705.847.593A12.169,12.169,0,0,0,24.3,12.516,12.012,12.012,0,0,0,11.992.563Zm-7.231,16.9c-.064.049-.049.162.034.255s.191.113.255.049.049-.162-.034-.255S4.825,17.395,4.762,17.459Zm-.529-.4c-.034.064.015.142.113.191a.146.146,0,0,0,.211-.034c.034-.064-.015-.142-.113-.191C4.345,17,4.267,17.013,4.233,17.062ZM5.82,18.806c-.078.064-.049.211.064.3.113.113.255.127.318.049s.034-.211-.064-.3C6.03,18.742,5.883,18.727,5.82,18.806Zm-.558-.72c-.078.049-.078.176,0,.289s.211.162.274.113a.223.223,0,0,0,0-.3C5.467,18.071,5.34,18.022,5.261,18.086Z" transform="translate(0 -0.563)" fill="#fff"/></svg>