<svg xmlns="http://www.w3.org/2000/svg" width="103.37" height="21.859" viewBox="0 0 103.37 21.859"><path d="M1628.6,210.4a13.1,13.1,0,0,0-2.82.277,1.18,1.18,0,0,0-.982,1.111l-2.713,12.517a4.165,4.165,0,0,0-.085.684.976.976,0,0,0,1.068,1.025c.727,0,1.026-.47,1.175-1.2l.769-3.567a18.182,18.182,0,0,0,2.243.129c4.422,0,7.177-2.392,7.177-6C1634.432,212.215,1632.231,210.4,1628.6,210.4Zm-1.452,8.929a13.254,13.254,0,0,1-1.708-.085l1.431-6.644a12.926,12.926,0,0,1,1.795-.15c2.35,0,3.547,1.111,3.547,2.948,0,2.35-1.711,3.931-5.064,3.931Z" transform="translate(-1595.697 -207.139)" fill="#ddd"/><path d="M6100.478,331.663c-.362,0-.6.214-1.046.705-.791.812-1.282,1.26-1.9,1.26-.555,0-.854-.448-.854-1.175a7.82,7.82,0,0,1,.192-1.431l.79-3.717h2.372a1.091,1.091,0,0,0,1.2-1.2c0-.428-.277-.747-.917-.747h-2.225l.385-1.73a4.464,4.464,0,0,0,.085-.705.988.988,0,0,0-1.068-1.026c-.705,0-1.024.47-1.175,1.2l-.491,2.265h-1a1.1,1.1,0,0,0-1.216,1.2c0,.428.3.747.938.747h.876l-.79,3.674a8.851,8.851,0,0,0-.192,1.752,2.662,2.662,0,0,0,2.819,2.99,4.37,4.37,0,0,0,2.841-1.218,3.325,3.325,0,0,0,1.261-1.944A.884.884,0,0,0,6100.478,331.663Z" transform="translate(-5997.984 -316.91)" fill="#ddd"/><path d="M3047.741,226.526a.994.994,0,0,0-1.09-1.026c-.705,0-1.024.47-1.175,1.2l-2.669,12.41a2.839,2.839,0,0,0-.107.684.987.987,0,0,0,1.068,1.025c.727,0,1.046-.47,1.2-1.2l2.669-12.408A4.4,4.4,0,0,0,3047.741,226.526Z" transform="translate(-2994.375 -222.005)" fill="#ddd"/><path d="M3351.782,230.045c-3.418,0-5.747,3.4-5.747,6.622,0,.06,0,.121,0,.18-.536.814-1.221,1.657-1.691,1.657-.341,0-.469-.321-.469-.812a13.843,13.843,0,0,1,.363-2.479l1.773-8.2a4.167,4.167,0,0,0,.085-.684.977.977,0,0,0-1.068-1.026c-.727,0-1.025.47-1.175,1.2l-.961,4.443a3.136,3.136,0,0,0-2.393-.9,6.1,6.1,0,0,0-5.442,4.427c-.98,2.533-1.856,4.032-2.547,4.032-.255,0-.406-.214-.406-.577a38.1,38.1,0,0,1,.854-4.934,5.012,5.012,0,0,0,.128-.939c0-.939-1.559-2.051-3.588-2.051a6.272,6.272,0,0,0-5.537,3.694c-1.583,2.8-3.035,4.807-3.754,4.807-.321,0-.428-.406-.513-.791l-.532-2.944,3.268-2.669a1.571,1.571,0,0,0,.683-1.09.908.908,0,0,0-.961-.961,1.887,1.887,0,0,0-1.153.555l-4.912,4.058,1.645-7.647a4.369,4.369,0,0,0,.107-.684.994.994,0,0,0-1.089-1.026c-.706,0-1.025.47-1.175,1.2l-2.669,12.41a2.839,2.839,0,0,0-.107.684.987.987,0,0,0,1.068,1.025c.727,0,1.047-.47,1.2-1.2l.343-1.6,2.007-1.623.491,2.477c.193.983.706,1.944,2.029,1.944s2.354-1.2,3.393-2.829a3.2,3.2,0,0,0,3.208,2.829,4.045,4.045,0,0,0,3.589-2.35v.043c0,1.389.705,2.307,1.944,2.307,1.12,0,2.051-.676,2.881-2.111a3.1,3.1,0,0,0,2.992,2.111,4.25,4.25,0,0,0,3.759-2.5v.129c0,1.538.769,2.372,2.029,2.372a3.677,3.677,0,0,0,2.866-1.7,3.513,3.513,0,0,0,3.2,1.7c3.418,0,5.747-3.4,5.747-6.644A3.614,3.614,0,0,0,3351.782,230.045Zm-21.3,4.337c-.62,2.669-1.944,4.187-3.44,4.187-1,0-1.56-.769-1.56-1.922,0-2.265,1.645-4.7,3.844-4.7a2.971,2.971,0,0,1,1.623.47Zm11.9-1.132c-.684,3.14-2.243,5.318-3.951,5.318-.939,0-1.5-.727-1.5-1.922,0-2.285,1.581-4.656,3.7-4.656a2.925,2.925,0,0,1,1.88.64Zm7.668,5.318c-1.239,0-1.752-.9-1.752-2.029,0-2.072,1.431-4.443,3.226-4.443,1.239,0,1.752.9,1.752,2.029C3353.278,236.219,3351.847,238.569,3350.052,238.569Z" transform="translate(-3260.288 -221.808)" fill="#ddd"/><path d="M2402.146,531.4c-3.417,0-5.746,3.4-5.746,6.622a3.618,3.618,0,0,0,3.759,3.951c3.417,0,5.746-3.4,5.746-6.644A3.611,3.611,0,0,0,2402.146,531.4Zm-1.729,8.524c-1.239,0-1.752-.9-1.752-2.029,0-2.073,1.431-4.443,3.226-4.443,1.238,0,1.751.9,1.751,2.029C2403.641,537.574,2402.21,539.924,2400.417,539.924Z" transform="translate(-2358.094 -523.163)" fill="#ddd"/><ellipse cx="3.942" cy="2.293" rx="3.942" ry="2.293" transform="translate(7.496 0)" fill="#ddd"/><ellipse cx="3.942" cy="2.293" rx="3.942" ry="2.293" transform="translate(7.496 17.274)" fill="#ddd"/><ellipse cx="3.942" cy="2.294" rx="3.942" ry="2.294" transform="matrix(0.5, -0.866, 0.866, 0.5, 0, 8.878)" fill="#ddd"/><ellipse cx="3.942" cy="2.293" rx="3.942" ry="2.293" transform="matrix(0.5, -0.866, 0.866, 0.5, 14.961, 17.516)" fill="#ddd"/><ellipse cx="2.294" cy="3.942" rx="2.294" ry="3.942" transform="matrix(0.866, -0.5, 0.5, 0.866, 0.001, 12.981)" fill="#ddd"/><ellipse cx="2.293" cy="3.942" rx="2.293" ry="3.942" transform="matrix(0.866, -0.5, 0.5, 0.866, 14.962, 4.345)" fill="#ddd"/></svg>