<svg xmlns="http://www.w3.org/2000/svg" width="183.373" height="183.713" viewBox="0 0 183.373 183.713"><g transform="translate(430 263.411)"><g transform="translate(-430 -263.411)"><g transform="translate(0.68)"><path d="M.6,0V23.913H12.613A12,12,0,0,1,.6,12.013a12.013,12.013,0,0,1,24.027,0A11.948,11.948,0,0,1,12.613,24.027H24.627V0Z" transform="translate(-0.6)" fill="#fff"/><path d="M12.213,3a8.613,8.613,0,1,0,8.613,8.613A8.609,8.609,0,0,0,12.213,3Z" transform="translate(-0.2 0.4)" fill="#fff"/></g><g transform="translate(0 31.96)"><path d="M0,28.2V52.113H12.013a11.957,11.957,0,1,1,0-23.913,12.013,12.013,0,0,1,0,24.027H24.027V28.2Z" transform="translate(0 -28.2)" fill="#fff"/><path d="M11.613,31.1a8.613,8.613,0,1,0,8.613,8.613A8.609,8.609,0,0,0,11.613,31.1Z" transform="translate(0.4 -27.813)" fill="#fff"/><path d="M0,80.327H12.013a12.013,12.013,0,1,1,0-24.027,12.013,12.013,0,1,1,0,24.027H24.027V56.413H0Z" transform="translate(0 -24.453)" fill="#fff"/><path d="M11.613,59.3a8.613,8.613,0,1,0,8.613,8.613A8.61,8.61,0,0,0,11.613,59.3Z" transform="translate(0.4 -24.053)" fill="#fff"/><path d="M0,108.527H12.013A12.013,12.013,0,1,1,24.027,96.513a12.019,12.019,0,0,1-12.013,12.013H24.027V84.613H0Z" transform="translate(0 -20.693)" fill="#fff"/><path d="M11.613,87.5a8.613,8.613,0,1,0,8.613,8.613A8.609,8.609,0,0,0,11.613,87.5Z" transform="translate(0.4 -20.293)" fill="#fff"/><path d="M0,136.613H12.013a11.957,11.957,0,1,1,0-23.913,12.013,12.013,0,0,1,0,24.027H24.027V112.813H0v23.8Z" transform="translate(0 -16.933)" fill="#fff"/><path d="M11.613,115.7a8.613,8.613,0,1,0,8.613,8.613A8.609,8.609,0,0,0,11.613,115.7Z" transform="translate(0.4 -16.533)" fill="#fff"/></g><g transform="translate(64.147)"><path d="M56.6,0V12.013A12.013,12.013,0,1,1,68.613,24.027,12.019,12.019,0,0,1,56.6,12.013V24.027H80.513V0Z" transform="translate(-56.6)" fill="#fff"/><path d="M68.213,20.227A8.613,8.613,0,1,0,59.6,11.613,8.61,8.61,0,0,0,68.213,20.227Z" transform="translate(-56.2 0.4)" fill="#fff"/></g><g transform="translate(32.413)"><path d="M28.6,0V12.013A12.013,12.013,0,1,1,40.613,24.027,12.019,12.019,0,0,1,28.6,12.013V24.027H52.513V0Z" transform="translate(-28.6)" fill="#fff"/><path d="M40.213,20.227A8.613,8.613,0,1,0,31.6,11.613,8.609,8.609,0,0,0,40.213,20.227Z" transform="translate(-28.2 0.4)" fill="#fff"/></g><g transform="translate(0.68 159.573)"><path d="M.6,164.827H12.613a12.013,12.013,0,1,1,12.013-12.013,12.019,12.019,0,0,1-12.013,12.013H24.627V140.913H.6Z" transform="translate(-0.6 -140.8)" fill="#fff"/><path d="M12.213,143.8a8.613,8.613,0,1,0,8.613,8.613,8.61,8.61,0,0,0-8.613-8.613Z" transform="translate(-0.2 -140.4)" fill="#fff"/><path d="M112.6,140.9v12.013a12.013,12.013,0,1,1,12.013,12.013A12.019,12.019,0,0,1,112.6,152.913v12.013h23.913V141.013H112.6Z" transform="translate(14.333 -140.787)" fill="#fff"/><path d="M124.213,161.027a8.613,8.613,0,1,0-8.613-8.613,8.61,8.61,0,0,0,8.613,8.613Z" transform="translate(14.733 -140.4)" fill="#fff"/><path d="M84.6,152.813a12.013,12.013,0,1,1,12.013,12.013A12.019,12.019,0,0,1,84.6,152.813v12.013h23.913V140.913H84.6v11.9Z" transform="translate(10.6 -140.8)" fill="#fff"/><path d="M96.213,161.027a8.613,8.613,0,1,0-8.613-8.613A8.609,8.609,0,0,0,96.213,161.027Z" transform="translate(11 -140.4)" fill="#fff"/><path d="M56.6,152.813a12.013,12.013,0,1,1,12.013,12.013A12.019,12.019,0,0,1,56.6,152.813v12.013H80.513V140.913H56.6v11.9Z" transform="translate(6.867 -140.8)" fill="#fff"/><path d="M68.213,161.027a8.613,8.613,0,1,0-8.613-8.613A8.609,8.609,0,0,0,68.213,161.027Z" transform="translate(7.267 -140.4)" fill="#fff"/><path d="M28.6,152.813a12.013,12.013,0,1,1,12.013,12.013A12.019,12.019,0,0,1,28.6,152.813v12.013H52.513V140.913H28.6v11.9Z" transform="translate(3.133 -140.8)" fill="#fff"/><path d="M40.213,161.027a8.613,8.613,0,1,0-8.613-8.613A8.609,8.609,0,0,0,40.213,161.027Z" transform="translate(3.533 -140.4)" fill="#fff"/></g><g transform="translate(95.88)"><path d="M112.6,12.013a12.013,12.013,0,1,1,12.013,12.013A12.019,12.019,0,0,1,112.6,12.013V24.027h23.913V0H112.6V12.013Z" transform="translate(-80.867)" fill="#fff"/><path d="M124.213,20.227a8.613,8.613,0,1,0-8.613-8.613,8.61,8.61,0,0,0,8.613,8.613Z" transform="translate(-80.467 0.4)" fill="#fff"/><path d="M84.6,12.013A12.013,12.013,0,1,1,96.613,24.027,12.019,12.019,0,0,1,84.6,12.013V24.027h23.913V0H84.6Z" transform="translate(-84.6)" fill="#fff"/><path d="M96.213,20.227A8.613,8.613,0,1,0,87.6,11.613,8.61,8.61,0,0,0,96.213,20.227Z" transform="translate(-84.2 0.4)" fill="#fff"/><path d="M140.6,0V23.913h12.013a11.957,11.957,0,1,1,0-23.913,12.013,12.013,0,1,1,0,24.027h12.013V0H140.6Z" transform="translate(-77.133)" fill="#fff"/><path d="M152.213,3a8.613,8.613,0,1,0,8.613,8.613A8.609,8.609,0,0,0,152.213,3Z" transform="translate(-76.733 0.4)" fill="#fff"/></g><g transform="translate(158.666 31.96)"><path d="M140,40.213a12.013,12.013,0,1,1,12.013,12.013h12.013V28.2H140.113V52.113h12.013A12.019,12.019,0,0,1,140.113,40.1Z" transform="translate(-140 -28.2)" fill="#fff"/><path d="M151.613,31.1a8.613,8.613,0,1,0,8.613,8.613A8.61,8.61,0,0,0,151.613,31.1Z" transform="translate(-139.6 -27.813)" fill="#fff"/><path d="M140,68.313a12.013,12.013,0,1,1,12.013,12.013h12.013V56.413H140.113V80.327h12.013a12.019,12.019,0,0,1-12.013-12.013Z" transform="translate(-140 -24.453)" fill="#fff"/><path d="M151.613,59.3a8.613,8.613,0,1,0,8.613,8.613A8.61,8.61,0,0,0,151.613,59.3Z" transform="translate(-139.6 -24.053)" fill="#fff"/><path d="M140,96.513a12.013,12.013,0,1,1,12.013,12.013h12.013V84.613H140.113v23.913h12.013a12.019,12.019,0,0,1-12.013-12.013Z" transform="translate(-140 -20.693)" fill="#fff"/><path d="M151.613,87.5a8.613,8.613,0,1,0,8.613,8.613A8.609,8.609,0,0,0,151.613,87.5Z" transform="translate(-139.6 -20.293)" fill="#fff"/><path d="M140,124.713a12.013,12.013,0,1,1,12.013,12.013h12.013V112.813H140.113v23.913h12.013a12.019,12.019,0,0,1-12.013-12.013Z" transform="translate(-140 -16.933)" fill="#fff"/><path d="M151.613,115.7a8.613,8.613,0,1,0,8.613,8.613A8.61,8.61,0,0,0,151.613,115.7Z" transform="translate(-139.6 -16.533)" fill="#fff"/><path d="M140.6,140.913v23.913h12.013a12.013,12.013,0,1,1,12.013-12.013,12.019,12.019,0,0,1-12.013,12.013h12.013V140.913H140.6Z" transform="translate(-139.92 -13.187)" fill="#fff"/><path d="M152.213,143.8a8.613,8.613,0,1,0,8.613,8.613A8.61,8.61,0,0,0,152.213,143.8Z" transform="translate(-139.52 -12.787)" fill="#fff"/></g></g></g></svg>