<svg xmlns="http://www.w3.org/2000/svg" width="33.051" height="33.36" viewBox="0 0 33.051 33.36"><path d="M4.125,0H18.977A4.125,4.125,0,0,1,23.1,4.125v7.2L10.38,28.053H4.125A4.125,4.125,0,0,1,0,23.927V4.125A4.125,4.125,0,0,1,4.125,0Z" fill="#fff"/><path d="M0,0H5V19.911L2.533,25.34,0,20.021Z" transform="matrix(0.799, 0.602, -0.602, 0.799, 26.378, 10.113)" fill="#fff"/><path d="M0,0H1.849V8.745L.937,11.129,0,8.793Z" transform="matrix(0.799, 0.602, -0.602, 0.799, 30.378, 13.113)" fill="#fff"/><rect width="5" height="5" rx="2" transform="translate(28.051 6)" fill="#fff"/><g transform="translate(3.051 5)" fill="#fff" stroke="#272727" stroke-width="1"><rect width="12" height="2" stroke="none"/><rect x="0.5" y="0.5" width="11" height="1" fill="none"/></g><g transform="translate(3.051 9)" fill="#fff" stroke="#272727" stroke-width="1"><rect width="17" height="2" stroke="none"/><rect x="0.5" y="0.5" width="16" height="1" fill="none"/></g><g transform="translate(3.051 13)" fill="#fff" stroke="#272727" stroke-width="1"><rect width="7" height="2" stroke="none"/><rect x="0.5" y="0.5" width="6" height="1" fill="none"/></g><g transform="translate(3.051 17)" fill="#fff" stroke="#272727" stroke-width="1"><rect width="11" height="2" stroke="none"/><rect x="0.5" y="0.5" width="10" height="1" fill="none"/></g><g transform="translate(3.051 21)" fill="#fff" stroke="#272727" stroke-width="1"><rect width="6" height="2" stroke="none"/><rect x="0.5" y="0.5" width="5" height="1" fill="none"/></g></svg>