<svg xmlns="http://www.w3.org/2000/svg" width="27.255" height="34" viewBox="0 0 27.255 34"><ellipse cx="3.487" cy="3.493" rx="3.487" ry="3.493" transform="translate(12.509)" fill="#fff"/><path d="M3,0H6.763a3,3,0,0,1,3,3V13.041a0,0,0,0,1,0,0H0a0,0,0,0,1,0,0V3A3,3,0,0,1,3,0Z" transform="translate(11.114 8.384)" fill="#fff"/><path d="M2.253,0h0A1.931,1.931,0,0,1,4.184,1.931v9.713a0,0,0,0,1,0,0H0a0,0,0,0,1,0,0V2.253A2.253,2.253,0,0,1,2.253,0Z" transform="translate(15.298 34) rotate(180)" fill="#fff"/><path d="M2.253,0h0A1.931,1.931,0,0,1,4.184,1.931v9.713a0,0,0,0,1,0,0H0a0,0,0,0,1,0,0V2.253A2.253,2.253,0,0,1,2.253,0Z" transform="translate(20.877 34) rotate(180)" fill="#fff"/><path d="M2.324,0a1.86,1.86,0,0,1,1.86,1.86L3.225,5a1.4,1.4,0,0,0,0,.617A.791.791,0,0,0,3.559,6L6.118,8.689l.553,3.454a5.08,5.08,0,0,1-2.487,0c-1.879-.834-1.775-1.329-3.071-2.537A19.647,19.647,0,0,1-1,7.31a1.784,1.784,0,0,1-.265-.715l.076-.708.861-3.555A3.441,3.441,0,0,1,.5.69,2.9,2.9,0,0,1,2.324,0Z" transform="translate(25.99 21.425) rotate(180)" fill="#fff"/><rect width="4.192" height="13.879" rx="2.096" transform="matrix(-0.588, -0.809, 0.809, -0.588, 2.464, 19.743)" fill="#fff"/></svg>