<svg xmlns="http://www.w3.org/2000/svg" width="25.659" height="42.001" viewBox="0 0 25.659 42.001"><g transform="translate(0.021)"><path d="M.341,0H9.277l1.877,16.381H-1.167Z" transform="translate(9.493 24.593)" fill="#fff"/><rect width="17.727" height="4.253" rx="2" transform="translate(5.622 37.747)" fill="#fff"/><path d="M-3.277,0H13.354C14.92,0,16.19.987,16.19,2.2L13.354,7.976c0,1.218-3.638,1.944-5.2,1.944H1.058C-.508,9.92-4,9.194-4,7.976L-6.113,2.2C-6.113.987-4.843,0-3.277,0Z" transform="translate(9.447 19.165)" fill="#fff"/><ellipse cx="3.101" cy="3.125" rx="3.101" ry="3.125" transform="translate(11.124)" fill="#fff"/><path d="M3,0H5.682a3,3,0,0,1,3,3v7.8a0,0,0,0,1,0,0H0a0,0,0,0,1,0,0V3A3,3,0,0,1,3,0Z" transform="translate(9.884 7.499)" fill="#fff"/><path d="M3.192,0A1.659,1.659,0,0,1,4.846,1.663L3.993,4.469a1.256,1.256,0,0,0,0,.552.706.706,0,0,0,.3.35l2.275,2.4,1.589,3.887a9.238,9.238,0,0,1-2.889-.446c-1.671-.746-2-1.541-3.151-2.622A17.541,17.541,0,0,1,.236,6.539,1.6,1.6,0,0,1,0,5.9l.068-.634L.833,2.085A3.086,3.086,0,0,1,1.57.618,2.574,2.574,0,0,1,3.192,0Z" transform="translate(24.238 19.165) rotate(180)" fill="#fff"/><path d="M1.866,0A1.882,1.882,0,0,1,3.742,1.873l.024,8.633c0,1.031-1.409,4.291-2.442,4.288s-1.3-3.267-1.3-4.3L0,1.862A1.857,1.857,0,0,1,1.866,0Z" transform="matrix(-0.588, -0.809, 0.809, -0.588, 2.192, 17.653)" fill="#fff"/></g></svg>